G04 #@! TF.FileFunction,Copper,L1,Top,Signal*
%FSLAX46Y46*%
G04 Gerber Fmt 4.6, Leading zero omitted, Abs format (unit mm)*
G04 Created by KiCad (PCBNEW 4.0.4-stable) date 09/13/19 14:49:35*
%MOMM*%
%LPD*%
G01*
G04 APERTURE LIST*
%ADD10C,0.150000*%
%ADD11C,0.100000*%
%ADD12C,1.520000*%
%ADD13R,1.520000X1.520000*%
%ADD14R,1.600000X1.600000*%
%ADD15C,1.600000*%
%ADD16R,1.800000X1.800000*%
%ADD17C,1.800000*%
%ADD18O,1.600000X1.600000*%
%ADD19C,1.400000*%
%ADD20O,1.400000X1.400000*%
%ADD21C,2.000000*%
%ADD22C,2.499360*%
%ADD23R,1.400000X1.400000*%
%ADD24R,1.700000X1.700000*%
%ADD25O,1.700000X1.700000*%
%ADD26C,1.500000*%
%ADD27C,1.000000*%
%ADD28C,0.600000*%
%ADD29C,1.000000*%
%ADD30C,0.750000*%
%ADD31C,0.500000*%
G04 APERTURE END LIST*
D10*
D11*
X152400000Y-130000000D02*
X152400000Y-67500000D01*
X102400000Y-130000000D02*
X152400000Y-130000000D01*
X102400000Y-67500000D02*
X102400000Y-130000000D01*
X152400000Y-67500000D02*
X102400000Y-67500000D01*
D12*
X111860000Y-106400000D03*
X109320000Y-106400000D03*
D13*
X114400000Y-106400000D03*
D14*
X129600000Y-105800000D03*
D15*
X129600000Y-108300000D03*
D14*
X123800000Y-105800000D03*
D15*
X123800000Y-108300000D03*
D14*
X109400000Y-100800000D03*
D15*
X111900000Y-100800000D03*
D14*
X118000000Y-105800000D03*
D15*
X118000000Y-108300000D03*
D16*
X105600000Y-85800000D03*
D17*
X105600000Y-88340000D03*
D16*
X105600000Y-94800000D03*
D17*
X105600000Y-92260000D03*
D14*
X147400000Y-87500000D03*
D18*
X114380000Y-95120000D03*
X144860000Y-87500000D03*
X116920000Y-95120000D03*
X142320000Y-87500000D03*
X119460000Y-95120000D03*
X139780000Y-87500000D03*
X122000000Y-95120000D03*
X137240000Y-87500000D03*
X124540000Y-95120000D03*
X134700000Y-87500000D03*
X127080000Y-95120000D03*
X132160000Y-87500000D03*
X129620000Y-95120000D03*
X129620000Y-87500000D03*
X132160000Y-95120000D03*
X127080000Y-87500000D03*
X134700000Y-95120000D03*
X124540000Y-87500000D03*
X137240000Y-95120000D03*
X122000000Y-87500000D03*
X139780000Y-95120000D03*
X119460000Y-87500000D03*
X142320000Y-95120000D03*
X116920000Y-87500000D03*
X144860000Y-95120000D03*
X114380000Y-87500000D03*
X147400000Y-95120000D03*
D15*
X128000000Y-78400000D03*
X130500000Y-78400000D03*
X123200000Y-78400000D03*
X125700000Y-78400000D03*
D19*
X109800000Y-84800000D03*
D20*
X117420000Y-84800000D03*
D19*
X110000000Y-94600000D03*
D20*
X110000000Y-86980000D03*
D19*
X119600000Y-71000000D03*
D20*
X119600000Y-78620000D03*
D19*
X130200000Y-125200000D03*
D20*
X122580000Y-125200000D03*
D19*
X122800000Y-121000000D03*
D20*
X130420000Y-121000000D03*
D19*
X122800000Y-117800000D03*
D20*
X130420000Y-117800000D03*
D19*
X136800000Y-126000000D03*
D20*
X136800000Y-118380000D03*
D19*
X140600000Y-118200000D03*
D20*
X140600000Y-125820000D03*
D19*
X146600000Y-118200000D03*
D20*
X146600000Y-125820000D03*
D19*
X143600000Y-125800000D03*
D20*
X143600000Y-118180000D03*
D21*
X143800000Y-74300000D03*
X143800000Y-69800000D03*
X150300000Y-74300000D03*
X150300000Y-69800000D03*
D19*
X150600000Y-78600000D03*
D20*
X142980000Y-78600000D03*
D22*
X105320000Y-75600000D03*
X115480000Y-75600000D03*
D23*
X122600000Y-69400000D03*
D20*
X124900000Y-69400000D03*
X127200000Y-69400000D03*
D14*
X148800000Y-108000000D03*
D18*
X141180000Y-100380000D03*
X148800000Y-105460000D03*
X141180000Y-102920000D03*
X148800000Y-102920000D03*
X141180000Y-105460000D03*
X148800000Y-100380000D03*
X141180000Y-108000000D03*
D24*
X131800000Y-69600000D03*
D25*
X134340000Y-69600000D03*
X136880000Y-69600000D03*
X139420000Y-69600000D03*
D24*
X131400000Y-102200000D03*
D25*
X128860000Y-102200000D03*
X126320000Y-102200000D03*
X123780000Y-102200000D03*
X121240000Y-102200000D03*
X118700000Y-102200000D03*
X116160000Y-102200000D03*
D24*
X105000000Y-101800000D03*
D25*
X105000000Y-104340000D03*
X105000000Y-106880000D03*
D23*
X134800000Y-108200000D03*
D20*
X134800000Y-105900000D03*
X134800000Y-103600000D03*
D26*
X123200000Y-82800000D03*
X128200000Y-82800000D03*
D27*
X151000000Y-112400000D03*
X149100000Y-112400000D03*
D28*
X129400000Y-90200000D03*
X134000000Y-90800000D03*
X112800000Y-116400000D03*
X129600000Y-85400000D03*
X131800000Y-72200000D03*
X117600000Y-77600000D03*
X116200000Y-83200000D03*
X141400000Y-72400000D03*
X130800000Y-76000000D03*
X125800000Y-76000000D03*
X108000000Y-87000000D03*
X106000000Y-79600000D03*
X105000000Y-99200000D03*
X127000000Y-104000000D03*
X129800000Y-110600000D03*
X123800000Y-111200000D03*
X118200000Y-110600000D03*
X135200000Y-82400000D03*
X140800000Y-112000000D03*
X137400000Y-129200000D03*
X106600000Y-114800000D03*
X110000000Y-111400000D03*
X144000000Y-81200000D03*
X125200000Y-100000000D03*
X122600000Y-100200000D03*
X121000000Y-97400000D03*
X115200000Y-98000000D03*
X115400000Y-104400000D03*
X110400000Y-104000000D03*
X149800000Y-88800000D03*
X130200000Y-99200000D03*
X118800000Y-99000000D03*
X124400000Y-97400000D03*
X125000000Y-120000000D03*
X133200000Y-106200000D03*
X132400000Y-104200000D03*
X120800000Y-117800000D03*
X107800000Y-110600000D03*
D29*
X134000000Y-92800000D02*
X134000000Y-90800000D01*
X129620000Y-89980000D02*
X129620000Y-87500000D01*
X129400000Y-90200000D02*
X129620000Y-89980000D01*
X132160000Y-95120000D02*
X132160000Y-94640000D01*
X132160000Y-94640000D02*
X134000000Y-92800000D01*
X149600000Y-99580000D02*
X148800000Y-100380000D01*
X149600000Y-94600000D02*
X149600000Y-99580000D01*
X147800000Y-92800000D02*
X149600000Y-94600000D01*
X134000000Y-92800000D02*
X147800000Y-92800000D01*
X126320000Y-102200000D02*
X126320000Y-101280000D01*
X129400000Y-97880000D02*
X132160000Y-95120000D01*
X129400000Y-98200000D02*
X129400000Y-97880000D01*
X126320000Y-101280000D02*
X129400000Y-98200000D01*
D30*
X122580000Y-125200000D02*
X119400000Y-125200000D01*
X112800000Y-118600000D02*
X112800000Y-116400000D01*
X119400000Y-125200000D02*
X112800000Y-118600000D01*
D29*
X129620000Y-87500000D02*
X129620000Y-85420000D01*
X129620000Y-85420000D02*
X129600000Y-85400000D01*
X131800000Y-72200000D02*
X131800000Y-69600000D01*
X119600000Y-78620000D02*
X118620000Y-78620000D01*
X118620000Y-78620000D02*
X117600000Y-77600000D01*
X117420000Y-84800000D02*
X117420000Y-84420000D01*
X117420000Y-84420000D02*
X116200000Y-83200000D01*
X141400000Y-72400000D02*
X143800000Y-70000000D01*
X143800000Y-70000000D02*
X150100000Y-70000000D01*
X150100000Y-70000000D02*
X150300000Y-69800000D01*
D30*
X125700000Y-78400000D02*
X125700000Y-76100000D01*
X130500000Y-76300000D02*
X130500000Y-78400000D01*
X130800000Y-76000000D02*
X130500000Y-76300000D01*
X125700000Y-76100000D02*
X125800000Y-76000000D01*
D29*
X110000000Y-86980000D02*
X108020000Y-86980000D01*
X108020000Y-86980000D02*
X108000000Y-87000000D01*
X105000000Y-101800000D02*
X105000000Y-99200000D01*
X105320000Y-78920000D02*
X105320000Y-75600000D01*
X106000000Y-79600000D02*
X105320000Y-78920000D01*
X126320000Y-103320000D02*
X126320000Y-102200000D01*
X127000000Y-104000000D02*
X126320000Y-103320000D01*
X129600000Y-110400000D02*
X129600000Y-108300000D01*
X129800000Y-110600000D02*
X129600000Y-110400000D01*
X123800000Y-111200000D02*
X123800000Y-108300000D01*
X118000000Y-110400000D02*
X118000000Y-108300000D01*
X118200000Y-110600000D02*
X118000000Y-110400000D01*
X111900000Y-100800000D02*
X111900000Y-106360000D01*
X111900000Y-106360000D02*
X111860000Y-106400000D01*
D31*
X136200000Y-129000000D02*
X135600000Y-128400000D01*
X135400000Y-128200000D02*
X135600000Y-128400000D01*
X135400000Y-128200000D02*
X135200000Y-128200000D01*
X136200000Y-129000000D02*
X136200000Y-128800000D01*
X136200000Y-128800000D02*
X136200000Y-129000000D01*
X135200000Y-127600000D02*
X135200000Y-128200000D01*
X135200000Y-128200000D02*
X135200000Y-129000000D01*
X135200000Y-129000000D02*
X135200000Y-128600000D01*
X135200000Y-128600000D02*
X135200000Y-129000000D01*
D30*
X135200000Y-82400000D02*
X134340000Y-81540000D01*
X134340000Y-81540000D02*
X134340000Y-80860000D01*
D29*
X140600000Y-125820000D02*
X143580000Y-125820000D01*
X143580000Y-125820000D02*
X146600000Y-125820000D01*
X141180000Y-108000000D02*
X141180000Y-111620000D01*
X141180000Y-111620000D02*
X140800000Y-112000000D01*
X137400000Y-129200000D02*
X137200000Y-129000000D01*
X137200000Y-129000000D02*
X136200000Y-129000000D01*
X136200000Y-129000000D02*
X135200000Y-129000000D01*
X135200000Y-129000000D02*
X133800000Y-129000000D01*
X109320000Y-106400000D02*
X109320000Y-110720000D01*
X133800000Y-129000000D02*
X135200000Y-127600000D01*
X135200000Y-127600000D02*
X136800000Y-126000000D01*
X107400000Y-129000000D02*
X133800000Y-129000000D01*
X104600000Y-126200000D02*
X107400000Y-129000000D01*
X104600000Y-116800000D02*
X104600000Y-126200000D01*
X106600000Y-114800000D02*
X104600000Y-116800000D01*
X109320000Y-110720000D02*
X110000000Y-111400000D01*
X140600000Y-125820000D02*
X136980000Y-125820000D01*
X136980000Y-125820000D02*
X136800000Y-126000000D01*
D30*
X142980000Y-78600000D02*
X142980000Y-80180000D01*
X142980000Y-80180000D02*
X144000000Y-81200000D01*
D29*
X134340000Y-69600000D02*
X134340000Y-80860000D01*
X132160000Y-83040000D02*
X132160000Y-87500000D01*
X134340000Y-80860000D02*
X132160000Y-83040000D01*
X129620000Y-95120000D02*
X129620000Y-93580000D01*
X132160000Y-91040000D02*
X132160000Y-87500000D01*
X129620000Y-93580000D02*
X132160000Y-91040000D01*
X109400000Y-100800000D02*
X109400000Y-98200000D01*
X127080000Y-98120000D02*
X127080000Y-95120000D01*
X125200000Y-100000000D02*
X127080000Y-98120000D01*
X122600000Y-99000000D02*
X122600000Y-100200000D01*
X121000000Y-97400000D02*
X122600000Y-99000000D01*
X109600000Y-98000000D02*
X115200000Y-98000000D01*
X109400000Y-98200000D02*
X109600000Y-98000000D01*
X127080000Y-95120000D02*
X129620000Y-95120000D01*
X109400000Y-103000000D02*
X110400000Y-104000000D01*
X116400000Y-104400000D02*
X117800000Y-105800000D01*
X115400000Y-104400000D02*
X116400000Y-104400000D01*
X117800000Y-105800000D02*
X118000000Y-105800000D01*
X109400000Y-100800000D02*
X109400000Y-103000000D01*
X109400000Y-103000000D02*
X108000000Y-104400000D01*
X109320000Y-106400000D02*
X109320000Y-105720000D01*
X109320000Y-105720000D02*
X108000000Y-104400000D01*
X108000000Y-104400000D02*
X107940000Y-104340000D01*
X107940000Y-104340000D02*
X105000000Y-104340000D01*
X123800000Y-105800000D02*
X122800000Y-105800000D01*
X114400000Y-111600000D02*
X114400000Y-106400000D01*
X115200000Y-112400000D02*
X114400000Y-111600000D01*
X120400000Y-112400000D02*
X115200000Y-112400000D01*
X120800000Y-112000000D02*
X120400000Y-112400000D01*
X120800000Y-107800000D02*
X120800000Y-112000000D01*
X122800000Y-105800000D02*
X120800000Y-107800000D01*
X123800000Y-105800000D02*
X129600000Y-105800000D01*
X129600000Y-105800000D02*
X130400000Y-105000000D01*
X130400000Y-105000000D02*
X130400000Y-103200000D01*
X130400000Y-103200000D02*
X131400000Y-102200000D01*
D30*
X105600000Y-85800000D02*
X105600000Y-85600000D01*
X105600000Y-85600000D02*
X106400000Y-84800000D01*
X106400000Y-84800000D02*
X109800000Y-84800000D01*
D31*
X105600000Y-88340000D02*
X105600000Y-88600000D01*
X105600000Y-88600000D02*
X106600000Y-89600000D01*
X106600000Y-89600000D02*
X114820000Y-89600000D01*
X114820000Y-89600000D02*
X116920000Y-87500000D01*
X105600000Y-94800000D02*
X109800000Y-94800000D01*
X109800000Y-94800000D02*
X110000000Y-94600000D01*
X105600000Y-92260000D02*
X105600000Y-91600000D01*
X105600000Y-91600000D02*
X106600000Y-90600000D01*
X106600000Y-90600000D02*
X117000000Y-90600000D01*
X117000000Y-90600000D02*
X119460000Y-88140000D01*
X119460000Y-88140000D02*
X119460000Y-87500000D01*
X128860000Y-102200000D02*
X128860000Y-100540000D01*
X148500000Y-87500000D02*
X147400000Y-87500000D01*
X149800000Y-88800000D02*
X148500000Y-87500000D01*
X128860000Y-100540000D02*
X130200000Y-99200000D01*
D30*
X150600000Y-78600000D02*
X150600000Y-74600000D01*
X150600000Y-74600000D02*
X150300000Y-74300000D01*
X150300000Y-74300000D02*
X143800000Y-74300000D01*
X147400000Y-87500000D02*
X147400000Y-81800000D01*
X147400000Y-81800000D02*
X150600000Y-78600000D01*
D31*
X128400000Y-114600000D02*
X128400000Y-115780000D01*
X128400000Y-115780000D02*
X130420000Y-117800000D01*
X114380000Y-95120000D02*
X112680000Y-95120000D01*
X128400000Y-114600000D02*
X134800000Y-108200000D01*
X109800000Y-114600000D02*
X128400000Y-114600000D01*
X103200000Y-108000000D02*
X109800000Y-114600000D01*
X103200000Y-99200000D02*
X103200000Y-108000000D01*
X105800000Y-96600000D02*
X103200000Y-99200000D01*
X111200000Y-96600000D02*
X105800000Y-96600000D01*
X112680000Y-95120000D02*
X111200000Y-96600000D01*
D30*
X139420000Y-69600000D02*
X139420000Y-79620000D01*
X144860000Y-85060000D02*
X144860000Y-87500000D01*
X139420000Y-79620000D02*
X144860000Y-85060000D01*
D31*
X116920000Y-95120000D02*
X116920000Y-98680000D01*
X116160000Y-99440000D02*
X116160000Y-102200000D01*
X116920000Y-98680000D02*
X116160000Y-99440000D01*
D30*
X136880000Y-69600000D02*
X136880000Y-79080000D01*
X142320000Y-84520000D02*
X142320000Y-87500000D01*
X136880000Y-79080000D02*
X142320000Y-84520000D01*
D31*
X119460000Y-95120000D02*
X119460000Y-97460000D01*
X121240000Y-99240000D02*
X121240000Y-102200000D01*
X119460000Y-97460000D02*
X121240000Y-99240000D01*
X148800000Y-102920000D02*
X147880000Y-102920000D01*
X146600000Y-104200000D02*
X146600000Y-118200000D01*
X147880000Y-102920000D02*
X146600000Y-104200000D01*
X139780000Y-87500000D02*
X139780000Y-88980000D01*
X151400000Y-100320000D02*
X148800000Y-102920000D01*
X151400000Y-92800000D02*
X151400000Y-100320000D01*
X149400000Y-90800000D02*
X151400000Y-92800000D01*
X141600000Y-90800000D02*
X149400000Y-90800000D01*
X139780000Y-88980000D02*
X141600000Y-90800000D01*
X122000000Y-95120000D02*
X122000000Y-96800000D01*
X123780000Y-98580000D02*
X123780000Y-102200000D01*
X122000000Y-96800000D02*
X123780000Y-98580000D01*
X124540000Y-95120000D02*
X124540000Y-97260000D01*
X118700000Y-99100000D02*
X118700000Y-102200000D01*
X118800000Y-99000000D02*
X118700000Y-99100000D01*
X124540000Y-97260000D02*
X124400000Y-97400000D01*
D30*
X128200000Y-82800000D02*
X128200000Y-78600000D01*
X128200000Y-78600000D02*
X128000000Y-78400000D01*
X127080000Y-87500000D02*
X127080000Y-83920000D01*
X127080000Y-83920000D02*
X128200000Y-82800000D01*
X123200000Y-82800000D02*
X123200000Y-78400000D01*
X123200000Y-82800000D02*
X124600000Y-84200000D01*
X124600000Y-84200000D02*
X124600000Y-87440000D01*
X124600000Y-87440000D02*
X124540000Y-87500000D01*
X130420000Y-121000000D02*
X130420000Y-120780000D01*
X130420000Y-120780000D02*
X132000000Y-119200000D01*
X136400000Y-95960000D02*
X137240000Y-95120000D01*
X136400000Y-100200000D02*
X136400000Y-95960000D01*
X137000000Y-100800000D02*
X136400000Y-100200000D01*
X137000000Y-109600000D02*
X137000000Y-100800000D01*
X132000000Y-114600000D02*
X137000000Y-109600000D01*
X132000000Y-119200000D02*
X132000000Y-114600000D01*
X130420000Y-121000000D02*
X130420000Y-124980000D01*
X130420000Y-124980000D02*
X130200000Y-125200000D01*
D31*
X122000000Y-87500000D02*
X122000000Y-86800000D01*
X122000000Y-86800000D02*
X119800000Y-84600000D01*
X119800000Y-84600000D02*
X119800000Y-83000000D01*
X119800000Y-83000000D02*
X116600000Y-79800000D01*
X116600000Y-79800000D02*
X113800000Y-79800000D01*
X113800000Y-79800000D02*
X110600000Y-76600000D01*
X110600000Y-76600000D02*
X110600000Y-71400000D01*
X110600000Y-71400000D02*
X113600000Y-68400000D01*
X113600000Y-68400000D02*
X121600000Y-68400000D01*
X121600000Y-68400000D02*
X122600000Y-69400000D01*
X136800000Y-118380000D02*
X136800000Y-111800000D01*
X138800000Y-102760000D02*
X141180000Y-100380000D01*
X138800000Y-109800000D02*
X138800000Y-102760000D01*
X136800000Y-111800000D02*
X138800000Y-109800000D01*
D30*
X141180000Y-100380000D02*
X143020000Y-100380000D01*
X144860000Y-98540000D02*
X144860000Y-95120000D01*
X143020000Y-100380000D02*
X144860000Y-98540000D01*
D31*
X142030000Y-103770000D02*
X142030000Y-102770000D01*
X142400000Y-102600000D02*
X142400000Y-102400000D01*
X142200000Y-102600000D02*
X142400000Y-102600000D01*
X142030000Y-102770000D02*
X142200000Y-102600000D01*
X144600000Y-106340000D02*
X144600000Y-100200000D01*
X144600000Y-100200000D02*
X144600000Y-100400000D01*
X144600000Y-100400000D02*
X144600000Y-100200000D01*
X143600000Y-118180000D02*
X143600000Y-116400000D01*
X144600000Y-106340000D02*
X142030000Y-103770000D01*
X142030000Y-103770000D02*
X141180000Y-102920000D01*
X144600000Y-115400000D02*
X144600000Y-106340000D01*
X143600000Y-116400000D02*
X144600000Y-115400000D01*
D30*
X141180000Y-102920000D02*
X141880000Y-102920000D01*
X141880000Y-102920000D02*
X142400000Y-102400000D01*
X142400000Y-102400000D02*
X143100000Y-101700000D01*
X143100000Y-101700000D02*
X144600000Y-100200000D01*
X144600000Y-100200000D02*
X146000000Y-98800000D01*
X146000000Y-96520000D02*
X147400000Y-95120000D01*
X146000000Y-98800000D02*
X146000000Y-96520000D01*
D31*
X119600000Y-71000000D02*
X120600000Y-71000000D01*
X124900000Y-70500000D02*
X124900000Y-69400000D01*
X123200000Y-72200000D02*
X124900000Y-70500000D01*
X121800000Y-72200000D02*
X123200000Y-72200000D01*
X120600000Y-71000000D02*
X121800000Y-72200000D01*
X115480000Y-75600000D02*
X115480000Y-72520000D01*
X117000000Y-71000000D02*
X119600000Y-71000000D01*
X115480000Y-72520000D02*
X117000000Y-71000000D01*
D30*
X134800000Y-105900000D02*
X133500000Y-105900000D01*
X124000000Y-121000000D02*
X122800000Y-121000000D01*
X125000000Y-120000000D02*
X124000000Y-121000000D01*
X133500000Y-105900000D02*
X133200000Y-106200000D01*
X133000000Y-103600000D02*
X134800000Y-103600000D01*
X132400000Y-104200000D02*
X133000000Y-103600000D01*
X105000000Y-106880000D02*
X105000000Y-107800000D01*
X120800000Y-117800000D02*
X122800000Y-117800000D01*
X105000000Y-107800000D02*
X107800000Y-110600000D01*
D31*
X140600000Y-118200000D02*
X140600000Y-117000000D01*
X143000000Y-107280000D02*
X141180000Y-105460000D01*
X143000000Y-114600000D02*
X143000000Y-107280000D01*
X140600000Y-117000000D02*
X143000000Y-114600000D01*
D30*
X148800000Y-108000000D02*
X148800000Y-112100000D01*
X148800000Y-112100000D02*
X149100000Y-112400000D01*
X151000000Y-112400000D02*
X151000000Y-107660000D01*
X151000000Y-107660000D02*
X148800000Y-105460000D01*
M02*
