M48
;DRILL file {KiCad 4.0.4-stable} date 09/13/19 14:52:12
;FORMAT={-:-/ absolute / inch / decimal}
FMAT,2
INCH,TZ
T1C0.016
T2C0.020
T3C0.028
T4C0.031
T5C0.035
T6C0.039
T7C0.039
T8C0.043
%
G90
G05
M72
T1
X4.1339Y-3.9055
X4.1732Y-3.1339
X4.1969Y-4.5197
X4.2441Y-4.3543
X4.252Y-3.4252
X4.3307Y-4.3858
X4.3465Y-4.0945
X4.4409Y-4.5827
X4.5354Y-3.8583
X4.5433Y-4.1102
X4.5748Y-3.2756
X4.6299Y-3.0551
X4.6535Y-4.3543
X4.6772Y-3.8976
X4.7559Y-4.6378
X4.7638Y-3.8346
X4.8268Y-3.9449
X4.874Y-4.378
X4.8976Y-3.8346
X4.9213Y-4.7244
X4.9291Y-3.937
X4.9528Y-2.9921
X5.Y-4.0945
X5.0945Y-3.5512
X5.1024Y-3.3622
X5.1102Y-4.3543
X5.126Y-3.9055
X5.1496Y-2.9921
X5.189Y-2.8425
X5.2126Y-4.1024
X5.2441Y-4.1811
X5.2756Y-3.5748
X5.3228Y-3.2441
X5.4094Y-5.0866
X5.5433Y-4.4094
X5.5669Y-2.8504
X5.6693Y-3.1969
X5.8976Y-3.4961
T2
X5.8701Y-4.4252
X5.9449Y-4.4252
T3
X4.3228Y-3.3386
X4.3307Y-3.4244
X4.3307Y-3.7244
X4.6228Y-3.3386
X4.7087Y-2.7953
X4.7087Y-3.0953
X4.826Y-4.9291
X4.8346Y-4.6378
X4.8346Y-4.7638
X5.126Y-4.9291
X5.1346Y-4.6378
X5.1346Y-4.7638
X5.3858Y-4.6606
X5.3858Y-4.9606
X5.5354Y-4.6535
X5.5354Y-4.9535
X5.6291Y-3.0945
X5.6535Y-4.6528
X5.6535Y-4.9528
X5.7717Y-4.6535
X5.7717Y-4.9535
X5.9291Y-3.0945
T4
X4.3039Y-4.189
X4.3071Y-3.9685
X4.4039Y-4.189
X4.4055Y-3.9685
X4.5031Y-3.4449
X4.5031Y-3.7449
X4.5039Y-4.189
X4.6031Y-3.4449
X4.6031Y-3.7449
X4.6457Y-4.1654
X4.6457Y-4.2638
X4.7031Y-3.4449
X4.7031Y-3.7449
X4.8031Y-3.4449
X4.8031Y-3.7449
X4.8268Y-2.7323
X4.8504Y-3.0866
X4.8504Y-3.2598
X4.874Y-4.1654
X4.874Y-4.2638
X4.9031Y-3.4449
X4.9031Y-3.7449
X4.9173Y-2.7323
X4.9488Y-3.0866
X5.0031Y-3.4449
X5.0031Y-3.7449
X5.0079Y-2.7323
X5.0394Y-3.0866
X5.0472Y-3.2598
X5.1024Y-4.1654
X5.1024Y-4.2638
X5.1031Y-3.4449
X5.1031Y-3.7449
X5.1378Y-3.0866
X5.2031Y-3.4449
X5.2031Y-3.7449
X5.3031Y-3.4449
X5.3031Y-3.7449
X5.3071Y-4.0787
X5.3071Y-4.1693
X5.3071Y-4.2598
X5.4031Y-3.4449
X5.4031Y-3.7449
X5.5031Y-3.4449
X5.5031Y-3.7449
X5.5583Y-3.952
X5.5583Y-4.052
X5.5583Y-4.152
X5.5583Y-4.252
X5.6031Y-3.4449
X5.6031Y-3.7449
X5.7031Y-3.4449
X5.7031Y-3.7449
X5.8031Y-3.4449
X5.8031Y-3.7449
X5.8583Y-3.952
X5.8583Y-4.052
X5.8583Y-4.152
X5.8583Y-4.252
T5
X4.1575Y-3.378
X4.1575Y-3.478
X4.1575Y-3.6323
X4.1575Y-3.7323
T6
X4.1339Y-4.0079
X4.1339Y-4.1079
X4.1339Y-4.2079
X4.5732Y-4.0236
X4.6732Y-4.0236
X4.7732Y-4.0236
X4.8732Y-4.0236
X4.9732Y-4.0236
X5.0732Y-4.0236
X5.1732Y-4.0236
X5.189Y-2.7402
X5.289Y-2.7402
X5.389Y-2.7402
X5.489Y-2.7402
T7
X4.1465Y-2.9764
X4.5465Y-2.9764
T8
X5.6614Y-2.748
X5.6614Y-2.9252
X5.9173Y-2.748
X5.9173Y-2.9252
T0
M30
