G04 #@! TF.FileFunction,Soldermask,Top*
%FSLAX46Y46*%
G04 Gerber Fmt 4.6, Leading zero omitted, Abs format (unit mm)*
G04 Created by KiCad (PCBNEW 4.0.4-stable) date 09/13/19 14:49:35*
%MOMM*%
%LPD*%
G01*
G04 APERTURE LIST*
%ADD10C,0.150000*%
%ADD11C,0.100000*%
%ADD12C,1.520000*%
%ADD13R,1.520000X1.520000*%
%ADD14R,1.600000X1.600000*%
%ADD15C,1.600000*%
%ADD16R,1.800000X1.800000*%
%ADD17C,1.800000*%
%ADD18O,1.600000X1.600000*%
%ADD19C,1.400000*%
%ADD20O,1.400000X1.400000*%
%ADD21C,2.000000*%
%ADD22C,2.499360*%
%ADD23R,1.400000X1.400000*%
%ADD24R,1.700000X1.700000*%
%ADD25O,1.700000X1.700000*%
%ADD26C,1.500000*%
%ADD27C,1.000000*%
G04 APERTURE END LIST*
D10*
D11*
X152400000Y-130000000D02*
X152400000Y-67500000D01*
X102400000Y-130000000D02*
X152400000Y-130000000D01*
X102400000Y-67500000D02*
X102400000Y-130000000D01*
X152400000Y-67500000D02*
X102400000Y-67500000D01*
D12*
X111860000Y-106400000D03*
X109320000Y-106400000D03*
D13*
X114400000Y-106400000D03*
D14*
X129600000Y-105800000D03*
D15*
X129600000Y-108300000D03*
D14*
X123800000Y-105800000D03*
D15*
X123800000Y-108300000D03*
D14*
X109400000Y-100800000D03*
D15*
X111900000Y-100800000D03*
D14*
X118000000Y-105800000D03*
D15*
X118000000Y-108300000D03*
D16*
X105600000Y-85800000D03*
D17*
X105600000Y-88340000D03*
D16*
X105600000Y-94800000D03*
D17*
X105600000Y-92260000D03*
D14*
X147400000Y-87500000D03*
D18*
X114380000Y-95120000D03*
X144860000Y-87500000D03*
X116920000Y-95120000D03*
X142320000Y-87500000D03*
X119460000Y-95120000D03*
X139780000Y-87500000D03*
X122000000Y-95120000D03*
X137240000Y-87500000D03*
X124540000Y-95120000D03*
X134700000Y-87500000D03*
X127080000Y-95120000D03*
X132160000Y-87500000D03*
X129620000Y-95120000D03*
X129620000Y-87500000D03*
X132160000Y-95120000D03*
X127080000Y-87500000D03*
X134700000Y-95120000D03*
X124540000Y-87500000D03*
X137240000Y-95120000D03*
X122000000Y-87500000D03*
X139780000Y-95120000D03*
X119460000Y-87500000D03*
X142320000Y-95120000D03*
X116920000Y-87500000D03*
X144860000Y-95120000D03*
X114380000Y-87500000D03*
X147400000Y-95120000D03*
D15*
X128000000Y-78400000D03*
X130500000Y-78400000D03*
X123200000Y-78400000D03*
X125700000Y-78400000D03*
D19*
X109800000Y-84800000D03*
D20*
X117420000Y-84800000D03*
D19*
X110000000Y-94600000D03*
D20*
X110000000Y-86980000D03*
D19*
X119600000Y-71000000D03*
D20*
X119600000Y-78620000D03*
D19*
X130200000Y-125200000D03*
D20*
X122580000Y-125200000D03*
D19*
X122800000Y-121000000D03*
D20*
X130420000Y-121000000D03*
D19*
X122800000Y-117800000D03*
D20*
X130420000Y-117800000D03*
D19*
X136800000Y-126000000D03*
D20*
X136800000Y-118380000D03*
D19*
X140600000Y-118200000D03*
D20*
X140600000Y-125820000D03*
D19*
X146600000Y-118200000D03*
D20*
X146600000Y-125820000D03*
D19*
X143600000Y-125800000D03*
D20*
X143600000Y-118180000D03*
D21*
X143800000Y-74300000D03*
X143800000Y-69800000D03*
X150300000Y-74300000D03*
X150300000Y-69800000D03*
D19*
X150600000Y-78600000D03*
D20*
X142980000Y-78600000D03*
D22*
X105320000Y-75600000D03*
X115480000Y-75600000D03*
D23*
X122600000Y-69400000D03*
D20*
X124900000Y-69400000D03*
X127200000Y-69400000D03*
D14*
X148800000Y-108000000D03*
D18*
X141180000Y-100380000D03*
X148800000Y-105460000D03*
X141180000Y-102920000D03*
X148800000Y-102920000D03*
X141180000Y-105460000D03*
X148800000Y-100380000D03*
X141180000Y-108000000D03*
D24*
X131800000Y-69600000D03*
D25*
X134340000Y-69600000D03*
X136880000Y-69600000D03*
X139420000Y-69600000D03*
D24*
X131400000Y-102200000D03*
D25*
X128860000Y-102200000D03*
X126320000Y-102200000D03*
X123780000Y-102200000D03*
X121240000Y-102200000D03*
X118700000Y-102200000D03*
X116160000Y-102200000D03*
D24*
X105000000Y-101800000D03*
D25*
X105000000Y-104340000D03*
X105000000Y-106880000D03*
D23*
X134800000Y-108200000D03*
D20*
X134800000Y-105900000D03*
X134800000Y-103600000D03*
D26*
X123200000Y-82800000D03*
X128200000Y-82800000D03*
D27*
X151000000Y-112400000D03*
X149100000Y-112400000D03*
M02*
