G04 #@! TF.FileFunction,Copper,L2,Bot,Signal*
%FSLAX46Y46*%
G04 Gerber Fmt 4.6, Leading zero omitted, Abs format (unit mm)*
G04 Created by KiCad (PCBNEW 4.0.4-stable) date 09/13/19 14:49:35*
%MOMM*%
%LPD*%
G01*
G04 APERTURE LIST*
%ADD10C,0.150000*%
%ADD11C,0.100000*%
%ADD12C,1.520000*%
%ADD13R,1.520000X1.520000*%
%ADD14R,1.600000X1.600000*%
%ADD15C,1.600000*%
%ADD16R,1.800000X1.800000*%
%ADD17C,1.800000*%
%ADD18O,1.600000X1.600000*%
%ADD19C,1.400000*%
%ADD20O,1.400000X1.400000*%
%ADD21C,2.000000*%
%ADD22C,2.499360*%
%ADD23R,1.400000X1.400000*%
%ADD24R,1.700000X1.700000*%
%ADD25O,1.700000X1.700000*%
%ADD26C,1.500000*%
%ADD27C,1.000000*%
%ADD28C,0.600000*%
%ADD29C,1.000000*%
%ADD30C,0.750000*%
%ADD31C,0.500000*%
%ADD32C,0.254000*%
G04 APERTURE END LIST*
D10*
D11*
X152400000Y-130000000D02*
X152400000Y-67500000D01*
X102400000Y-130000000D02*
X152400000Y-130000000D01*
X102400000Y-67500000D02*
X102400000Y-130000000D01*
X152400000Y-67500000D02*
X102400000Y-67500000D01*
D12*
X111860000Y-106400000D03*
X109320000Y-106400000D03*
D13*
X114400000Y-106400000D03*
D14*
X129600000Y-105800000D03*
D15*
X129600000Y-108300000D03*
D14*
X123800000Y-105800000D03*
D15*
X123800000Y-108300000D03*
D14*
X109400000Y-100800000D03*
D15*
X111900000Y-100800000D03*
D14*
X118000000Y-105800000D03*
D15*
X118000000Y-108300000D03*
D16*
X105600000Y-85800000D03*
D17*
X105600000Y-88340000D03*
D16*
X105600000Y-94800000D03*
D17*
X105600000Y-92260000D03*
D14*
X147400000Y-87500000D03*
D18*
X114380000Y-95120000D03*
X144860000Y-87500000D03*
X116920000Y-95120000D03*
X142320000Y-87500000D03*
X119460000Y-95120000D03*
X139780000Y-87500000D03*
X122000000Y-95120000D03*
X137240000Y-87500000D03*
X124540000Y-95120000D03*
X134700000Y-87500000D03*
X127080000Y-95120000D03*
X132160000Y-87500000D03*
X129620000Y-95120000D03*
X129620000Y-87500000D03*
X132160000Y-95120000D03*
X127080000Y-87500000D03*
X134700000Y-95120000D03*
X124540000Y-87500000D03*
X137240000Y-95120000D03*
X122000000Y-87500000D03*
X139780000Y-95120000D03*
X119460000Y-87500000D03*
X142320000Y-95120000D03*
X116920000Y-87500000D03*
X144860000Y-95120000D03*
X114380000Y-87500000D03*
X147400000Y-95120000D03*
D15*
X128000000Y-78400000D03*
X130500000Y-78400000D03*
X123200000Y-78400000D03*
X125700000Y-78400000D03*
D19*
X109800000Y-84800000D03*
D20*
X117420000Y-84800000D03*
D19*
X110000000Y-94600000D03*
D20*
X110000000Y-86980000D03*
D19*
X119600000Y-71000000D03*
D20*
X119600000Y-78620000D03*
D19*
X130200000Y-125200000D03*
D20*
X122580000Y-125200000D03*
D19*
X122800000Y-121000000D03*
D20*
X130420000Y-121000000D03*
D19*
X122800000Y-117800000D03*
D20*
X130420000Y-117800000D03*
D19*
X136800000Y-126000000D03*
D20*
X136800000Y-118380000D03*
D19*
X140600000Y-118200000D03*
D20*
X140600000Y-125820000D03*
D19*
X146600000Y-118200000D03*
D20*
X146600000Y-125820000D03*
D19*
X143600000Y-125800000D03*
D20*
X143600000Y-118180000D03*
D21*
X143800000Y-74300000D03*
X143800000Y-69800000D03*
X150300000Y-74300000D03*
X150300000Y-69800000D03*
D19*
X150600000Y-78600000D03*
D20*
X142980000Y-78600000D03*
D22*
X105320000Y-75600000D03*
X115480000Y-75600000D03*
D23*
X122600000Y-69400000D03*
D20*
X124900000Y-69400000D03*
X127200000Y-69400000D03*
D14*
X148800000Y-108000000D03*
D18*
X141180000Y-100380000D03*
X148800000Y-105460000D03*
X141180000Y-102920000D03*
X148800000Y-102920000D03*
X141180000Y-105460000D03*
X148800000Y-100380000D03*
X141180000Y-108000000D03*
D24*
X131800000Y-69600000D03*
D25*
X134340000Y-69600000D03*
X136880000Y-69600000D03*
X139420000Y-69600000D03*
D24*
X131400000Y-102200000D03*
D25*
X128860000Y-102200000D03*
X126320000Y-102200000D03*
X123780000Y-102200000D03*
X121240000Y-102200000D03*
X118700000Y-102200000D03*
X116160000Y-102200000D03*
D24*
X105000000Y-101800000D03*
D25*
X105000000Y-104340000D03*
X105000000Y-106880000D03*
D23*
X134800000Y-108200000D03*
D20*
X134800000Y-105900000D03*
X134800000Y-103600000D03*
D26*
X123200000Y-82800000D03*
X128200000Y-82800000D03*
D27*
X151000000Y-112400000D03*
X149100000Y-112400000D03*
D28*
X129400000Y-90200000D03*
X134000000Y-90800000D03*
X112800000Y-116400000D03*
X129600000Y-85400000D03*
X131800000Y-72200000D03*
X117600000Y-77600000D03*
X116200000Y-83200000D03*
X141400000Y-72400000D03*
X130800000Y-76000000D03*
X125800000Y-76000000D03*
X108000000Y-87000000D03*
X106000000Y-79600000D03*
X105000000Y-99200000D03*
X127000000Y-104000000D03*
X129800000Y-110600000D03*
X123800000Y-111200000D03*
X118200000Y-110600000D03*
X135200000Y-82400000D03*
X140800000Y-112000000D03*
X137400000Y-129200000D03*
X106600000Y-114800000D03*
X110000000Y-111400000D03*
X144000000Y-81200000D03*
X125200000Y-100000000D03*
X122600000Y-100200000D03*
X121000000Y-97400000D03*
X115200000Y-98000000D03*
X115400000Y-104400000D03*
X110400000Y-104000000D03*
X149800000Y-88800000D03*
X130200000Y-99200000D03*
X118800000Y-99000000D03*
X124400000Y-97400000D03*
X125000000Y-120000000D03*
X133200000Y-106200000D03*
X132400000Y-104200000D03*
X120800000Y-117800000D03*
X107800000Y-110600000D03*
D29*
X115000000Y-82000000D02*
X115000000Y-80200000D01*
X115000000Y-80200000D02*
X114800000Y-80400000D01*
X130200000Y-74600000D02*
X130200000Y-74800000D01*
X130200000Y-74800000D02*
X130800000Y-75400000D01*
X129600000Y-90400000D02*
X129400000Y-90200000D01*
X133600000Y-90400000D02*
X129600000Y-90400000D01*
X134000000Y-90800000D02*
X133600000Y-90400000D01*
D30*
X112520000Y-116120000D02*
X112520000Y-111400000D01*
X112800000Y-116400000D02*
X112520000Y-116120000D01*
D29*
X130500000Y-80400000D02*
X131400000Y-80400000D01*
X132200000Y-77400000D02*
X130800000Y-76000000D01*
X132200000Y-79600000D02*
X132200000Y-77400000D01*
X131400000Y-80400000D02*
X132200000Y-79600000D01*
X129600000Y-85400000D02*
X130500000Y-84500000D01*
X130500000Y-84500000D02*
X130500000Y-80400000D01*
X130500000Y-80400000D02*
X130500000Y-78400000D01*
X132000000Y-74200000D02*
X132000000Y-72400000D01*
X132000000Y-72400000D02*
X131800000Y-72200000D01*
X130800000Y-76000000D02*
X130800000Y-75400000D01*
X130800000Y-75400000D02*
X132000000Y-74200000D01*
X132000000Y-74200000D02*
X131600000Y-74600000D01*
X128000000Y-76000000D02*
X128000000Y-74600000D01*
X116200000Y-83200000D02*
X115000000Y-82000000D01*
X115000000Y-82000000D02*
X114400000Y-81400000D01*
X114400000Y-81400000D02*
X113800000Y-81400000D01*
X107800000Y-81400000D02*
X113800000Y-81400000D01*
X139200000Y-74600000D02*
X141400000Y-72400000D01*
X131600000Y-74600000D02*
X139200000Y-74600000D01*
X128000000Y-74600000D02*
X130200000Y-74600000D01*
X130200000Y-74600000D02*
X131600000Y-74600000D01*
X120600000Y-74600000D02*
X128000000Y-74600000D01*
X117600000Y-77600000D02*
X120600000Y-74600000D01*
X113800000Y-81400000D02*
X114800000Y-80400000D01*
X114800000Y-80400000D02*
X117600000Y-77600000D01*
D30*
X125800000Y-76000000D02*
X128000000Y-76000000D01*
X128000000Y-76000000D02*
X130800000Y-76000000D01*
D29*
X107000000Y-98000000D02*
X107000000Y-107400000D01*
X109000000Y-109400000D02*
X111860000Y-109400000D01*
X107000000Y-107400000D02*
X109000000Y-109400000D01*
X108000000Y-87000000D02*
X107800000Y-87000000D01*
X107800000Y-87000000D02*
X108000000Y-87000000D01*
X108000000Y-87000000D02*
X107800000Y-87000000D01*
X107800000Y-81400000D02*
X106000000Y-79600000D01*
X107800000Y-97200000D02*
X107800000Y-87000000D01*
X107800000Y-87000000D02*
X107800000Y-81400000D01*
X107000000Y-98000000D02*
X107800000Y-97200000D01*
X106200000Y-98000000D02*
X107000000Y-98000000D01*
X105000000Y-99200000D02*
X106200000Y-98000000D01*
X127000000Y-111200000D02*
X127000000Y-104400000D01*
X127000000Y-104400000D02*
X127000000Y-104000000D01*
X123800000Y-111200000D02*
X127000000Y-111200000D01*
X127000000Y-111200000D02*
X129200000Y-111200000D01*
X129200000Y-111200000D02*
X129800000Y-110600000D01*
X118200000Y-111200000D02*
X123800000Y-111200000D01*
X111860000Y-106400000D02*
X111860000Y-109400000D01*
X111860000Y-109400000D02*
X111860000Y-110740000D01*
X111860000Y-110740000D02*
X112520000Y-111400000D01*
X112520000Y-111400000D02*
X118000000Y-111400000D01*
X118000000Y-111400000D02*
X118200000Y-111200000D01*
X118200000Y-111200000D02*
X118200000Y-110600000D01*
D30*
X145000000Y-82200000D02*
X145000000Y-82800000D01*
X145000000Y-82800000D02*
X144000000Y-83800000D01*
X144000000Y-83800000D02*
X136600000Y-83800000D01*
X136600000Y-83800000D02*
X135200000Y-82400000D01*
D29*
X140800000Y-112000000D02*
X138800000Y-114000000D01*
X138800000Y-114000000D02*
X138800000Y-127800000D01*
X138800000Y-127800000D02*
X137400000Y-129200000D01*
X110000000Y-111400000D02*
X106600000Y-114800000D01*
D30*
X144000000Y-81200000D02*
X145000000Y-82200000D01*
D29*
X122800000Y-100000000D02*
X125200000Y-100000000D01*
X122600000Y-100200000D02*
X122800000Y-100000000D01*
X115800000Y-97400000D02*
X121000000Y-97400000D01*
X115200000Y-98000000D02*
X115800000Y-97400000D01*
X110800000Y-104400000D02*
X115400000Y-104400000D01*
X110400000Y-104000000D02*
X110800000Y-104400000D01*
D31*
X149800000Y-95200000D02*
X149800000Y-88800000D01*
X147800000Y-97200000D02*
X149800000Y-95200000D01*
X132200000Y-97200000D02*
X147800000Y-97200000D01*
X130200000Y-99200000D02*
X132200000Y-97200000D01*
X122800000Y-99000000D02*
X118800000Y-99000000D01*
X124400000Y-97400000D02*
X122800000Y-99000000D01*
D30*
X125000000Y-119000000D02*
X125000000Y-120000000D01*
X133000000Y-111000000D02*
X125000000Y-119000000D01*
X133000000Y-106400000D02*
X133000000Y-111000000D01*
X133200000Y-106200000D02*
X133000000Y-106400000D01*
D31*
X119900000Y-115700000D02*
X120100000Y-115700000D01*
X120100000Y-115700000D02*
X120800000Y-116400000D01*
D30*
X120800000Y-117800000D02*
X120800000Y-116400000D01*
X120800000Y-116400000D02*
X120800000Y-114800000D01*
X120800000Y-114800000D02*
X121000000Y-114600000D01*
X118600000Y-117800000D02*
X118600000Y-117000000D01*
X118600000Y-117000000D02*
X119900000Y-115700000D01*
X119900000Y-115700000D02*
X121000000Y-114600000D01*
X121000000Y-114600000D02*
X123000000Y-112600000D01*
X123000000Y-112600000D02*
X129400000Y-112600000D01*
X129400000Y-112600000D02*
X131800000Y-110200000D01*
X131800000Y-110200000D02*
X131800000Y-104800000D01*
X131800000Y-104800000D02*
X132400000Y-104200000D01*
X111600000Y-117800000D02*
X118600000Y-117800000D01*
X118600000Y-117800000D02*
X120800000Y-117800000D01*
X110600000Y-116800000D02*
X111600000Y-117800000D01*
X106400000Y-116800000D02*
X110600000Y-116800000D01*
X104800000Y-115200000D02*
X106400000Y-116800000D01*
X104800000Y-113600000D02*
X104800000Y-115200000D01*
X107800000Y-110600000D02*
X104800000Y-113600000D01*
D32*
G36*
X121448559Y-68235910D02*
X121303569Y-68448110D01*
X121252560Y-68700000D01*
X121252560Y-70100000D01*
X121296838Y-70335317D01*
X121435910Y-70551441D01*
X121648110Y-70696431D01*
X121900000Y-70747440D01*
X123300000Y-70747440D01*
X123535317Y-70703162D01*
X123751441Y-70564090D01*
X123896431Y-70351890D01*
X123905434Y-70307434D01*
X123929858Y-70343988D01*
X124362964Y-70633379D01*
X124873846Y-70735000D01*
X124926154Y-70735000D01*
X125437036Y-70633379D01*
X125870142Y-70343988D01*
X126050000Y-70074810D01*
X126229858Y-70343988D01*
X126662964Y-70633379D01*
X127173846Y-70735000D01*
X127226154Y-70735000D01*
X127737036Y-70633379D01*
X128170142Y-70343988D01*
X128459533Y-69910882D01*
X128464532Y-69885750D01*
X130315000Y-69885750D01*
X130315000Y-70576309D01*
X130411673Y-70809698D01*
X130590301Y-70988327D01*
X130823690Y-71085000D01*
X131514250Y-71085000D01*
X131673000Y-70926250D01*
X131673000Y-69727000D01*
X130473750Y-69727000D01*
X130315000Y-69885750D01*
X128464532Y-69885750D01*
X128561154Y-69400000D01*
X128459533Y-68889118D01*
X128170142Y-68456012D01*
X127764542Y-68185000D01*
X130654695Y-68185000D01*
X130590301Y-68211673D01*
X130411673Y-68390302D01*
X130315000Y-68623691D01*
X130315000Y-69314250D01*
X130473750Y-69473000D01*
X131673000Y-69473000D01*
X131673000Y-69453000D01*
X131927000Y-69453000D01*
X131927000Y-69473000D01*
X131947000Y-69473000D01*
X131947000Y-69727000D01*
X131927000Y-69727000D01*
X131927000Y-70926250D01*
X132085750Y-71085000D01*
X132776310Y-71085000D01*
X133009699Y-70988327D01*
X133188327Y-70809698D01*
X133260597Y-70635223D01*
X133289946Y-70679147D01*
X133771715Y-71001054D01*
X134340000Y-71114093D01*
X134908285Y-71001054D01*
X135390054Y-70679147D01*
X135610000Y-70349974D01*
X135829946Y-70679147D01*
X136311715Y-71001054D01*
X136880000Y-71114093D01*
X137448285Y-71001054D01*
X137930054Y-70679147D01*
X138150000Y-70349974D01*
X138369946Y-70679147D01*
X138851715Y-71001054D01*
X139420000Y-71114093D01*
X139988285Y-71001054D01*
X140060903Y-70952532D01*
X142827073Y-70952532D01*
X142925736Y-71219387D01*
X143535461Y-71445908D01*
X144185460Y-71421856D01*
X144674264Y-71219387D01*
X144772927Y-70952532D01*
X149327073Y-70952532D01*
X149425736Y-71219387D01*
X150035461Y-71445908D01*
X150685460Y-71421856D01*
X151174264Y-71219387D01*
X151272927Y-70952532D01*
X150300000Y-69979605D01*
X149327073Y-70952532D01*
X144772927Y-70952532D01*
X143800000Y-69979605D01*
X142827073Y-70952532D01*
X140060903Y-70952532D01*
X140470054Y-70679147D01*
X140791961Y-70197378D01*
X140905000Y-69629093D01*
X140905000Y-69570907D01*
X140897950Y-69535461D01*
X142154092Y-69535461D01*
X142178144Y-70185460D01*
X142380613Y-70674264D01*
X142647468Y-70772927D01*
X143620395Y-69800000D01*
X143979605Y-69800000D01*
X144952532Y-70772927D01*
X145219387Y-70674264D01*
X145445908Y-70064539D01*
X145426331Y-69535461D01*
X148654092Y-69535461D01*
X148678144Y-70185460D01*
X148880613Y-70674264D01*
X149147468Y-70772927D01*
X150120395Y-69800000D01*
X149147468Y-68827073D01*
X148880613Y-68925736D01*
X148654092Y-69535461D01*
X145426331Y-69535461D01*
X145421856Y-69414540D01*
X145219387Y-68925736D01*
X144952532Y-68827073D01*
X143979605Y-69800000D01*
X143620395Y-69800000D01*
X142647468Y-68827073D01*
X142380613Y-68925736D01*
X142154092Y-69535461D01*
X140897950Y-69535461D01*
X140791961Y-69002622D01*
X140470054Y-68520853D01*
X139988285Y-68198946D01*
X139918174Y-68185000D01*
X143397988Y-68185000D01*
X142925736Y-68380613D01*
X142827073Y-68647468D01*
X143800000Y-69620395D01*
X144772927Y-68647468D01*
X144674264Y-68380613D01*
X144147734Y-68185000D01*
X149897988Y-68185000D01*
X149425736Y-68380613D01*
X149327073Y-68647468D01*
X150300000Y-69620395D01*
X151272927Y-68647468D01*
X151174264Y-68380613D01*
X150647734Y-68185000D01*
X151715000Y-68185000D01*
X151715000Y-68924114D01*
X151452532Y-68827073D01*
X150479605Y-69800000D01*
X151452532Y-70772927D01*
X151715000Y-70675886D01*
X151715000Y-73443079D01*
X151686894Y-73375057D01*
X151227363Y-72914722D01*
X150626648Y-72665284D01*
X149976205Y-72664716D01*
X149375057Y-72913106D01*
X148914722Y-73372637D01*
X148665284Y-73973352D01*
X148664716Y-74623795D01*
X148913106Y-75224943D01*
X149372637Y-75685278D01*
X149973352Y-75934716D01*
X150623795Y-75935284D01*
X151224943Y-75686894D01*
X151685278Y-75227363D01*
X151715000Y-75155784D01*
X151715000Y-77827323D01*
X151357204Y-77468902D01*
X150866713Y-77265232D01*
X150335617Y-77264769D01*
X149844771Y-77467582D01*
X149468902Y-77842796D01*
X149265232Y-78333287D01*
X149264769Y-78864383D01*
X149467582Y-79355229D01*
X149842796Y-79731098D01*
X150333287Y-79934768D01*
X150864383Y-79935231D01*
X151355229Y-79732418D01*
X151715000Y-79373274D01*
X151715000Y-111509714D01*
X151643765Y-111438355D01*
X151226756Y-111265197D01*
X150775225Y-111264803D01*
X150357914Y-111437233D01*
X150049743Y-111744867D01*
X149743765Y-111438355D01*
X149326756Y-111265197D01*
X148875225Y-111264803D01*
X148457914Y-111437233D01*
X148138355Y-111756235D01*
X147965197Y-112173244D01*
X147964803Y-112624775D01*
X148137233Y-113042086D01*
X148456235Y-113361645D01*
X148873244Y-113534803D01*
X149324775Y-113535197D01*
X149742086Y-113362767D01*
X150050257Y-113055133D01*
X150356235Y-113361645D01*
X150773244Y-113534803D01*
X151224775Y-113535197D01*
X151642086Y-113362767D01*
X151715000Y-113289980D01*
X151715000Y-129315000D01*
X138890132Y-129315000D01*
X139602566Y-128602566D01*
X139828012Y-128265162D01*
X139848603Y-128234346D01*
X139935000Y-127800000D01*
X139935000Y-126976555D01*
X140089118Y-127079533D01*
X140600000Y-127181154D01*
X141110882Y-127079533D01*
X141543988Y-126790142D01*
X141833379Y-126357036D01*
X141891591Y-126064383D01*
X142264769Y-126064383D01*
X142467582Y-126555229D01*
X142842796Y-126931098D01*
X143333287Y-127134768D01*
X143864383Y-127135231D01*
X144355229Y-126932418D01*
X144731098Y-126557204D01*
X144934768Y-126066713D01*
X144935005Y-125793846D01*
X145265000Y-125793846D01*
X145265000Y-125846154D01*
X145366621Y-126357036D01*
X145656012Y-126790142D01*
X146089118Y-127079533D01*
X146600000Y-127181154D01*
X147110882Y-127079533D01*
X147543988Y-126790142D01*
X147833379Y-126357036D01*
X147935000Y-125846154D01*
X147935000Y-125793846D01*
X147833379Y-125282964D01*
X147543988Y-124849858D01*
X147110882Y-124560467D01*
X146600000Y-124458846D01*
X146089118Y-124560467D01*
X145656012Y-124849858D01*
X145366621Y-125282964D01*
X145265000Y-125793846D01*
X144935005Y-125793846D01*
X144935231Y-125535617D01*
X144732418Y-125044771D01*
X144357204Y-124668902D01*
X143866713Y-124465232D01*
X143335617Y-124464769D01*
X142844771Y-124667582D01*
X142468902Y-125042796D01*
X142265232Y-125533287D01*
X142264769Y-126064383D01*
X141891591Y-126064383D01*
X141935000Y-125846154D01*
X141935000Y-125793846D01*
X141833379Y-125282964D01*
X141543988Y-124849858D01*
X141110882Y-124560467D01*
X140600000Y-124458846D01*
X140089118Y-124560467D01*
X139935000Y-124663445D01*
X139935000Y-119369385D01*
X140333287Y-119534768D01*
X140864383Y-119535231D01*
X141355229Y-119332418D01*
X141731098Y-118957204D01*
X141934768Y-118466713D01*
X141935040Y-118153846D01*
X142265000Y-118153846D01*
X142265000Y-118206154D01*
X142366621Y-118717036D01*
X142656012Y-119150142D01*
X143089118Y-119439533D01*
X143600000Y-119541154D01*
X144110882Y-119439533D01*
X144543988Y-119150142D01*
X144833379Y-118717036D01*
X144883634Y-118464383D01*
X145264769Y-118464383D01*
X145467582Y-118955229D01*
X145842796Y-119331098D01*
X146333287Y-119534768D01*
X146864383Y-119535231D01*
X147355229Y-119332418D01*
X147731098Y-118957204D01*
X147934768Y-118466713D01*
X147935231Y-117935617D01*
X147732418Y-117444771D01*
X147357204Y-117068902D01*
X146866713Y-116865232D01*
X146335617Y-116864769D01*
X145844771Y-117067582D01*
X145468902Y-117442796D01*
X145265232Y-117933287D01*
X145264769Y-118464383D01*
X144883634Y-118464383D01*
X144935000Y-118206154D01*
X144935000Y-118153846D01*
X144833379Y-117642964D01*
X144543988Y-117209858D01*
X144110882Y-116920467D01*
X143600000Y-116818846D01*
X143089118Y-116920467D01*
X142656012Y-117209858D01*
X142366621Y-117642964D01*
X142265000Y-118153846D01*
X141935040Y-118153846D01*
X141935231Y-117935617D01*
X141732418Y-117444771D01*
X141357204Y-117068902D01*
X140866713Y-116865232D01*
X140335617Y-116864769D01*
X139935000Y-117030300D01*
X139935000Y-114470132D01*
X141602566Y-112802566D01*
X141848603Y-112434345D01*
X141935000Y-112000000D01*
X141848603Y-111565655D01*
X141602566Y-111197434D01*
X141234345Y-110951397D01*
X140800000Y-110865000D01*
X140365655Y-110951397D01*
X139997434Y-111197434D01*
X137997434Y-113197434D01*
X137751397Y-113565654D01*
X137665000Y-114000000D01*
X137665000Y-117357080D01*
X137310882Y-117120467D01*
X136800000Y-117018846D01*
X136289118Y-117120467D01*
X135856012Y-117409858D01*
X135566621Y-117842964D01*
X135465000Y-118353846D01*
X135465000Y-118406154D01*
X135566621Y-118917036D01*
X135856012Y-119350142D01*
X136289118Y-119639533D01*
X136800000Y-119741154D01*
X137310882Y-119639533D01*
X137665000Y-119402920D01*
X137665000Y-124976886D01*
X137557204Y-124868902D01*
X137066713Y-124665232D01*
X136535617Y-124664769D01*
X136044771Y-124867582D01*
X135668902Y-125242796D01*
X135465232Y-125733287D01*
X135464769Y-126264383D01*
X135667582Y-126755229D01*
X136042796Y-127131098D01*
X136533287Y-127334768D01*
X137064383Y-127335231D01*
X137555229Y-127132418D01*
X137665000Y-127022838D01*
X137665000Y-127329868D01*
X136597434Y-128397434D01*
X136351397Y-128765655D01*
X136265000Y-129200000D01*
X136287875Y-129315000D01*
X103085000Y-129315000D01*
X103085000Y-125533329D01*
X121287284Y-125533329D01*
X121430203Y-125878396D01*
X121777337Y-126266764D01*
X122246669Y-126492727D01*
X122453000Y-126370206D01*
X122453000Y-125327000D01*
X122707000Y-125327000D01*
X122707000Y-126370206D01*
X122913331Y-126492727D01*
X123382663Y-126266764D01*
X123729797Y-125878396D01*
X123872716Y-125533329D01*
X123831501Y-125464383D01*
X128864769Y-125464383D01*
X129067582Y-125955229D01*
X129442796Y-126331098D01*
X129933287Y-126534768D01*
X130464383Y-126535231D01*
X130955229Y-126332418D01*
X131331098Y-125957204D01*
X131534768Y-125466713D01*
X131535231Y-124935617D01*
X131332418Y-124444771D01*
X130957204Y-124068902D01*
X130466713Y-123865232D01*
X129935617Y-123864769D01*
X129444771Y-124067582D01*
X129068902Y-124442796D01*
X128865232Y-124933287D01*
X128864769Y-125464383D01*
X123831501Y-125464383D01*
X123749374Y-125327000D01*
X122707000Y-125327000D01*
X122453000Y-125327000D01*
X121410626Y-125327000D01*
X121287284Y-125533329D01*
X103085000Y-125533329D01*
X103085000Y-124866671D01*
X121287284Y-124866671D01*
X121410626Y-125073000D01*
X122453000Y-125073000D01*
X122453000Y-124029794D01*
X122707000Y-124029794D01*
X122707000Y-125073000D01*
X123749374Y-125073000D01*
X123872716Y-124866671D01*
X123729797Y-124521604D01*
X123382663Y-124133236D01*
X122913331Y-123907273D01*
X122707000Y-124029794D01*
X122453000Y-124029794D01*
X122246669Y-123907273D01*
X121777337Y-124133236D01*
X121430203Y-124521604D01*
X121287284Y-124866671D01*
X103085000Y-124866671D01*
X103085000Y-121264383D01*
X121464769Y-121264383D01*
X121667582Y-121755229D01*
X122042796Y-122131098D01*
X122533287Y-122334768D01*
X123064383Y-122335231D01*
X123555229Y-122132418D01*
X123931098Y-121757204D01*
X124134768Y-121266713D01*
X124135231Y-120735617D01*
X123932418Y-120244771D01*
X123557204Y-119868902D01*
X123066713Y-119665232D01*
X122535617Y-119664769D01*
X122044771Y-119867582D01*
X121668902Y-120242796D01*
X121465232Y-120733287D01*
X121464769Y-121264383D01*
X103085000Y-121264383D01*
X103085000Y-113600000D01*
X103790000Y-113600000D01*
X103790000Y-115200000D01*
X103866882Y-115586510D01*
X104085822Y-115914178D01*
X105685822Y-117514178D01*
X106013490Y-117733118D01*
X106400000Y-117810000D01*
X110181644Y-117810000D01*
X110885822Y-118514178D01*
X111213490Y-118733118D01*
X111600000Y-118810001D01*
X111600005Y-118810000D01*
X120800000Y-118810000D01*
X121186510Y-118733118D01*
X121514178Y-118514178D01*
X121598486Y-118388002D01*
X121667582Y-118555229D01*
X122042796Y-118931098D01*
X122533287Y-119134768D01*
X123064383Y-119135231D01*
X123555229Y-118932418D01*
X123931098Y-118557204D01*
X124134768Y-118066713D01*
X124135231Y-117535617D01*
X123932418Y-117044771D01*
X123557204Y-116668902D01*
X123066713Y-116465232D01*
X122535617Y-116464769D01*
X122044771Y-116667582D01*
X121810000Y-116901944D01*
X121810000Y-115218356D01*
X123418356Y-113610000D01*
X128961645Y-113610000D01*
X124285822Y-118285822D01*
X124066882Y-118613490D01*
X123990000Y-119000000D01*
X123990000Y-120000000D01*
X124066882Y-120386510D01*
X124285822Y-120714178D01*
X124613490Y-120933118D01*
X125000000Y-121010000D01*
X125050273Y-121000000D01*
X129058846Y-121000000D01*
X129160467Y-121510882D01*
X129449858Y-121943988D01*
X129882964Y-122233379D01*
X130393846Y-122335000D01*
X130446154Y-122335000D01*
X130957036Y-122233379D01*
X131390142Y-121943988D01*
X131679533Y-121510882D01*
X131781154Y-121000000D01*
X131679533Y-120489118D01*
X131390142Y-120056012D01*
X130957036Y-119766621D01*
X130446154Y-119665000D01*
X130393846Y-119665000D01*
X129882964Y-119766621D01*
X129449858Y-120056012D01*
X129160467Y-120489118D01*
X129058846Y-121000000D01*
X125050273Y-121000000D01*
X125386510Y-120933118D01*
X125714178Y-120714178D01*
X125933118Y-120386510D01*
X126010000Y-120000000D01*
X126010000Y-119418356D01*
X127628355Y-117800000D01*
X129058846Y-117800000D01*
X129160467Y-118310882D01*
X129449858Y-118743988D01*
X129882964Y-119033379D01*
X130393846Y-119135000D01*
X130446154Y-119135000D01*
X130957036Y-119033379D01*
X131390142Y-118743988D01*
X131679533Y-118310882D01*
X131781154Y-117800000D01*
X131679533Y-117289118D01*
X131390142Y-116856012D01*
X130957036Y-116566621D01*
X130446154Y-116465000D01*
X130393846Y-116465000D01*
X129882964Y-116566621D01*
X129449858Y-116856012D01*
X129160467Y-117289118D01*
X129058846Y-117800000D01*
X127628355Y-117800000D01*
X133714175Y-111714180D01*
X133714178Y-111714178D01*
X133876626Y-111471057D01*
X133933118Y-111386511D01*
X134010000Y-111000000D01*
X134010000Y-109529215D01*
X134100000Y-109547440D01*
X135500000Y-109547440D01*
X135735317Y-109503162D01*
X135951441Y-109364090D01*
X136096431Y-109151890D01*
X136147440Y-108900000D01*
X136147440Y-107500000D01*
X136103162Y-107264683D01*
X135964090Y-107048559D01*
X135751890Y-106903569D01*
X135707434Y-106894566D01*
X135743988Y-106870142D01*
X136033379Y-106437036D01*
X136135000Y-105926154D01*
X136135000Y-105873846D01*
X136033379Y-105362964D01*
X135743988Y-104929858D01*
X135474810Y-104750000D01*
X135743988Y-104570142D01*
X136033379Y-104137036D01*
X136135000Y-103626154D01*
X136135000Y-103573846D01*
X136033379Y-103062964D01*
X135743988Y-102629858D01*
X135310882Y-102340467D01*
X134800000Y-102238846D01*
X134289118Y-102340467D01*
X133856012Y-102629858D01*
X133566621Y-103062964D01*
X133465000Y-103573846D01*
X133465000Y-103626154D01*
X133566621Y-104137036D01*
X133856012Y-104570142D01*
X134125190Y-104750000D01*
X133856012Y-104929858D01*
X133617144Y-105287351D01*
X133586510Y-105266882D01*
X133200000Y-105190000D01*
X132813490Y-105266882D01*
X132810000Y-105269214D01*
X132810000Y-105218356D01*
X133114178Y-104914178D01*
X133333118Y-104586510D01*
X133410000Y-104200000D01*
X133333118Y-103813490D01*
X133114178Y-103485822D01*
X132844072Y-103305343D01*
X132846431Y-103301890D01*
X132897440Y-103050000D01*
X132897440Y-101350000D01*
X132853162Y-101114683D01*
X132714090Y-100898559D01*
X132501890Y-100753569D01*
X132250000Y-100702560D01*
X130550000Y-100702560D01*
X130314683Y-100746838D01*
X130098559Y-100885910D01*
X129953569Y-101098110D01*
X129939914Y-101165541D01*
X129910054Y-101120853D01*
X129428285Y-100798946D01*
X128860000Y-100685907D01*
X128291715Y-100798946D01*
X127809946Y-101120853D01*
X127582298Y-101461553D01*
X127515183Y-101318642D01*
X127086924Y-100928355D01*
X126676890Y-100758524D01*
X126447000Y-100879845D01*
X126447000Y-102073000D01*
X126467000Y-102073000D01*
X126467000Y-102327000D01*
X126447000Y-102327000D01*
X126447000Y-103520155D01*
X126676890Y-103641476D01*
X127086924Y-103471645D01*
X127515183Y-103081358D01*
X127582298Y-102938447D01*
X127809946Y-103279147D01*
X128291715Y-103601054D01*
X128860000Y-103714093D01*
X129428285Y-103601054D01*
X129910054Y-103279147D01*
X129937850Y-103237548D01*
X129946838Y-103285317D01*
X130085910Y-103501441D01*
X130298110Y-103646431D01*
X130550000Y-103697440D01*
X131474204Y-103697440D01*
X131085822Y-104085822D01*
X130866882Y-104413490D01*
X130842896Y-104534077D01*
X130651890Y-104403569D01*
X130400000Y-104352560D01*
X128800000Y-104352560D01*
X128564683Y-104396838D01*
X128348559Y-104535910D01*
X128203569Y-104748110D01*
X128152560Y-105000000D01*
X128152560Y-106600000D01*
X128196838Y-106835317D01*
X128335910Y-107051441D01*
X128548110Y-107196431D01*
X128786201Y-107244646D01*
X128771861Y-107292255D01*
X129600000Y-108120395D01*
X130428139Y-107292255D01*
X130413855Y-107244833D01*
X130635317Y-107203162D01*
X130790000Y-107103626D01*
X130790000Y-107526758D01*
X130607745Y-107471861D01*
X129779605Y-108300000D01*
X130607745Y-109128139D01*
X130790000Y-109073242D01*
X130790000Y-109781644D01*
X128981644Y-111590000D01*
X123000000Y-111590000D01*
X122613490Y-111666882D01*
X122285822Y-111885822D01*
X117885822Y-116285822D01*
X117666882Y-116613490D01*
X117631772Y-116790000D01*
X112018356Y-116790000D01*
X111314178Y-116085822D01*
X110986510Y-115866882D01*
X110600000Y-115790000D01*
X107122051Y-115790000D01*
X107402566Y-115602566D01*
X110802566Y-112202566D01*
X111048603Y-111834345D01*
X111135000Y-111400000D01*
X111048603Y-110965655D01*
X110802566Y-110597434D01*
X110434345Y-110351397D01*
X110000000Y-110265000D01*
X109565655Y-110351397D01*
X109197434Y-110597434D01*
X108581611Y-111213257D01*
X108733118Y-110986510D01*
X108810000Y-110600000D01*
X108733118Y-110213490D01*
X108514178Y-109885822D01*
X108186510Y-109666882D01*
X107800000Y-109590000D01*
X107413490Y-109666882D01*
X107085822Y-109885822D01*
X104085822Y-112885822D01*
X103866882Y-113213490D01*
X103790000Y-113600000D01*
X103085000Y-113600000D01*
X103085000Y-109307745D01*
X117171861Y-109307745D01*
X117245995Y-109553864D01*
X117783223Y-109746965D01*
X118353454Y-109719778D01*
X118754005Y-109553864D01*
X118828139Y-109307745D01*
X122971861Y-109307745D01*
X123045995Y-109553864D01*
X123583223Y-109746965D01*
X124153454Y-109719778D01*
X124554005Y-109553864D01*
X124628139Y-109307745D01*
X128771861Y-109307745D01*
X128845995Y-109553864D01*
X129383223Y-109746965D01*
X129953454Y-109719778D01*
X130354005Y-109553864D01*
X130428139Y-109307745D01*
X129600000Y-108479605D01*
X128771861Y-109307745D01*
X124628139Y-109307745D01*
X123800000Y-108479605D01*
X122971861Y-109307745D01*
X118828139Y-109307745D01*
X118000000Y-108479605D01*
X117171861Y-109307745D01*
X103085000Y-109307745D01*
X103085000Y-104340000D01*
X103485907Y-104340000D01*
X103598946Y-104908285D01*
X103920853Y-105390054D01*
X104250026Y-105610000D01*
X103920853Y-105829946D01*
X103598946Y-106311715D01*
X103485907Y-106880000D01*
X103598946Y-107448285D01*
X103920853Y-107930054D01*
X104402622Y-108251961D01*
X104970907Y-108365000D01*
X105029093Y-108365000D01*
X105597378Y-108251961D01*
X105849912Y-108083223D01*
X116553035Y-108083223D01*
X116580222Y-108653454D01*
X116746136Y-109054005D01*
X116992255Y-109128139D01*
X117820395Y-108300000D01*
X118179605Y-108300000D01*
X119007745Y-109128139D01*
X119253864Y-109054005D01*
X119446965Y-108516777D01*
X119426295Y-108083223D01*
X122353035Y-108083223D01*
X122380222Y-108653454D01*
X122546136Y-109054005D01*
X122792255Y-109128139D01*
X123620395Y-108300000D01*
X123979605Y-108300000D01*
X124807745Y-109128139D01*
X125053864Y-109054005D01*
X125246965Y-108516777D01*
X125226295Y-108083223D01*
X128153035Y-108083223D01*
X128180222Y-108653454D01*
X128346136Y-109054005D01*
X128592255Y-109128139D01*
X129420395Y-108300000D01*
X128592255Y-107471861D01*
X128346136Y-107545995D01*
X128153035Y-108083223D01*
X125226295Y-108083223D01*
X125219778Y-107946546D01*
X125053864Y-107545995D01*
X124807745Y-107471861D01*
X123979605Y-108300000D01*
X123620395Y-108300000D01*
X122792255Y-107471861D01*
X122546136Y-107545995D01*
X122353035Y-108083223D01*
X119426295Y-108083223D01*
X119419778Y-107946546D01*
X119253864Y-107545995D01*
X119007745Y-107471861D01*
X118179605Y-108300000D01*
X117820395Y-108300000D01*
X116992255Y-107471861D01*
X116746136Y-107545995D01*
X116553035Y-108083223D01*
X105849912Y-108083223D01*
X106079147Y-107930054D01*
X106401054Y-107448285D01*
X106514093Y-106880000D01*
X106473568Y-106676265D01*
X107924758Y-106676265D01*
X108136687Y-107189172D01*
X108528764Y-107581934D01*
X109041300Y-107794758D01*
X109596265Y-107795242D01*
X110109172Y-107583313D01*
X110314078Y-107378764D01*
X111060841Y-107378764D01*
X111130059Y-107620742D01*
X111652780Y-107807155D01*
X112207049Y-107779341D01*
X112589941Y-107620742D01*
X112659159Y-107378764D01*
X111860000Y-106579605D01*
X111060841Y-107378764D01*
X110314078Y-107378764D01*
X110501934Y-107191236D01*
X110583391Y-106995066D01*
X110639258Y-107129941D01*
X110881236Y-107199159D01*
X111680395Y-106400000D01*
X111666253Y-106385858D01*
X111845858Y-106206253D01*
X111860000Y-106220395D01*
X111874143Y-106206253D01*
X112053748Y-106385858D01*
X112039605Y-106400000D01*
X112838764Y-107199159D01*
X112992560Y-107155166D01*
X112992560Y-107160000D01*
X113036838Y-107395317D01*
X113175910Y-107611441D01*
X113388110Y-107756431D01*
X113640000Y-107807440D01*
X115160000Y-107807440D01*
X115395317Y-107763162D01*
X115611441Y-107624090D01*
X115756431Y-107411890D01*
X115807440Y-107160000D01*
X115807440Y-105640000D01*
X115773696Y-105460667D01*
X115834346Y-105448603D01*
X116202566Y-105202566D01*
X116337916Y-105000000D01*
X116552560Y-105000000D01*
X116552560Y-106600000D01*
X116596838Y-106835317D01*
X116735910Y-107051441D01*
X116948110Y-107196431D01*
X117186201Y-107244646D01*
X117171861Y-107292255D01*
X118000000Y-108120395D01*
X118828139Y-107292255D01*
X118813855Y-107244833D01*
X119035317Y-107203162D01*
X119251441Y-107064090D01*
X119396431Y-106851890D01*
X119447440Y-106600000D01*
X119447440Y-105000000D01*
X122352560Y-105000000D01*
X122352560Y-106600000D01*
X122396838Y-106835317D01*
X122535910Y-107051441D01*
X122748110Y-107196431D01*
X122986201Y-107244646D01*
X122971861Y-107292255D01*
X123800000Y-108120395D01*
X124628139Y-107292255D01*
X124613855Y-107244833D01*
X124835317Y-107203162D01*
X125051441Y-107064090D01*
X125196431Y-106851890D01*
X125247440Y-106600000D01*
X125247440Y-105000000D01*
X125203162Y-104764683D01*
X125064090Y-104548559D01*
X124851890Y-104403569D01*
X124600000Y-104352560D01*
X123000000Y-104352560D01*
X122764683Y-104396838D01*
X122548559Y-104535910D01*
X122403569Y-104748110D01*
X122352560Y-105000000D01*
X119447440Y-105000000D01*
X119403162Y-104764683D01*
X119264090Y-104548559D01*
X119051890Y-104403569D01*
X118800000Y-104352560D01*
X117200000Y-104352560D01*
X116964683Y-104396838D01*
X116748559Y-104535910D01*
X116603569Y-104748110D01*
X116552560Y-105000000D01*
X116337916Y-105000000D01*
X116448603Y-104834346D01*
X116535000Y-104400000D01*
X116448603Y-103965654D01*
X116266377Y-103692933D01*
X116728285Y-103601054D01*
X117210054Y-103279147D01*
X117430000Y-102949974D01*
X117649946Y-103279147D01*
X118131715Y-103601054D01*
X118700000Y-103714093D01*
X119268285Y-103601054D01*
X119750054Y-103279147D01*
X119970000Y-102949974D01*
X120189946Y-103279147D01*
X120671715Y-103601054D01*
X121240000Y-103714093D01*
X121808285Y-103601054D01*
X122290054Y-103279147D01*
X122510000Y-102949974D01*
X122729946Y-103279147D01*
X123211715Y-103601054D01*
X123780000Y-103714093D01*
X124348285Y-103601054D01*
X124830054Y-103279147D01*
X125057702Y-102938447D01*
X125124817Y-103081358D01*
X125553076Y-103471645D01*
X125963110Y-103641476D01*
X126193000Y-103520155D01*
X126193000Y-102327000D01*
X126173000Y-102327000D01*
X126173000Y-102073000D01*
X126193000Y-102073000D01*
X126193000Y-100879845D01*
X126014036Y-100785400D01*
X126248603Y-100434346D01*
X126259413Y-100380000D01*
X139716887Y-100380000D01*
X139826120Y-100929151D01*
X140137189Y-101394698D01*
X140519275Y-101650000D01*
X140137189Y-101905302D01*
X139826120Y-102370849D01*
X139716887Y-102920000D01*
X139826120Y-103469151D01*
X140137189Y-103934698D01*
X140519275Y-104190000D01*
X140137189Y-104445302D01*
X139826120Y-104910849D01*
X139716887Y-105460000D01*
X139826120Y-106009151D01*
X140137189Y-106474698D01*
X140519275Y-106730000D01*
X140137189Y-106985302D01*
X139826120Y-107450849D01*
X139716887Y-108000000D01*
X139826120Y-108549151D01*
X140137189Y-109014698D01*
X140602736Y-109325767D01*
X141151887Y-109435000D01*
X141208113Y-109435000D01*
X141757264Y-109325767D01*
X142222811Y-109014698D01*
X142533880Y-108549151D01*
X142643113Y-108000000D01*
X142533880Y-107450849D01*
X142222811Y-106985302D01*
X141840725Y-106730000D01*
X142222811Y-106474698D01*
X142533880Y-106009151D01*
X142643113Y-105460000D01*
X142533880Y-104910849D01*
X142222811Y-104445302D01*
X141840725Y-104190000D01*
X142222811Y-103934698D01*
X142533880Y-103469151D01*
X142643113Y-102920000D01*
X147336887Y-102920000D01*
X147446120Y-103469151D01*
X147757189Y-103934698D01*
X148139275Y-104190000D01*
X147757189Y-104445302D01*
X147446120Y-104910849D01*
X147336887Y-105460000D01*
X147446120Y-106009151D01*
X147757189Y-106474698D01*
X147901465Y-106571101D01*
X147764683Y-106596838D01*
X147548559Y-106735910D01*
X147403569Y-106948110D01*
X147352560Y-107200000D01*
X147352560Y-108800000D01*
X147396838Y-109035317D01*
X147535910Y-109251441D01*
X147748110Y-109396431D01*
X148000000Y-109447440D01*
X149600000Y-109447440D01*
X149835317Y-109403162D01*
X150051441Y-109264090D01*
X150196431Y-109051890D01*
X150247440Y-108800000D01*
X150247440Y-107200000D01*
X150203162Y-106964683D01*
X150064090Y-106748559D01*
X149851890Y-106603569D01*
X149696911Y-106572185D01*
X149842811Y-106474698D01*
X150153880Y-106009151D01*
X150263113Y-105460000D01*
X150153880Y-104910849D01*
X149842811Y-104445302D01*
X149460725Y-104190000D01*
X149842811Y-103934698D01*
X150153880Y-103469151D01*
X150263113Y-102920000D01*
X150153880Y-102370849D01*
X149842811Y-101905302D01*
X149438297Y-101635014D01*
X149655134Y-101532389D01*
X150031041Y-101117423D01*
X150191904Y-100729039D01*
X150069915Y-100507000D01*
X148927000Y-100507000D01*
X148927000Y-100527000D01*
X148673000Y-100527000D01*
X148673000Y-100507000D01*
X147530085Y-100507000D01*
X147408096Y-100729039D01*
X147568959Y-101117423D01*
X147944866Y-101532389D01*
X148161703Y-101635014D01*
X147757189Y-101905302D01*
X147446120Y-102370849D01*
X147336887Y-102920000D01*
X142643113Y-102920000D01*
X142533880Y-102370849D01*
X142222811Y-101905302D01*
X141840725Y-101650000D01*
X142222811Y-101394698D01*
X142533880Y-100929151D01*
X142643113Y-100380000D01*
X142573685Y-100030961D01*
X147408096Y-100030961D01*
X147530085Y-100253000D01*
X148673000Y-100253000D01*
X148673000Y-99109371D01*
X148927000Y-99109371D01*
X148927000Y-100253000D01*
X150069915Y-100253000D01*
X150191904Y-100030961D01*
X150031041Y-99642577D01*
X149655134Y-99227611D01*
X149149041Y-98988086D01*
X148927000Y-99109371D01*
X148673000Y-99109371D01*
X148450959Y-98988086D01*
X147944866Y-99227611D01*
X147568959Y-99642577D01*
X147408096Y-100030961D01*
X142573685Y-100030961D01*
X142533880Y-99830849D01*
X142222811Y-99365302D01*
X141757264Y-99054233D01*
X141208113Y-98945000D01*
X141151887Y-98945000D01*
X140602736Y-99054233D01*
X140137189Y-99365302D01*
X139826120Y-99830849D01*
X139716887Y-100380000D01*
X126259413Y-100380000D01*
X126335000Y-100000000D01*
X126248603Y-99565654D01*
X126002566Y-99197434D01*
X125634346Y-98951397D01*
X125200000Y-98865000D01*
X124186580Y-98865000D01*
X124808834Y-98242745D01*
X124928943Y-98193117D01*
X125192192Y-97930327D01*
X125334838Y-97586799D01*
X125335162Y-97214833D01*
X125193117Y-96871057D01*
X124930327Y-96607808D01*
X124763697Y-96538617D01*
X125089151Y-96473880D01*
X125554698Y-96162811D01*
X125810000Y-95780725D01*
X126065302Y-96162811D01*
X126530849Y-96473880D01*
X127080000Y-96583113D01*
X127629151Y-96473880D01*
X128094698Y-96162811D01*
X128350000Y-95780725D01*
X128605302Y-96162811D01*
X129070849Y-96473880D01*
X129620000Y-96583113D01*
X130169151Y-96473880D01*
X130634698Y-96162811D01*
X130904986Y-95758297D01*
X131007611Y-95975134D01*
X131422577Y-96351041D01*
X131722372Y-96475212D01*
X131574210Y-96574210D01*
X131574208Y-96574213D01*
X129791164Y-98357256D01*
X129671057Y-98406883D01*
X129407808Y-98669673D01*
X129265162Y-99013201D01*
X129264838Y-99385167D01*
X129406883Y-99728943D01*
X129669673Y-99992192D01*
X130013201Y-100134838D01*
X130385167Y-100135162D01*
X130728943Y-99993117D01*
X130992192Y-99730327D01*
X131042566Y-99609014D01*
X132566579Y-98085000D01*
X147799995Y-98085000D01*
X147800000Y-98085001D01*
X148097672Y-98025789D01*
X148138675Y-98017633D01*
X148425790Y-97825790D01*
X150425787Y-95825792D01*
X150425790Y-95825790D01*
X150617633Y-95538675D01*
X150631484Y-95469041D01*
X150685001Y-95200000D01*
X150685000Y-95199995D01*
X150685000Y-89106822D01*
X150734838Y-88986799D01*
X150735162Y-88614833D01*
X150593117Y-88271057D01*
X150330327Y-88007808D01*
X149986799Y-87865162D01*
X149614833Y-87864838D01*
X149271057Y-88006883D01*
X149007808Y-88269673D01*
X148865162Y-88613201D01*
X148864838Y-88985167D01*
X148915000Y-89106569D01*
X148915000Y-94833421D01*
X148805391Y-94943030D01*
X148725767Y-94542736D01*
X148414698Y-94077189D01*
X147949151Y-93766120D01*
X147400000Y-93656887D01*
X146850849Y-93766120D01*
X146385302Y-94077189D01*
X146130000Y-94459275D01*
X145874698Y-94077189D01*
X145409151Y-93766120D01*
X144860000Y-93656887D01*
X144310849Y-93766120D01*
X143845302Y-94077189D01*
X143590000Y-94459275D01*
X143334698Y-94077189D01*
X142869151Y-93766120D01*
X142320000Y-93656887D01*
X141770849Y-93766120D01*
X141305302Y-94077189D01*
X141050000Y-94459275D01*
X140794698Y-94077189D01*
X140329151Y-93766120D01*
X139780000Y-93656887D01*
X139230849Y-93766120D01*
X138765302Y-94077189D01*
X138510000Y-94459275D01*
X138254698Y-94077189D01*
X137789151Y-93766120D01*
X137240000Y-93656887D01*
X136690849Y-93766120D01*
X136225302Y-94077189D01*
X135970000Y-94459275D01*
X135714698Y-94077189D01*
X135249151Y-93766120D01*
X134700000Y-93656887D01*
X134150849Y-93766120D01*
X133685302Y-94077189D01*
X133415014Y-94481703D01*
X133312389Y-94264866D01*
X132897423Y-93888959D01*
X132509039Y-93728096D01*
X132287000Y-93850085D01*
X132287000Y-94993000D01*
X132307000Y-94993000D01*
X132307000Y-95247000D01*
X132287000Y-95247000D01*
X132287000Y-95267000D01*
X132033000Y-95267000D01*
X132033000Y-95247000D01*
X132013000Y-95247000D01*
X132013000Y-94993000D01*
X132033000Y-94993000D01*
X132033000Y-93850085D01*
X131810961Y-93728096D01*
X131422577Y-93888959D01*
X131007611Y-94264866D01*
X130904986Y-94481703D01*
X130634698Y-94077189D01*
X130169151Y-93766120D01*
X129620000Y-93656887D01*
X129070849Y-93766120D01*
X128605302Y-94077189D01*
X128350000Y-94459275D01*
X128094698Y-94077189D01*
X127629151Y-93766120D01*
X127080000Y-93656887D01*
X126530849Y-93766120D01*
X126065302Y-94077189D01*
X125810000Y-94459275D01*
X125554698Y-94077189D01*
X125089151Y-93766120D01*
X124540000Y-93656887D01*
X123990849Y-93766120D01*
X123525302Y-94077189D01*
X123270000Y-94459275D01*
X123014698Y-94077189D01*
X122549151Y-93766120D01*
X122000000Y-93656887D01*
X121450849Y-93766120D01*
X120985302Y-94077189D01*
X120730000Y-94459275D01*
X120474698Y-94077189D01*
X120009151Y-93766120D01*
X119460000Y-93656887D01*
X118910849Y-93766120D01*
X118445302Y-94077189D01*
X118190000Y-94459275D01*
X117934698Y-94077189D01*
X117469151Y-93766120D01*
X116920000Y-93656887D01*
X116370849Y-93766120D01*
X115905302Y-94077189D01*
X115650000Y-94459275D01*
X115394698Y-94077189D01*
X114929151Y-93766120D01*
X114380000Y-93656887D01*
X113830849Y-93766120D01*
X113365302Y-94077189D01*
X113054233Y-94542736D01*
X112945000Y-95091887D01*
X112945000Y-95148113D01*
X113054233Y-95697264D01*
X113365302Y-96162811D01*
X113830849Y-96473880D01*
X114380000Y-96583113D01*
X114929151Y-96473880D01*
X115394698Y-96162811D01*
X115650000Y-95780725D01*
X115905302Y-96162811D01*
X116058238Y-96265000D01*
X115800000Y-96265000D01*
X115365654Y-96351397D01*
X115125439Y-96511904D01*
X114997434Y-96597434D01*
X114397434Y-97197434D01*
X114151397Y-97565655D01*
X114065000Y-98000000D01*
X114151397Y-98434345D01*
X114397434Y-98802566D01*
X114765655Y-99048603D01*
X115200000Y-99135000D01*
X115634345Y-99048603D01*
X116002566Y-98802566D01*
X116270132Y-98535000D01*
X117980682Y-98535000D01*
X117865162Y-98813201D01*
X117864838Y-99185167D01*
X118006883Y-99528943D01*
X118269673Y-99792192D01*
X118613201Y-99934838D01*
X118985167Y-99935162D01*
X119106569Y-99885000D01*
X121527658Y-99885000D01*
X121465000Y-100200000D01*
X121551397Y-100634345D01*
X121638862Y-100765246D01*
X121240000Y-100685907D01*
X120671715Y-100798946D01*
X120189946Y-101120853D01*
X119970000Y-101450026D01*
X119750054Y-101120853D01*
X119268285Y-100798946D01*
X118700000Y-100685907D01*
X118131715Y-100798946D01*
X117649946Y-101120853D01*
X117430000Y-101450026D01*
X117210054Y-101120853D01*
X116728285Y-100798946D01*
X116160000Y-100685907D01*
X115591715Y-100798946D01*
X115109946Y-101120853D01*
X114788039Y-101602622D01*
X114675000Y-102170907D01*
X114675000Y-102229093D01*
X114788039Y-102797378D01*
X115100493Y-103265000D01*
X111270132Y-103265000D01*
X111202566Y-103197434D01*
X110834345Y-102951397D01*
X110400000Y-102865000D01*
X109965655Y-102951397D01*
X109597434Y-103197434D01*
X109351397Y-103565655D01*
X109265000Y-104000000D01*
X109351397Y-104434345D01*
X109597434Y-104802566D01*
X109943130Y-105148262D01*
X109598700Y-105005242D01*
X109043735Y-105004758D01*
X108530828Y-105216687D01*
X108138066Y-105608764D01*
X107925242Y-106121300D01*
X107924758Y-106676265D01*
X106473568Y-106676265D01*
X106401054Y-106311715D01*
X106079147Y-105829946D01*
X105749974Y-105610000D01*
X106079147Y-105390054D01*
X106401054Y-104908285D01*
X106514093Y-104340000D01*
X106401054Y-103771715D01*
X106079147Y-103289946D01*
X106035223Y-103260597D01*
X106209698Y-103188327D01*
X106388327Y-103009699D01*
X106485000Y-102776310D01*
X106485000Y-102085750D01*
X106326250Y-101927000D01*
X105127000Y-101927000D01*
X105127000Y-101947000D01*
X104873000Y-101947000D01*
X104873000Y-101927000D01*
X103673750Y-101927000D01*
X103515000Y-102085750D01*
X103515000Y-102776310D01*
X103611673Y-103009699D01*
X103790302Y-103188327D01*
X103964777Y-103260597D01*
X103920853Y-103289946D01*
X103598946Y-103771715D01*
X103485907Y-104340000D01*
X103085000Y-104340000D01*
X103085000Y-100823690D01*
X103515000Y-100823690D01*
X103515000Y-101514250D01*
X103673750Y-101673000D01*
X104873000Y-101673000D01*
X104873000Y-100473750D01*
X105127000Y-100473750D01*
X105127000Y-101673000D01*
X106326250Y-101673000D01*
X106485000Y-101514250D01*
X106485000Y-100823690D01*
X106388327Y-100590301D01*
X106209698Y-100411673D01*
X105976309Y-100315000D01*
X105285750Y-100315000D01*
X105127000Y-100473750D01*
X104873000Y-100473750D01*
X104714250Y-100315000D01*
X104023691Y-100315000D01*
X103790302Y-100411673D01*
X103611673Y-100590301D01*
X103515000Y-100823690D01*
X103085000Y-100823690D01*
X103085000Y-100000000D01*
X107952560Y-100000000D01*
X107952560Y-101600000D01*
X107996838Y-101835317D01*
X108135910Y-102051441D01*
X108348110Y-102196431D01*
X108600000Y-102247440D01*
X110200000Y-102247440D01*
X110435317Y-102203162D01*
X110651441Y-102064090D01*
X110796431Y-101851890D01*
X110805370Y-101807745D01*
X111071861Y-101807745D01*
X111145995Y-102053864D01*
X111683223Y-102246965D01*
X112253454Y-102219778D01*
X112654005Y-102053864D01*
X112728139Y-101807745D01*
X111900000Y-100979605D01*
X111071861Y-101807745D01*
X110805370Y-101807745D01*
X110844646Y-101613799D01*
X110892255Y-101628139D01*
X111720395Y-100800000D01*
X112079605Y-100800000D01*
X112907745Y-101628139D01*
X113153864Y-101554005D01*
X113346965Y-101016777D01*
X113319778Y-100446546D01*
X113153864Y-100045995D01*
X112907745Y-99971861D01*
X112079605Y-100800000D01*
X111720395Y-100800000D01*
X110892255Y-99971861D01*
X110844833Y-99986145D01*
X110808351Y-99792255D01*
X111071861Y-99792255D01*
X111900000Y-100620395D01*
X112728139Y-99792255D01*
X112654005Y-99546136D01*
X112116777Y-99353035D01*
X111546546Y-99380222D01*
X111145995Y-99546136D01*
X111071861Y-99792255D01*
X110808351Y-99792255D01*
X110803162Y-99764683D01*
X110664090Y-99548559D01*
X110451890Y-99403569D01*
X110200000Y-99352560D01*
X108600000Y-99352560D01*
X108364683Y-99396838D01*
X108148559Y-99535910D01*
X108003569Y-99748110D01*
X107952560Y-100000000D01*
X103085000Y-100000000D01*
X103085000Y-93900000D01*
X104052560Y-93900000D01*
X104052560Y-95700000D01*
X104096838Y-95935317D01*
X104235910Y-96151441D01*
X104448110Y-96296431D01*
X104700000Y-96347440D01*
X106500000Y-96347440D01*
X106735317Y-96303162D01*
X106951441Y-96164090D01*
X107096431Y-95951890D01*
X107147440Y-95700000D01*
X107147440Y-94864383D01*
X108664769Y-94864383D01*
X108867582Y-95355229D01*
X109242796Y-95731098D01*
X109733287Y-95934768D01*
X110264383Y-95935231D01*
X110755229Y-95732418D01*
X111131098Y-95357204D01*
X111334768Y-94866713D01*
X111335231Y-94335617D01*
X111132418Y-93844771D01*
X110757204Y-93468902D01*
X110266713Y-93265232D01*
X109735617Y-93264769D01*
X109244771Y-93467582D01*
X108868902Y-93842796D01*
X108665232Y-94333287D01*
X108664769Y-94864383D01*
X107147440Y-94864383D01*
X107147440Y-93900000D01*
X107103162Y-93664683D01*
X106964090Y-93448559D01*
X106751890Y-93303569D01*
X106731466Y-93299433D01*
X106900551Y-93130643D01*
X107134733Y-92566670D01*
X107135265Y-91956009D01*
X106902068Y-91391629D01*
X106470643Y-90959449D01*
X105906670Y-90725267D01*
X105296009Y-90724735D01*
X104731629Y-90957932D01*
X104299449Y-91389357D01*
X104065267Y-91953330D01*
X104064735Y-92563991D01*
X104297932Y-93128371D01*
X104465880Y-93296613D01*
X104464683Y-93296838D01*
X104248559Y-93435910D01*
X104103569Y-93648110D01*
X104052560Y-93900000D01*
X103085000Y-93900000D01*
X103085000Y-84900000D01*
X104052560Y-84900000D01*
X104052560Y-86700000D01*
X104096838Y-86935317D01*
X104235910Y-87151441D01*
X104448110Y-87296431D01*
X104468534Y-87300567D01*
X104299449Y-87469357D01*
X104065267Y-88033330D01*
X104064735Y-88643991D01*
X104297932Y-89208371D01*
X104729357Y-89640551D01*
X105293330Y-89874733D01*
X105903991Y-89875265D01*
X106468371Y-89642068D01*
X106900551Y-89210643D01*
X107134733Y-88646670D01*
X107135265Y-88036009D01*
X106902068Y-87471629D01*
X106744047Y-87313331D01*
X108707273Y-87313331D01*
X108933236Y-87782663D01*
X109321604Y-88129797D01*
X109666671Y-88272716D01*
X109873000Y-88149374D01*
X109873000Y-87107000D01*
X110127000Y-87107000D01*
X110127000Y-88149374D01*
X110333329Y-88272716D01*
X110678396Y-88129797D01*
X111066764Y-87782663D01*
X111216389Y-87471887D01*
X112945000Y-87471887D01*
X112945000Y-87528113D01*
X113054233Y-88077264D01*
X113365302Y-88542811D01*
X113830849Y-88853880D01*
X114380000Y-88963113D01*
X114929151Y-88853880D01*
X115394698Y-88542811D01*
X115650000Y-88160725D01*
X115905302Y-88542811D01*
X116370849Y-88853880D01*
X116920000Y-88963113D01*
X117469151Y-88853880D01*
X117934698Y-88542811D01*
X118190000Y-88160725D01*
X118445302Y-88542811D01*
X118910849Y-88853880D01*
X119460000Y-88963113D01*
X120009151Y-88853880D01*
X120474698Y-88542811D01*
X120730000Y-88160725D01*
X120985302Y-88542811D01*
X121450849Y-88853880D01*
X122000000Y-88963113D01*
X122549151Y-88853880D01*
X123014698Y-88542811D01*
X123270000Y-88160725D01*
X123525302Y-88542811D01*
X123990849Y-88853880D01*
X124540000Y-88963113D01*
X125089151Y-88853880D01*
X125554698Y-88542811D01*
X125810000Y-88160725D01*
X126065302Y-88542811D01*
X126530849Y-88853880D01*
X127080000Y-88963113D01*
X127629151Y-88853880D01*
X128094698Y-88542811D01*
X128364986Y-88138297D01*
X128467611Y-88355134D01*
X128882577Y-88731041D01*
X129270961Y-88891904D01*
X129493000Y-88769915D01*
X129493000Y-87627000D01*
X129473000Y-87627000D01*
X129473000Y-87373000D01*
X129493000Y-87373000D01*
X129493000Y-86230085D01*
X129747000Y-86230085D01*
X129747000Y-87373000D01*
X129767000Y-87373000D01*
X129767000Y-87627000D01*
X129747000Y-87627000D01*
X129747000Y-88769915D01*
X129969039Y-88891904D01*
X130357423Y-88731041D01*
X130772389Y-88355134D01*
X130875014Y-88138297D01*
X131145302Y-88542811D01*
X131610849Y-88853880D01*
X132160000Y-88963113D01*
X132709151Y-88853880D01*
X133174698Y-88542811D01*
X133430000Y-88160725D01*
X133685302Y-88542811D01*
X134150849Y-88853880D01*
X134700000Y-88963113D01*
X135249151Y-88853880D01*
X135714698Y-88542811D01*
X135970000Y-88160725D01*
X136225302Y-88542811D01*
X136690849Y-88853880D01*
X137240000Y-88963113D01*
X137789151Y-88853880D01*
X138254698Y-88542811D01*
X138510000Y-88160725D01*
X138765302Y-88542811D01*
X139230849Y-88853880D01*
X139780000Y-88963113D01*
X140329151Y-88853880D01*
X140794698Y-88542811D01*
X141050000Y-88160725D01*
X141305302Y-88542811D01*
X141770849Y-88853880D01*
X142320000Y-88963113D01*
X142869151Y-88853880D01*
X143334698Y-88542811D01*
X143590000Y-88160725D01*
X143845302Y-88542811D01*
X144310849Y-88853880D01*
X144860000Y-88963113D01*
X145409151Y-88853880D01*
X145874698Y-88542811D01*
X145971101Y-88398535D01*
X145996838Y-88535317D01*
X146135910Y-88751441D01*
X146348110Y-88896431D01*
X146600000Y-88947440D01*
X148200000Y-88947440D01*
X148435317Y-88903162D01*
X148651441Y-88764090D01*
X148796431Y-88551890D01*
X148847440Y-88300000D01*
X148847440Y-86700000D01*
X148803162Y-86464683D01*
X148664090Y-86248559D01*
X148451890Y-86103569D01*
X148200000Y-86052560D01*
X146600000Y-86052560D01*
X146364683Y-86096838D01*
X146148559Y-86235910D01*
X146003569Y-86448110D01*
X145972185Y-86603089D01*
X145874698Y-86457189D01*
X145409151Y-86146120D01*
X144860000Y-86036887D01*
X144310849Y-86146120D01*
X143845302Y-86457189D01*
X143590000Y-86839275D01*
X143334698Y-86457189D01*
X142869151Y-86146120D01*
X142320000Y-86036887D01*
X141770849Y-86146120D01*
X141305302Y-86457189D01*
X141050000Y-86839275D01*
X140794698Y-86457189D01*
X140329151Y-86146120D01*
X139780000Y-86036887D01*
X139230849Y-86146120D01*
X138765302Y-86457189D01*
X138510000Y-86839275D01*
X138254698Y-86457189D01*
X137789151Y-86146120D01*
X137240000Y-86036887D01*
X136690849Y-86146120D01*
X136225302Y-86457189D01*
X135970000Y-86839275D01*
X135714698Y-86457189D01*
X135249151Y-86146120D01*
X134700000Y-86036887D01*
X134150849Y-86146120D01*
X133685302Y-86457189D01*
X133430000Y-86839275D01*
X133174698Y-86457189D01*
X132709151Y-86146120D01*
X132160000Y-86036887D01*
X131610849Y-86146120D01*
X131145302Y-86457189D01*
X130875014Y-86861703D01*
X130772389Y-86644866D01*
X130357423Y-86268959D01*
X129969039Y-86108096D01*
X129747000Y-86230085D01*
X129493000Y-86230085D01*
X129270961Y-86108096D01*
X128882577Y-86268959D01*
X128467611Y-86644866D01*
X128364986Y-86861703D01*
X128094698Y-86457189D01*
X127629151Y-86146120D01*
X127080000Y-86036887D01*
X126530849Y-86146120D01*
X126065302Y-86457189D01*
X125810000Y-86839275D01*
X125554698Y-86457189D01*
X125089151Y-86146120D01*
X124540000Y-86036887D01*
X123990849Y-86146120D01*
X123525302Y-86457189D01*
X123270000Y-86839275D01*
X123014698Y-86457189D01*
X122549151Y-86146120D01*
X122000000Y-86036887D01*
X121450849Y-86146120D01*
X120985302Y-86457189D01*
X120730000Y-86839275D01*
X120474698Y-86457189D01*
X120009151Y-86146120D01*
X119460000Y-86036887D01*
X118910849Y-86146120D01*
X118445302Y-86457189D01*
X118190000Y-86839275D01*
X117934698Y-86457189D01*
X117469151Y-86146120D01*
X117115289Y-86075732D01*
X117293000Y-85970206D01*
X117293000Y-84927000D01*
X117547000Y-84927000D01*
X117547000Y-85970206D01*
X117753331Y-86092727D01*
X118222663Y-85866764D01*
X118569797Y-85478396D01*
X118712716Y-85133329D01*
X118589374Y-84927000D01*
X117547000Y-84927000D01*
X117293000Y-84927000D01*
X116250626Y-84927000D01*
X116127284Y-85133329D01*
X116270203Y-85478396D01*
X116617337Y-85866764D01*
X117006372Y-86054067D01*
X116920000Y-86036887D01*
X116370849Y-86146120D01*
X115905302Y-86457189D01*
X115650000Y-86839275D01*
X115394698Y-86457189D01*
X114929151Y-86146120D01*
X114380000Y-86036887D01*
X113830849Y-86146120D01*
X113365302Y-86457189D01*
X113054233Y-86922736D01*
X112945000Y-87471887D01*
X111216389Y-87471887D01*
X111292727Y-87313331D01*
X111170206Y-87107000D01*
X110127000Y-87107000D01*
X109873000Y-87107000D01*
X108829794Y-87107000D01*
X108707273Y-87313331D01*
X106744047Y-87313331D01*
X106734120Y-87303387D01*
X106735317Y-87303162D01*
X106951441Y-87164090D01*
X107096431Y-86951890D01*
X107147440Y-86700000D01*
X107147440Y-85064383D01*
X108464769Y-85064383D01*
X108667582Y-85555229D01*
X109042796Y-85931098D01*
X109156092Y-85978143D01*
X108933236Y-86177337D01*
X108707273Y-86646669D01*
X108829794Y-86853000D01*
X109873000Y-86853000D01*
X109873000Y-86833000D01*
X110127000Y-86833000D01*
X110127000Y-86853000D01*
X111170206Y-86853000D01*
X111292727Y-86646669D01*
X111066764Y-86177337D01*
X110678396Y-85830203D01*
X110663714Y-85824122D01*
X110931098Y-85557204D01*
X111134768Y-85066713D01*
X111135231Y-84535617D01*
X111106744Y-84466671D01*
X116127284Y-84466671D01*
X116250626Y-84673000D01*
X117293000Y-84673000D01*
X117293000Y-83629794D01*
X117547000Y-83629794D01*
X117547000Y-84673000D01*
X118589374Y-84673000D01*
X118712716Y-84466671D01*
X118569797Y-84121604D01*
X118222663Y-83733236D01*
X117753331Y-83507273D01*
X117547000Y-83629794D01*
X117293000Y-83629794D01*
X117086669Y-83507273D01*
X116617337Y-83733236D01*
X116270203Y-84121604D01*
X116127284Y-84466671D01*
X111106744Y-84466671D01*
X110932418Y-84044771D01*
X110557204Y-83668902D01*
X110066713Y-83465232D01*
X109535617Y-83464769D01*
X109044771Y-83667582D01*
X108668902Y-84042796D01*
X108465232Y-84533287D01*
X108464769Y-85064383D01*
X107147440Y-85064383D01*
X107147440Y-84900000D01*
X107103162Y-84664683D01*
X106964090Y-84448559D01*
X106751890Y-84303569D01*
X106500000Y-84252560D01*
X104700000Y-84252560D01*
X104464683Y-84296838D01*
X104248559Y-84435910D01*
X104103569Y-84648110D01*
X104052560Y-84900000D01*
X103085000Y-84900000D01*
X103085000Y-83074285D01*
X121814760Y-83074285D01*
X122025169Y-83583515D01*
X122414436Y-83973461D01*
X122923298Y-84184759D01*
X123474285Y-84185240D01*
X123983515Y-83974831D01*
X124373461Y-83585564D01*
X124584759Y-83076702D01*
X124584761Y-83074285D01*
X126814760Y-83074285D01*
X127025169Y-83583515D01*
X127414436Y-83973461D01*
X127923298Y-84184759D01*
X128474285Y-84185240D01*
X128983515Y-83974831D01*
X129373461Y-83585564D01*
X129584759Y-83076702D01*
X129585240Y-82525715D01*
X129533296Y-82400000D01*
X134190000Y-82400000D01*
X134266882Y-82786510D01*
X134485822Y-83114178D01*
X135885822Y-84514178D01*
X136213490Y-84733118D01*
X136600000Y-84810000D01*
X144000000Y-84810000D01*
X144386510Y-84733118D01*
X144714178Y-84514178D01*
X145714178Y-83514178D01*
X145933118Y-83186510D01*
X146010001Y-82800000D01*
X146010000Y-82799995D01*
X146010000Y-82200005D01*
X146010001Y-82200000D01*
X145933118Y-81813490D01*
X145714178Y-81485822D01*
X144714178Y-80485822D01*
X144386510Y-80266882D01*
X144000000Y-80190000D01*
X143613490Y-80266882D01*
X143285822Y-80485822D01*
X143066882Y-80813490D01*
X142990000Y-81200000D01*
X143066882Y-81586510D01*
X143285822Y-81914178D01*
X143871644Y-82500000D01*
X143581644Y-82790000D01*
X137018356Y-82790000D01*
X135914178Y-81685822D01*
X135586510Y-81466882D01*
X135200000Y-81390000D01*
X134813490Y-81466882D01*
X134485822Y-81685822D01*
X134266882Y-82013490D01*
X134190000Y-82400000D01*
X129533296Y-82400000D01*
X129374831Y-82016485D01*
X128985564Y-81626539D01*
X128476702Y-81415241D01*
X127925715Y-81414760D01*
X127416485Y-81625169D01*
X127026539Y-82014436D01*
X126815241Y-82523298D01*
X126814760Y-83074285D01*
X124584761Y-83074285D01*
X124585240Y-82525715D01*
X124374831Y-82016485D01*
X123985564Y-81626539D01*
X123476702Y-81415241D01*
X122925715Y-81414760D01*
X122416485Y-81625169D01*
X122026539Y-82014436D01*
X121815241Y-82523298D01*
X121814760Y-83074285D01*
X103085000Y-83074285D01*
X103085000Y-78953331D01*
X118307273Y-78953331D01*
X118533236Y-79422663D01*
X118921604Y-79769797D01*
X119266671Y-79912716D01*
X119473000Y-79789374D01*
X119473000Y-78747000D01*
X119727000Y-78747000D01*
X119727000Y-79789374D01*
X119933329Y-79912716D01*
X120278396Y-79769797D01*
X120666764Y-79422663D01*
X120892727Y-78953331D01*
X120770206Y-78747000D01*
X119727000Y-78747000D01*
X119473000Y-78747000D01*
X118429794Y-78747000D01*
X118307273Y-78953331D01*
X103085000Y-78953331D01*
X103085000Y-78684187D01*
X121764752Y-78684187D01*
X121982757Y-79211800D01*
X122386077Y-79615824D01*
X122913309Y-79834750D01*
X123484187Y-79835248D01*
X124011800Y-79617243D01*
X124221663Y-79407745D01*
X124871861Y-79407745D01*
X124945995Y-79653864D01*
X125483223Y-79846965D01*
X126053454Y-79819778D01*
X126454005Y-79653864D01*
X126528139Y-79407745D01*
X125700000Y-78579605D01*
X124871861Y-79407745D01*
X124221663Y-79407745D01*
X124415824Y-79213923D01*
X124443423Y-79147456D01*
X124446136Y-79154005D01*
X124692255Y-79228139D01*
X125520395Y-78400000D01*
X125879605Y-78400000D01*
X126707745Y-79228139D01*
X126780458Y-79206237D01*
X126782757Y-79211800D01*
X127186077Y-79615824D01*
X127713309Y-79834750D01*
X128284187Y-79835248D01*
X128811800Y-79617243D01*
X129021663Y-79407745D01*
X129671861Y-79407745D01*
X129745995Y-79653864D01*
X130283223Y-79846965D01*
X130853454Y-79819778D01*
X131254005Y-79653864D01*
X131328139Y-79407745D01*
X130500000Y-78579605D01*
X129671861Y-79407745D01*
X129021663Y-79407745D01*
X129215824Y-79213923D01*
X129243423Y-79147456D01*
X129246136Y-79154005D01*
X129492255Y-79228139D01*
X130320395Y-78400000D01*
X130679605Y-78400000D01*
X131507745Y-79228139D01*
X131753864Y-79154005D01*
X131946965Y-78616777D01*
X131946166Y-78600000D01*
X141618846Y-78600000D01*
X141720467Y-79110882D01*
X142009858Y-79543988D01*
X142442964Y-79833379D01*
X142953846Y-79935000D01*
X143006154Y-79935000D01*
X143517036Y-79833379D01*
X143950142Y-79543988D01*
X144239533Y-79110882D01*
X144341154Y-78600000D01*
X144239533Y-78089118D01*
X143950142Y-77656012D01*
X143517036Y-77366621D01*
X143006154Y-77265000D01*
X142953846Y-77265000D01*
X142442964Y-77366621D01*
X142009858Y-77656012D01*
X141720467Y-78089118D01*
X141618846Y-78600000D01*
X131946166Y-78600000D01*
X131919778Y-78046546D01*
X131753864Y-77645995D01*
X131507745Y-77571861D01*
X130679605Y-78400000D01*
X130320395Y-78400000D01*
X129492255Y-77571861D01*
X129246136Y-77645995D01*
X129243804Y-77652483D01*
X129217243Y-77588200D01*
X129021640Y-77392255D01*
X129671861Y-77392255D01*
X130500000Y-78220395D01*
X131328139Y-77392255D01*
X131254005Y-77146136D01*
X130716777Y-76953035D01*
X130146546Y-76980222D01*
X129745995Y-77146136D01*
X129671861Y-77392255D01*
X129021640Y-77392255D01*
X128813923Y-77184176D01*
X128286691Y-76965250D01*
X127715813Y-76964752D01*
X127188200Y-77182757D01*
X126784176Y-77586077D01*
X126780926Y-77593904D01*
X126707745Y-77571861D01*
X125879605Y-78400000D01*
X125520395Y-78400000D01*
X124692255Y-77571861D01*
X124446136Y-77645995D01*
X124443804Y-77652483D01*
X124417243Y-77588200D01*
X124221640Y-77392255D01*
X124871861Y-77392255D01*
X125700000Y-78220395D01*
X126528139Y-77392255D01*
X126454005Y-77146136D01*
X125916777Y-76953035D01*
X125346546Y-76980222D01*
X124945995Y-77146136D01*
X124871861Y-77392255D01*
X124221640Y-77392255D01*
X124013923Y-77184176D01*
X123486691Y-76965250D01*
X122915813Y-76964752D01*
X122388200Y-77182757D01*
X121984176Y-77586077D01*
X121765250Y-78113309D01*
X121764752Y-78684187D01*
X103085000Y-78684187D01*
X103085000Y-78286669D01*
X118307273Y-78286669D01*
X118429794Y-78493000D01*
X119473000Y-78493000D01*
X119473000Y-77450626D01*
X119727000Y-77450626D01*
X119727000Y-78493000D01*
X120770206Y-78493000D01*
X120892727Y-78286669D01*
X120666764Y-77817337D01*
X120278396Y-77470203D01*
X119933329Y-77327284D01*
X119727000Y-77450626D01*
X119473000Y-77450626D01*
X119266671Y-77327284D01*
X118921604Y-77470203D01*
X118533236Y-77817337D01*
X118307273Y-78286669D01*
X103085000Y-78286669D01*
X103085000Y-76933089D01*
X104166517Y-76933089D01*
X104295725Y-77225859D01*
X104995883Y-77494071D01*
X105745384Y-77473928D01*
X106344275Y-77225859D01*
X106473483Y-76933089D01*
X105320000Y-75779605D01*
X104166517Y-76933089D01*
X103085000Y-76933089D01*
X103085000Y-75275883D01*
X103425929Y-75275883D01*
X103446072Y-76025384D01*
X103694141Y-76624275D01*
X103986911Y-76753483D01*
X105140395Y-75600000D01*
X105499605Y-75600000D01*
X106653089Y-76753483D01*
X106945859Y-76624275D01*
X107195252Y-75973241D01*
X113594994Y-75973241D01*
X113881314Y-76666191D01*
X114411021Y-77196822D01*
X115103469Y-77484352D01*
X115853241Y-77485006D01*
X116546191Y-77198686D01*
X117076822Y-76668979D01*
X117364352Y-75976531D01*
X117365006Y-75226759D01*
X117115868Y-74623795D01*
X142164716Y-74623795D01*
X142413106Y-75224943D01*
X142872637Y-75685278D01*
X143473352Y-75934716D01*
X144123795Y-75935284D01*
X144724943Y-75686894D01*
X145185278Y-75227363D01*
X145434716Y-74626648D01*
X145435284Y-73976205D01*
X145186894Y-73375057D01*
X144727363Y-72914722D01*
X144126648Y-72665284D01*
X143476205Y-72664716D01*
X142875057Y-72913106D01*
X142414722Y-73372637D01*
X142165284Y-73973352D01*
X142164716Y-74623795D01*
X117115868Y-74623795D01*
X117078686Y-74533809D01*
X116548979Y-74003178D01*
X115856531Y-73715648D01*
X115106759Y-73714994D01*
X114413809Y-74001314D01*
X113883178Y-74531021D01*
X113595648Y-75223469D01*
X113594994Y-75973241D01*
X107195252Y-75973241D01*
X107214071Y-75924117D01*
X107193928Y-75174616D01*
X106945859Y-74575725D01*
X106653089Y-74446517D01*
X105499605Y-75600000D01*
X105140395Y-75600000D01*
X103986911Y-74446517D01*
X103694141Y-74575725D01*
X103425929Y-75275883D01*
X103085000Y-75275883D01*
X103085000Y-74266911D01*
X104166517Y-74266911D01*
X105320000Y-75420395D01*
X106473483Y-74266911D01*
X106344275Y-73974141D01*
X105644117Y-73705929D01*
X104894616Y-73726072D01*
X104295725Y-73974141D01*
X104166517Y-74266911D01*
X103085000Y-74266911D01*
X103085000Y-71264383D01*
X118264769Y-71264383D01*
X118467582Y-71755229D01*
X118842796Y-72131098D01*
X119333287Y-72334768D01*
X119864383Y-72335231D01*
X120355229Y-72132418D01*
X120731098Y-71757204D01*
X120934768Y-71266713D01*
X120935231Y-70735617D01*
X120732418Y-70244771D01*
X120357204Y-69868902D01*
X119866713Y-69665232D01*
X119335617Y-69664769D01*
X118844771Y-69867582D01*
X118468902Y-70242796D01*
X118265232Y-70733287D01*
X118264769Y-71264383D01*
X103085000Y-71264383D01*
X103085000Y-68185000D01*
X121527675Y-68185000D01*
X121448559Y-68235910D01*
X121448559Y-68235910D01*
G37*
X121448559Y-68235910D02*
X121303569Y-68448110D01*
X121252560Y-68700000D01*
X121252560Y-70100000D01*
X121296838Y-70335317D01*
X121435910Y-70551441D01*
X121648110Y-70696431D01*
X121900000Y-70747440D01*
X123300000Y-70747440D01*
X123535317Y-70703162D01*
X123751441Y-70564090D01*
X123896431Y-70351890D01*
X123905434Y-70307434D01*
X123929858Y-70343988D01*
X124362964Y-70633379D01*
X124873846Y-70735000D01*
X124926154Y-70735000D01*
X125437036Y-70633379D01*
X125870142Y-70343988D01*
X126050000Y-70074810D01*
X126229858Y-70343988D01*
X126662964Y-70633379D01*
X127173846Y-70735000D01*
X127226154Y-70735000D01*
X127737036Y-70633379D01*
X128170142Y-70343988D01*
X128459533Y-69910882D01*
X128464532Y-69885750D01*
X130315000Y-69885750D01*
X130315000Y-70576309D01*
X130411673Y-70809698D01*
X130590301Y-70988327D01*
X130823690Y-71085000D01*
X131514250Y-71085000D01*
X131673000Y-70926250D01*
X131673000Y-69727000D01*
X130473750Y-69727000D01*
X130315000Y-69885750D01*
X128464532Y-69885750D01*
X128561154Y-69400000D01*
X128459533Y-68889118D01*
X128170142Y-68456012D01*
X127764542Y-68185000D01*
X130654695Y-68185000D01*
X130590301Y-68211673D01*
X130411673Y-68390302D01*
X130315000Y-68623691D01*
X130315000Y-69314250D01*
X130473750Y-69473000D01*
X131673000Y-69473000D01*
X131673000Y-69453000D01*
X131927000Y-69453000D01*
X131927000Y-69473000D01*
X131947000Y-69473000D01*
X131947000Y-69727000D01*
X131927000Y-69727000D01*
X131927000Y-70926250D01*
X132085750Y-71085000D01*
X132776310Y-71085000D01*
X133009699Y-70988327D01*
X133188327Y-70809698D01*
X133260597Y-70635223D01*
X133289946Y-70679147D01*
X133771715Y-71001054D01*
X134340000Y-71114093D01*
X134908285Y-71001054D01*
X135390054Y-70679147D01*
X135610000Y-70349974D01*
X135829946Y-70679147D01*
X136311715Y-71001054D01*
X136880000Y-71114093D01*
X137448285Y-71001054D01*
X137930054Y-70679147D01*
X138150000Y-70349974D01*
X138369946Y-70679147D01*
X138851715Y-71001054D01*
X139420000Y-71114093D01*
X139988285Y-71001054D01*
X140060903Y-70952532D01*
X142827073Y-70952532D01*
X142925736Y-71219387D01*
X143535461Y-71445908D01*
X144185460Y-71421856D01*
X144674264Y-71219387D01*
X144772927Y-70952532D01*
X149327073Y-70952532D01*
X149425736Y-71219387D01*
X150035461Y-71445908D01*
X150685460Y-71421856D01*
X151174264Y-71219387D01*
X151272927Y-70952532D01*
X150300000Y-69979605D01*
X149327073Y-70952532D01*
X144772927Y-70952532D01*
X143800000Y-69979605D01*
X142827073Y-70952532D01*
X140060903Y-70952532D01*
X140470054Y-70679147D01*
X140791961Y-70197378D01*
X140905000Y-69629093D01*
X140905000Y-69570907D01*
X140897950Y-69535461D01*
X142154092Y-69535461D01*
X142178144Y-70185460D01*
X142380613Y-70674264D01*
X142647468Y-70772927D01*
X143620395Y-69800000D01*
X143979605Y-69800000D01*
X144952532Y-70772927D01*
X145219387Y-70674264D01*
X145445908Y-70064539D01*
X145426331Y-69535461D01*
X148654092Y-69535461D01*
X148678144Y-70185460D01*
X148880613Y-70674264D01*
X149147468Y-70772927D01*
X150120395Y-69800000D01*
X149147468Y-68827073D01*
X148880613Y-68925736D01*
X148654092Y-69535461D01*
X145426331Y-69535461D01*
X145421856Y-69414540D01*
X145219387Y-68925736D01*
X144952532Y-68827073D01*
X143979605Y-69800000D01*
X143620395Y-69800000D01*
X142647468Y-68827073D01*
X142380613Y-68925736D01*
X142154092Y-69535461D01*
X140897950Y-69535461D01*
X140791961Y-69002622D01*
X140470054Y-68520853D01*
X139988285Y-68198946D01*
X139918174Y-68185000D01*
X143397988Y-68185000D01*
X142925736Y-68380613D01*
X142827073Y-68647468D01*
X143800000Y-69620395D01*
X144772927Y-68647468D01*
X144674264Y-68380613D01*
X144147734Y-68185000D01*
X149897988Y-68185000D01*
X149425736Y-68380613D01*
X149327073Y-68647468D01*
X150300000Y-69620395D01*
X151272927Y-68647468D01*
X151174264Y-68380613D01*
X150647734Y-68185000D01*
X151715000Y-68185000D01*
X151715000Y-68924114D01*
X151452532Y-68827073D01*
X150479605Y-69800000D01*
X151452532Y-70772927D01*
X151715000Y-70675886D01*
X151715000Y-73443079D01*
X151686894Y-73375057D01*
X151227363Y-72914722D01*
X150626648Y-72665284D01*
X149976205Y-72664716D01*
X149375057Y-72913106D01*
X148914722Y-73372637D01*
X148665284Y-73973352D01*
X148664716Y-74623795D01*
X148913106Y-75224943D01*
X149372637Y-75685278D01*
X149973352Y-75934716D01*
X150623795Y-75935284D01*
X151224943Y-75686894D01*
X151685278Y-75227363D01*
X151715000Y-75155784D01*
X151715000Y-77827323D01*
X151357204Y-77468902D01*
X150866713Y-77265232D01*
X150335617Y-77264769D01*
X149844771Y-77467582D01*
X149468902Y-77842796D01*
X149265232Y-78333287D01*
X149264769Y-78864383D01*
X149467582Y-79355229D01*
X149842796Y-79731098D01*
X150333287Y-79934768D01*
X150864383Y-79935231D01*
X151355229Y-79732418D01*
X151715000Y-79373274D01*
X151715000Y-111509714D01*
X151643765Y-111438355D01*
X151226756Y-111265197D01*
X150775225Y-111264803D01*
X150357914Y-111437233D01*
X150049743Y-111744867D01*
X149743765Y-111438355D01*
X149326756Y-111265197D01*
X148875225Y-111264803D01*
X148457914Y-111437233D01*
X148138355Y-111756235D01*
X147965197Y-112173244D01*
X147964803Y-112624775D01*
X148137233Y-113042086D01*
X148456235Y-113361645D01*
X148873244Y-113534803D01*
X149324775Y-113535197D01*
X149742086Y-113362767D01*
X150050257Y-113055133D01*
X150356235Y-113361645D01*
X150773244Y-113534803D01*
X151224775Y-113535197D01*
X151642086Y-113362767D01*
X151715000Y-113289980D01*
X151715000Y-129315000D01*
X138890132Y-129315000D01*
X139602566Y-128602566D01*
X139828012Y-128265162D01*
X139848603Y-128234346D01*
X139935000Y-127800000D01*
X139935000Y-126976555D01*
X140089118Y-127079533D01*
X140600000Y-127181154D01*
X141110882Y-127079533D01*
X141543988Y-126790142D01*
X141833379Y-126357036D01*
X141891591Y-126064383D01*
X142264769Y-126064383D01*
X142467582Y-126555229D01*
X142842796Y-126931098D01*
X143333287Y-127134768D01*
X143864383Y-127135231D01*
X144355229Y-126932418D01*
X144731098Y-126557204D01*
X144934768Y-126066713D01*
X144935005Y-125793846D01*
X145265000Y-125793846D01*
X145265000Y-125846154D01*
X145366621Y-126357036D01*
X145656012Y-126790142D01*
X146089118Y-127079533D01*
X146600000Y-127181154D01*
X147110882Y-127079533D01*
X147543988Y-126790142D01*
X147833379Y-126357036D01*
X147935000Y-125846154D01*
X147935000Y-125793846D01*
X147833379Y-125282964D01*
X147543988Y-124849858D01*
X147110882Y-124560467D01*
X146600000Y-124458846D01*
X146089118Y-124560467D01*
X145656012Y-124849858D01*
X145366621Y-125282964D01*
X145265000Y-125793846D01*
X144935005Y-125793846D01*
X144935231Y-125535617D01*
X144732418Y-125044771D01*
X144357204Y-124668902D01*
X143866713Y-124465232D01*
X143335617Y-124464769D01*
X142844771Y-124667582D01*
X142468902Y-125042796D01*
X142265232Y-125533287D01*
X142264769Y-126064383D01*
X141891591Y-126064383D01*
X141935000Y-125846154D01*
X141935000Y-125793846D01*
X141833379Y-125282964D01*
X141543988Y-124849858D01*
X141110882Y-124560467D01*
X140600000Y-124458846D01*
X140089118Y-124560467D01*
X139935000Y-124663445D01*
X139935000Y-119369385D01*
X140333287Y-119534768D01*
X140864383Y-119535231D01*
X141355229Y-119332418D01*
X141731098Y-118957204D01*
X141934768Y-118466713D01*
X141935040Y-118153846D01*
X142265000Y-118153846D01*
X142265000Y-118206154D01*
X142366621Y-118717036D01*
X142656012Y-119150142D01*
X143089118Y-119439533D01*
X143600000Y-119541154D01*
X144110882Y-119439533D01*
X144543988Y-119150142D01*
X144833379Y-118717036D01*
X144883634Y-118464383D01*
X145264769Y-118464383D01*
X145467582Y-118955229D01*
X145842796Y-119331098D01*
X146333287Y-119534768D01*
X146864383Y-119535231D01*
X147355229Y-119332418D01*
X147731098Y-118957204D01*
X147934768Y-118466713D01*
X147935231Y-117935617D01*
X147732418Y-117444771D01*
X147357204Y-117068902D01*
X146866713Y-116865232D01*
X146335617Y-116864769D01*
X145844771Y-117067582D01*
X145468902Y-117442796D01*
X145265232Y-117933287D01*
X145264769Y-118464383D01*
X144883634Y-118464383D01*
X144935000Y-118206154D01*
X144935000Y-118153846D01*
X144833379Y-117642964D01*
X144543988Y-117209858D01*
X144110882Y-116920467D01*
X143600000Y-116818846D01*
X143089118Y-116920467D01*
X142656012Y-117209858D01*
X142366621Y-117642964D01*
X142265000Y-118153846D01*
X141935040Y-118153846D01*
X141935231Y-117935617D01*
X141732418Y-117444771D01*
X141357204Y-117068902D01*
X140866713Y-116865232D01*
X140335617Y-116864769D01*
X139935000Y-117030300D01*
X139935000Y-114470132D01*
X141602566Y-112802566D01*
X141848603Y-112434345D01*
X141935000Y-112000000D01*
X141848603Y-111565655D01*
X141602566Y-111197434D01*
X141234345Y-110951397D01*
X140800000Y-110865000D01*
X140365655Y-110951397D01*
X139997434Y-111197434D01*
X137997434Y-113197434D01*
X137751397Y-113565654D01*
X137665000Y-114000000D01*
X137665000Y-117357080D01*
X137310882Y-117120467D01*
X136800000Y-117018846D01*
X136289118Y-117120467D01*
X135856012Y-117409858D01*
X135566621Y-117842964D01*
X135465000Y-118353846D01*
X135465000Y-118406154D01*
X135566621Y-118917036D01*
X135856012Y-119350142D01*
X136289118Y-119639533D01*
X136800000Y-119741154D01*
X137310882Y-119639533D01*
X137665000Y-119402920D01*
X137665000Y-124976886D01*
X137557204Y-124868902D01*
X137066713Y-124665232D01*
X136535617Y-124664769D01*
X136044771Y-124867582D01*
X135668902Y-125242796D01*
X135465232Y-125733287D01*
X135464769Y-126264383D01*
X135667582Y-126755229D01*
X136042796Y-127131098D01*
X136533287Y-127334768D01*
X137064383Y-127335231D01*
X137555229Y-127132418D01*
X137665000Y-127022838D01*
X137665000Y-127329868D01*
X136597434Y-128397434D01*
X136351397Y-128765655D01*
X136265000Y-129200000D01*
X136287875Y-129315000D01*
X103085000Y-129315000D01*
X103085000Y-125533329D01*
X121287284Y-125533329D01*
X121430203Y-125878396D01*
X121777337Y-126266764D01*
X122246669Y-126492727D01*
X122453000Y-126370206D01*
X122453000Y-125327000D01*
X122707000Y-125327000D01*
X122707000Y-126370206D01*
X122913331Y-126492727D01*
X123382663Y-126266764D01*
X123729797Y-125878396D01*
X123872716Y-125533329D01*
X123831501Y-125464383D01*
X128864769Y-125464383D01*
X129067582Y-125955229D01*
X129442796Y-126331098D01*
X129933287Y-126534768D01*
X130464383Y-126535231D01*
X130955229Y-126332418D01*
X131331098Y-125957204D01*
X131534768Y-125466713D01*
X131535231Y-124935617D01*
X131332418Y-124444771D01*
X130957204Y-124068902D01*
X130466713Y-123865232D01*
X129935617Y-123864769D01*
X129444771Y-124067582D01*
X129068902Y-124442796D01*
X128865232Y-124933287D01*
X128864769Y-125464383D01*
X123831501Y-125464383D01*
X123749374Y-125327000D01*
X122707000Y-125327000D01*
X122453000Y-125327000D01*
X121410626Y-125327000D01*
X121287284Y-125533329D01*
X103085000Y-125533329D01*
X103085000Y-124866671D01*
X121287284Y-124866671D01*
X121410626Y-125073000D01*
X122453000Y-125073000D01*
X122453000Y-124029794D01*
X122707000Y-124029794D01*
X122707000Y-125073000D01*
X123749374Y-125073000D01*
X123872716Y-124866671D01*
X123729797Y-124521604D01*
X123382663Y-124133236D01*
X122913331Y-123907273D01*
X122707000Y-124029794D01*
X122453000Y-124029794D01*
X122246669Y-123907273D01*
X121777337Y-124133236D01*
X121430203Y-124521604D01*
X121287284Y-124866671D01*
X103085000Y-124866671D01*
X103085000Y-121264383D01*
X121464769Y-121264383D01*
X121667582Y-121755229D01*
X122042796Y-122131098D01*
X122533287Y-122334768D01*
X123064383Y-122335231D01*
X123555229Y-122132418D01*
X123931098Y-121757204D01*
X124134768Y-121266713D01*
X124135231Y-120735617D01*
X123932418Y-120244771D01*
X123557204Y-119868902D01*
X123066713Y-119665232D01*
X122535617Y-119664769D01*
X122044771Y-119867582D01*
X121668902Y-120242796D01*
X121465232Y-120733287D01*
X121464769Y-121264383D01*
X103085000Y-121264383D01*
X103085000Y-113600000D01*
X103790000Y-113600000D01*
X103790000Y-115200000D01*
X103866882Y-115586510D01*
X104085822Y-115914178D01*
X105685822Y-117514178D01*
X106013490Y-117733118D01*
X106400000Y-117810000D01*
X110181644Y-117810000D01*
X110885822Y-118514178D01*
X111213490Y-118733118D01*
X111600000Y-118810001D01*
X111600005Y-118810000D01*
X120800000Y-118810000D01*
X121186510Y-118733118D01*
X121514178Y-118514178D01*
X121598486Y-118388002D01*
X121667582Y-118555229D01*
X122042796Y-118931098D01*
X122533287Y-119134768D01*
X123064383Y-119135231D01*
X123555229Y-118932418D01*
X123931098Y-118557204D01*
X124134768Y-118066713D01*
X124135231Y-117535617D01*
X123932418Y-117044771D01*
X123557204Y-116668902D01*
X123066713Y-116465232D01*
X122535617Y-116464769D01*
X122044771Y-116667582D01*
X121810000Y-116901944D01*
X121810000Y-115218356D01*
X123418356Y-113610000D01*
X128961645Y-113610000D01*
X124285822Y-118285822D01*
X124066882Y-118613490D01*
X123990000Y-119000000D01*
X123990000Y-120000000D01*
X124066882Y-120386510D01*
X124285822Y-120714178D01*
X124613490Y-120933118D01*
X125000000Y-121010000D01*
X125050273Y-121000000D01*
X129058846Y-121000000D01*
X129160467Y-121510882D01*
X129449858Y-121943988D01*
X129882964Y-122233379D01*
X130393846Y-122335000D01*
X130446154Y-122335000D01*
X130957036Y-122233379D01*
X131390142Y-121943988D01*
X131679533Y-121510882D01*
X131781154Y-121000000D01*
X131679533Y-120489118D01*
X131390142Y-120056012D01*
X130957036Y-119766621D01*
X130446154Y-119665000D01*
X130393846Y-119665000D01*
X129882964Y-119766621D01*
X129449858Y-120056012D01*
X129160467Y-120489118D01*
X129058846Y-121000000D01*
X125050273Y-121000000D01*
X125386510Y-120933118D01*
X125714178Y-120714178D01*
X125933118Y-120386510D01*
X126010000Y-120000000D01*
X126010000Y-119418356D01*
X127628355Y-117800000D01*
X129058846Y-117800000D01*
X129160467Y-118310882D01*
X129449858Y-118743988D01*
X129882964Y-119033379D01*
X130393846Y-119135000D01*
X130446154Y-119135000D01*
X130957036Y-119033379D01*
X131390142Y-118743988D01*
X131679533Y-118310882D01*
X131781154Y-117800000D01*
X131679533Y-117289118D01*
X131390142Y-116856012D01*
X130957036Y-116566621D01*
X130446154Y-116465000D01*
X130393846Y-116465000D01*
X129882964Y-116566621D01*
X129449858Y-116856012D01*
X129160467Y-117289118D01*
X129058846Y-117800000D01*
X127628355Y-117800000D01*
X133714175Y-111714180D01*
X133714178Y-111714178D01*
X133876626Y-111471057D01*
X133933118Y-111386511D01*
X134010000Y-111000000D01*
X134010000Y-109529215D01*
X134100000Y-109547440D01*
X135500000Y-109547440D01*
X135735317Y-109503162D01*
X135951441Y-109364090D01*
X136096431Y-109151890D01*
X136147440Y-108900000D01*
X136147440Y-107500000D01*
X136103162Y-107264683D01*
X135964090Y-107048559D01*
X135751890Y-106903569D01*
X135707434Y-106894566D01*
X135743988Y-106870142D01*
X136033379Y-106437036D01*
X136135000Y-105926154D01*
X136135000Y-105873846D01*
X136033379Y-105362964D01*
X135743988Y-104929858D01*
X135474810Y-104750000D01*
X135743988Y-104570142D01*
X136033379Y-104137036D01*
X136135000Y-103626154D01*
X136135000Y-103573846D01*
X136033379Y-103062964D01*
X135743988Y-102629858D01*
X135310882Y-102340467D01*
X134800000Y-102238846D01*
X134289118Y-102340467D01*
X133856012Y-102629858D01*
X133566621Y-103062964D01*
X133465000Y-103573846D01*
X133465000Y-103626154D01*
X133566621Y-104137036D01*
X133856012Y-104570142D01*
X134125190Y-104750000D01*
X133856012Y-104929858D01*
X133617144Y-105287351D01*
X133586510Y-105266882D01*
X133200000Y-105190000D01*
X132813490Y-105266882D01*
X132810000Y-105269214D01*
X132810000Y-105218356D01*
X133114178Y-104914178D01*
X133333118Y-104586510D01*
X133410000Y-104200000D01*
X133333118Y-103813490D01*
X133114178Y-103485822D01*
X132844072Y-103305343D01*
X132846431Y-103301890D01*
X132897440Y-103050000D01*
X132897440Y-101350000D01*
X132853162Y-101114683D01*
X132714090Y-100898559D01*
X132501890Y-100753569D01*
X132250000Y-100702560D01*
X130550000Y-100702560D01*
X130314683Y-100746838D01*
X130098559Y-100885910D01*
X129953569Y-101098110D01*
X129939914Y-101165541D01*
X129910054Y-101120853D01*
X129428285Y-100798946D01*
X128860000Y-100685907D01*
X128291715Y-100798946D01*
X127809946Y-101120853D01*
X127582298Y-101461553D01*
X127515183Y-101318642D01*
X127086924Y-100928355D01*
X126676890Y-100758524D01*
X126447000Y-100879845D01*
X126447000Y-102073000D01*
X126467000Y-102073000D01*
X126467000Y-102327000D01*
X126447000Y-102327000D01*
X126447000Y-103520155D01*
X126676890Y-103641476D01*
X127086924Y-103471645D01*
X127515183Y-103081358D01*
X127582298Y-102938447D01*
X127809946Y-103279147D01*
X128291715Y-103601054D01*
X128860000Y-103714093D01*
X129428285Y-103601054D01*
X129910054Y-103279147D01*
X129937850Y-103237548D01*
X129946838Y-103285317D01*
X130085910Y-103501441D01*
X130298110Y-103646431D01*
X130550000Y-103697440D01*
X131474204Y-103697440D01*
X131085822Y-104085822D01*
X130866882Y-104413490D01*
X130842896Y-104534077D01*
X130651890Y-104403569D01*
X130400000Y-104352560D01*
X128800000Y-104352560D01*
X128564683Y-104396838D01*
X128348559Y-104535910D01*
X128203569Y-104748110D01*
X128152560Y-105000000D01*
X128152560Y-106600000D01*
X128196838Y-106835317D01*
X128335910Y-107051441D01*
X128548110Y-107196431D01*
X128786201Y-107244646D01*
X128771861Y-107292255D01*
X129600000Y-108120395D01*
X130428139Y-107292255D01*
X130413855Y-107244833D01*
X130635317Y-107203162D01*
X130790000Y-107103626D01*
X130790000Y-107526758D01*
X130607745Y-107471861D01*
X129779605Y-108300000D01*
X130607745Y-109128139D01*
X130790000Y-109073242D01*
X130790000Y-109781644D01*
X128981644Y-111590000D01*
X123000000Y-111590000D01*
X122613490Y-111666882D01*
X122285822Y-111885822D01*
X117885822Y-116285822D01*
X117666882Y-116613490D01*
X117631772Y-116790000D01*
X112018356Y-116790000D01*
X111314178Y-116085822D01*
X110986510Y-115866882D01*
X110600000Y-115790000D01*
X107122051Y-115790000D01*
X107402566Y-115602566D01*
X110802566Y-112202566D01*
X111048603Y-111834345D01*
X111135000Y-111400000D01*
X111048603Y-110965655D01*
X110802566Y-110597434D01*
X110434345Y-110351397D01*
X110000000Y-110265000D01*
X109565655Y-110351397D01*
X109197434Y-110597434D01*
X108581611Y-111213257D01*
X108733118Y-110986510D01*
X108810000Y-110600000D01*
X108733118Y-110213490D01*
X108514178Y-109885822D01*
X108186510Y-109666882D01*
X107800000Y-109590000D01*
X107413490Y-109666882D01*
X107085822Y-109885822D01*
X104085822Y-112885822D01*
X103866882Y-113213490D01*
X103790000Y-113600000D01*
X103085000Y-113600000D01*
X103085000Y-109307745D01*
X117171861Y-109307745D01*
X117245995Y-109553864D01*
X117783223Y-109746965D01*
X118353454Y-109719778D01*
X118754005Y-109553864D01*
X118828139Y-109307745D01*
X122971861Y-109307745D01*
X123045995Y-109553864D01*
X123583223Y-109746965D01*
X124153454Y-109719778D01*
X124554005Y-109553864D01*
X124628139Y-109307745D01*
X128771861Y-109307745D01*
X128845995Y-109553864D01*
X129383223Y-109746965D01*
X129953454Y-109719778D01*
X130354005Y-109553864D01*
X130428139Y-109307745D01*
X129600000Y-108479605D01*
X128771861Y-109307745D01*
X124628139Y-109307745D01*
X123800000Y-108479605D01*
X122971861Y-109307745D01*
X118828139Y-109307745D01*
X118000000Y-108479605D01*
X117171861Y-109307745D01*
X103085000Y-109307745D01*
X103085000Y-104340000D01*
X103485907Y-104340000D01*
X103598946Y-104908285D01*
X103920853Y-105390054D01*
X104250026Y-105610000D01*
X103920853Y-105829946D01*
X103598946Y-106311715D01*
X103485907Y-106880000D01*
X103598946Y-107448285D01*
X103920853Y-107930054D01*
X104402622Y-108251961D01*
X104970907Y-108365000D01*
X105029093Y-108365000D01*
X105597378Y-108251961D01*
X105849912Y-108083223D01*
X116553035Y-108083223D01*
X116580222Y-108653454D01*
X116746136Y-109054005D01*
X116992255Y-109128139D01*
X117820395Y-108300000D01*
X118179605Y-108300000D01*
X119007745Y-109128139D01*
X119253864Y-109054005D01*
X119446965Y-108516777D01*
X119426295Y-108083223D01*
X122353035Y-108083223D01*
X122380222Y-108653454D01*
X122546136Y-109054005D01*
X122792255Y-109128139D01*
X123620395Y-108300000D01*
X123979605Y-108300000D01*
X124807745Y-109128139D01*
X125053864Y-109054005D01*
X125246965Y-108516777D01*
X125226295Y-108083223D01*
X128153035Y-108083223D01*
X128180222Y-108653454D01*
X128346136Y-109054005D01*
X128592255Y-109128139D01*
X129420395Y-108300000D01*
X128592255Y-107471861D01*
X128346136Y-107545995D01*
X128153035Y-108083223D01*
X125226295Y-108083223D01*
X125219778Y-107946546D01*
X125053864Y-107545995D01*
X124807745Y-107471861D01*
X123979605Y-108300000D01*
X123620395Y-108300000D01*
X122792255Y-107471861D01*
X122546136Y-107545995D01*
X122353035Y-108083223D01*
X119426295Y-108083223D01*
X119419778Y-107946546D01*
X119253864Y-107545995D01*
X119007745Y-107471861D01*
X118179605Y-108300000D01*
X117820395Y-108300000D01*
X116992255Y-107471861D01*
X116746136Y-107545995D01*
X116553035Y-108083223D01*
X105849912Y-108083223D01*
X106079147Y-107930054D01*
X106401054Y-107448285D01*
X106514093Y-106880000D01*
X106473568Y-106676265D01*
X107924758Y-106676265D01*
X108136687Y-107189172D01*
X108528764Y-107581934D01*
X109041300Y-107794758D01*
X109596265Y-107795242D01*
X110109172Y-107583313D01*
X110314078Y-107378764D01*
X111060841Y-107378764D01*
X111130059Y-107620742D01*
X111652780Y-107807155D01*
X112207049Y-107779341D01*
X112589941Y-107620742D01*
X112659159Y-107378764D01*
X111860000Y-106579605D01*
X111060841Y-107378764D01*
X110314078Y-107378764D01*
X110501934Y-107191236D01*
X110583391Y-106995066D01*
X110639258Y-107129941D01*
X110881236Y-107199159D01*
X111680395Y-106400000D01*
X111666253Y-106385858D01*
X111845858Y-106206253D01*
X111860000Y-106220395D01*
X111874143Y-106206253D01*
X112053748Y-106385858D01*
X112039605Y-106400000D01*
X112838764Y-107199159D01*
X112992560Y-107155166D01*
X112992560Y-107160000D01*
X113036838Y-107395317D01*
X113175910Y-107611441D01*
X113388110Y-107756431D01*
X113640000Y-107807440D01*
X115160000Y-107807440D01*
X115395317Y-107763162D01*
X115611441Y-107624090D01*
X115756431Y-107411890D01*
X115807440Y-107160000D01*
X115807440Y-105640000D01*
X115773696Y-105460667D01*
X115834346Y-105448603D01*
X116202566Y-105202566D01*
X116337916Y-105000000D01*
X116552560Y-105000000D01*
X116552560Y-106600000D01*
X116596838Y-106835317D01*
X116735910Y-107051441D01*
X116948110Y-107196431D01*
X117186201Y-107244646D01*
X117171861Y-107292255D01*
X118000000Y-108120395D01*
X118828139Y-107292255D01*
X118813855Y-107244833D01*
X119035317Y-107203162D01*
X119251441Y-107064090D01*
X119396431Y-106851890D01*
X119447440Y-106600000D01*
X119447440Y-105000000D01*
X122352560Y-105000000D01*
X122352560Y-106600000D01*
X122396838Y-106835317D01*
X122535910Y-107051441D01*
X122748110Y-107196431D01*
X122986201Y-107244646D01*
X122971861Y-107292255D01*
X123800000Y-108120395D01*
X124628139Y-107292255D01*
X124613855Y-107244833D01*
X124835317Y-107203162D01*
X125051441Y-107064090D01*
X125196431Y-106851890D01*
X125247440Y-106600000D01*
X125247440Y-105000000D01*
X125203162Y-104764683D01*
X125064090Y-104548559D01*
X124851890Y-104403569D01*
X124600000Y-104352560D01*
X123000000Y-104352560D01*
X122764683Y-104396838D01*
X122548559Y-104535910D01*
X122403569Y-104748110D01*
X122352560Y-105000000D01*
X119447440Y-105000000D01*
X119403162Y-104764683D01*
X119264090Y-104548559D01*
X119051890Y-104403569D01*
X118800000Y-104352560D01*
X117200000Y-104352560D01*
X116964683Y-104396838D01*
X116748559Y-104535910D01*
X116603569Y-104748110D01*
X116552560Y-105000000D01*
X116337916Y-105000000D01*
X116448603Y-104834346D01*
X116535000Y-104400000D01*
X116448603Y-103965654D01*
X116266377Y-103692933D01*
X116728285Y-103601054D01*
X117210054Y-103279147D01*
X117430000Y-102949974D01*
X117649946Y-103279147D01*
X118131715Y-103601054D01*
X118700000Y-103714093D01*
X119268285Y-103601054D01*
X119750054Y-103279147D01*
X119970000Y-102949974D01*
X120189946Y-103279147D01*
X120671715Y-103601054D01*
X121240000Y-103714093D01*
X121808285Y-103601054D01*
X122290054Y-103279147D01*
X122510000Y-102949974D01*
X122729946Y-103279147D01*
X123211715Y-103601054D01*
X123780000Y-103714093D01*
X124348285Y-103601054D01*
X124830054Y-103279147D01*
X125057702Y-102938447D01*
X125124817Y-103081358D01*
X125553076Y-103471645D01*
X125963110Y-103641476D01*
X126193000Y-103520155D01*
X126193000Y-102327000D01*
X126173000Y-102327000D01*
X126173000Y-102073000D01*
X126193000Y-102073000D01*
X126193000Y-100879845D01*
X126014036Y-100785400D01*
X126248603Y-100434346D01*
X126259413Y-100380000D01*
X139716887Y-100380000D01*
X139826120Y-100929151D01*
X140137189Y-101394698D01*
X140519275Y-101650000D01*
X140137189Y-101905302D01*
X139826120Y-102370849D01*
X139716887Y-102920000D01*
X139826120Y-103469151D01*
X140137189Y-103934698D01*
X140519275Y-104190000D01*
X140137189Y-104445302D01*
X139826120Y-104910849D01*
X139716887Y-105460000D01*
X139826120Y-106009151D01*
X140137189Y-106474698D01*
X140519275Y-106730000D01*
X140137189Y-106985302D01*
X139826120Y-107450849D01*
X139716887Y-108000000D01*
X139826120Y-108549151D01*
X140137189Y-109014698D01*
X140602736Y-109325767D01*
X141151887Y-109435000D01*
X141208113Y-109435000D01*
X141757264Y-109325767D01*
X142222811Y-109014698D01*
X142533880Y-108549151D01*
X142643113Y-108000000D01*
X142533880Y-107450849D01*
X142222811Y-106985302D01*
X141840725Y-106730000D01*
X142222811Y-106474698D01*
X142533880Y-106009151D01*
X142643113Y-105460000D01*
X142533880Y-104910849D01*
X142222811Y-104445302D01*
X141840725Y-104190000D01*
X142222811Y-103934698D01*
X142533880Y-103469151D01*
X142643113Y-102920000D01*
X147336887Y-102920000D01*
X147446120Y-103469151D01*
X147757189Y-103934698D01*
X148139275Y-104190000D01*
X147757189Y-104445302D01*
X147446120Y-104910849D01*
X147336887Y-105460000D01*
X147446120Y-106009151D01*
X147757189Y-106474698D01*
X147901465Y-106571101D01*
X147764683Y-106596838D01*
X147548559Y-106735910D01*
X147403569Y-106948110D01*
X147352560Y-107200000D01*
X147352560Y-108800000D01*
X147396838Y-109035317D01*
X147535910Y-109251441D01*
X147748110Y-109396431D01*
X148000000Y-109447440D01*
X149600000Y-109447440D01*
X149835317Y-109403162D01*
X150051441Y-109264090D01*
X150196431Y-109051890D01*
X150247440Y-108800000D01*
X150247440Y-107200000D01*
X150203162Y-106964683D01*
X150064090Y-106748559D01*
X149851890Y-106603569D01*
X149696911Y-106572185D01*
X149842811Y-106474698D01*
X150153880Y-106009151D01*
X150263113Y-105460000D01*
X150153880Y-104910849D01*
X149842811Y-104445302D01*
X149460725Y-104190000D01*
X149842811Y-103934698D01*
X150153880Y-103469151D01*
X150263113Y-102920000D01*
X150153880Y-102370849D01*
X149842811Y-101905302D01*
X149438297Y-101635014D01*
X149655134Y-101532389D01*
X150031041Y-101117423D01*
X150191904Y-100729039D01*
X150069915Y-100507000D01*
X148927000Y-100507000D01*
X148927000Y-100527000D01*
X148673000Y-100527000D01*
X148673000Y-100507000D01*
X147530085Y-100507000D01*
X147408096Y-100729039D01*
X147568959Y-101117423D01*
X147944866Y-101532389D01*
X148161703Y-101635014D01*
X147757189Y-101905302D01*
X147446120Y-102370849D01*
X147336887Y-102920000D01*
X142643113Y-102920000D01*
X142533880Y-102370849D01*
X142222811Y-101905302D01*
X141840725Y-101650000D01*
X142222811Y-101394698D01*
X142533880Y-100929151D01*
X142643113Y-100380000D01*
X142573685Y-100030961D01*
X147408096Y-100030961D01*
X147530085Y-100253000D01*
X148673000Y-100253000D01*
X148673000Y-99109371D01*
X148927000Y-99109371D01*
X148927000Y-100253000D01*
X150069915Y-100253000D01*
X150191904Y-100030961D01*
X150031041Y-99642577D01*
X149655134Y-99227611D01*
X149149041Y-98988086D01*
X148927000Y-99109371D01*
X148673000Y-99109371D01*
X148450959Y-98988086D01*
X147944866Y-99227611D01*
X147568959Y-99642577D01*
X147408096Y-100030961D01*
X142573685Y-100030961D01*
X142533880Y-99830849D01*
X142222811Y-99365302D01*
X141757264Y-99054233D01*
X141208113Y-98945000D01*
X141151887Y-98945000D01*
X140602736Y-99054233D01*
X140137189Y-99365302D01*
X139826120Y-99830849D01*
X139716887Y-100380000D01*
X126259413Y-100380000D01*
X126335000Y-100000000D01*
X126248603Y-99565654D01*
X126002566Y-99197434D01*
X125634346Y-98951397D01*
X125200000Y-98865000D01*
X124186580Y-98865000D01*
X124808834Y-98242745D01*
X124928943Y-98193117D01*
X125192192Y-97930327D01*
X125334838Y-97586799D01*
X125335162Y-97214833D01*
X125193117Y-96871057D01*
X124930327Y-96607808D01*
X124763697Y-96538617D01*
X125089151Y-96473880D01*
X125554698Y-96162811D01*
X125810000Y-95780725D01*
X126065302Y-96162811D01*
X126530849Y-96473880D01*
X127080000Y-96583113D01*
X127629151Y-96473880D01*
X128094698Y-96162811D01*
X128350000Y-95780725D01*
X128605302Y-96162811D01*
X129070849Y-96473880D01*
X129620000Y-96583113D01*
X130169151Y-96473880D01*
X130634698Y-96162811D01*
X130904986Y-95758297D01*
X131007611Y-95975134D01*
X131422577Y-96351041D01*
X131722372Y-96475212D01*
X131574210Y-96574210D01*
X131574208Y-96574213D01*
X129791164Y-98357256D01*
X129671057Y-98406883D01*
X129407808Y-98669673D01*
X129265162Y-99013201D01*
X129264838Y-99385167D01*
X129406883Y-99728943D01*
X129669673Y-99992192D01*
X130013201Y-100134838D01*
X130385167Y-100135162D01*
X130728943Y-99993117D01*
X130992192Y-99730327D01*
X131042566Y-99609014D01*
X132566579Y-98085000D01*
X147799995Y-98085000D01*
X147800000Y-98085001D01*
X148097672Y-98025789D01*
X148138675Y-98017633D01*
X148425790Y-97825790D01*
X150425787Y-95825792D01*
X150425790Y-95825790D01*
X150617633Y-95538675D01*
X150631484Y-95469041D01*
X150685001Y-95200000D01*
X150685000Y-95199995D01*
X150685000Y-89106822D01*
X150734838Y-88986799D01*
X150735162Y-88614833D01*
X150593117Y-88271057D01*
X150330327Y-88007808D01*
X149986799Y-87865162D01*
X149614833Y-87864838D01*
X149271057Y-88006883D01*
X149007808Y-88269673D01*
X148865162Y-88613201D01*
X148864838Y-88985167D01*
X148915000Y-89106569D01*
X148915000Y-94833421D01*
X148805391Y-94943030D01*
X148725767Y-94542736D01*
X148414698Y-94077189D01*
X147949151Y-93766120D01*
X147400000Y-93656887D01*
X146850849Y-93766120D01*
X146385302Y-94077189D01*
X146130000Y-94459275D01*
X145874698Y-94077189D01*
X145409151Y-93766120D01*
X144860000Y-93656887D01*
X144310849Y-93766120D01*
X143845302Y-94077189D01*
X143590000Y-94459275D01*
X143334698Y-94077189D01*
X142869151Y-93766120D01*
X142320000Y-93656887D01*
X141770849Y-93766120D01*
X141305302Y-94077189D01*
X141050000Y-94459275D01*
X140794698Y-94077189D01*
X140329151Y-93766120D01*
X139780000Y-93656887D01*
X139230849Y-93766120D01*
X138765302Y-94077189D01*
X138510000Y-94459275D01*
X138254698Y-94077189D01*
X137789151Y-93766120D01*
X137240000Y-93656887D01*
X136690849Y-93766120D01*
X136225302Y-94077189D01*
X135970000Y-94459275D01*
X135714698Y-94077189D01*
X135249151Y-93766120D01*
X134700000Y-93656887D01*
X134150849Y-93766120D01*
X133685302Y-94077189D01*
X133415014Y-94481703D01*
X133312389Y-94264866D01*
X132897423Y-93888959D01*
X132509039Y-93728096D01*
X132287000Y-93850085D01*
X132287000Y-94993000D01*
X132307000Y-94993000D01*
X132307000Y-95247000D01*
X132287000Y-95247000D01*
X132287000Y-95267000D01*
X132033000Y-95267000D01*
X132033000Y-95247000D01*
X132013000Y-95247000D01*
X132013000Y-94993000D01*
X132033000Y-94993000D01*
X132033000Y-93850085D01*
X131810961Y-93728096D01*
X131422577Y-93888959D01*
X131007611Y-94264866D01*
X130904986Y-94481703D01*
X130634698Y-94077189D01*
X130169151Y-93766120D01*
X129620000Y-93656887D01*
X129070849Y-93766120D01*
X128605302Y-94077189D01*
X128350000Y-94459275D01*
X128094698Y-94077189D01*
X127629151Y-93766120D01*
X127080000Y-93656887D01*
X126530849Y-93766120D01*
X126065302Y-94077189D01*
X125810000Y-94459275D01*
X125554698Y-94077189D01*
X125089151Y-93766120D01*
X124540000Y-93656887D01*
X123990849Y-93766120D01*
X123525302Y-94077189D01*
X123270000Y-94459275D01*
X123014698Y-94077189D01*
X122549151Y-93766120D01*
X122000000Y-93656887D01*
X121450849Y-93766120D01*
X120985302Y-94077189D01*
X120730000Y-94459275D01*
X120474698Y-94077189D01*
X120009151Y-93766120D01*
X119460000Y-93656887D01*
X118910849Y-93766120D01*
X118445302Y-94077189D01*
X118190000Y-94459275D01*
X117934698Y-94077189D01*
X117469151Y-93766120D01*
X116920000Y-93656887D01*
X116370849Y-93766120D01*
X115905302Y-94077189D01*
X115650000Y-94459275D01*
X115394698Y-94077189D01*
X114929151Y-93766120D01*
X114380000Y-93656887D01*
X113830849Y-93766120D01*
X113365302Y-94077189D01*
X113054233Y-94542736D01*
X112945000Y-95091887D01*
X112945000Y-95148113D01*
X113054233Y-95697264D01*
X113365302Y-96162811D01*
X113830849Y-96473880D01*
X114380000Y-96583113D01*
X114929151Y-96473880D01*
X115394698Y-96162811D01*
X115650000Y-95780725D01*
X115905302Y-96162811D01*
X116058238Y-96265000D01*
X115800000Y-96265000D01*
X115365654Y-96351397D01*
X115125439Y-96511904D01*
X114997434Y-96597434D01*
X114397434Y-97197434D01*
X114151397Y-97565655D01*
X114065000Y-98000000D01*
X114151397Y-98434345D01*
X114397434Y-98802566D01*
X114765655Y-99048603D01*
X115200000Y-99135000D01*
X115634345Y-99048603D01*
X116002566Y-98802566D01*
X116270132Y-98535000D01*
X117980682Y-98535000D01*
X117865162Y-98813201D01*
X117864838Y-99185167D01*
X118006883Y-99528943D01*
X118269673Y-99792192D01*
X118613201Y-99934838D01*
X118985167Y-99935162D01*
X119106569Y-99885000D01*
X121527658Y-99885000D01*
X121465000Y-100200000D01*
X121551397Y-100634345D01*
X121638862Y-100765246D01*
X121240000Y-100685907D01*
X120671715Y-100798946D01*
X120189946Y-101120853D01*
X119970000Y-101450026D01*
X119750054Y-101120853D01*
X119268285Y-100798946D01*
X118700000Y-100685907D01*
X118131715Y-100798946D01*
X117649946Y-101120853D01*
X117430000Y-101450026D01*
X117210054Y-101120853D01*
X116728285Y-100798946D01*
X116160000Y-100685907D01*
X115591715Y-100798946D01*
X115109946Y-101120853D01*
X114788039Y-101602622D01*
X114675000Y-102170907D01*
X114675000Y-102229093D01*
X114788039Y-102797378D01*
X115100493Y-103265000D01*
X111270132Y-103265000D01*
X111202566Y-103197434D01*
X110834345Y-102951397D01*
X110400000Y-102865000D01*
X109965655Y-102951397D01*
X109597434Y-103197434D01*
X109351397Y-103565655D01*
X109265000Y-104000000D01*
X109351397Y-104434345D01*
X109597434Y-104802566D01*
X109943130Y-105148262D01*
X109598700Y-105005242D01*
X109043735Y-105004758D01*
X108530828Y-105216687D01*
X108138066Y-105608764D01*
X107925242Y-106121300D01*
X107924758Y-106676265D01*
X106473568Y-106676265D01*
X106401054Y-106311715D01*
X106079147Y-105829946D01*
X105749974Y-105610000D01*
X106079147Y-105390054D01*
X106401054Y-104908285D01*
X106514093Y-104340000D01*
X106401054Y-103771715D01*
X106079147Y-103289946D01*
X106035223Y-103260597D01*
X106209698Y-103188327D01*
X106388327Y-103009699D01*
X106485000Y-102776310D01*
X106485000Y-102085750D01*
X106326250Y-101927000D01*
X105127000Y-101927000D01*
X105127000Y-101947000D01*
X104873000Y-101947000D01*
X104873000Y-101927000D01*
X103673750Y-101927000D01*
X103515000Y-102085750D01*
X103515000Y-102776310D01*
X103611673Y-103009699D01*
X103790302Y-103188327D01*
X103964777Y-103260597D01*
X103920853Y-103289946D01*
X103598946Y-103771715D01*
X103485907Y-104340000D01*
X103085000Y-104340000D01*
X103085000Y-100823690D01*
X103515000Y-100823690D01*
X103515000Y-101514250D01*
X103673750Y-101673000D01*
X104873000Y-101673000D01*
X104873000Y-100473750D01*
X105127000Y-100473750D01*
X105127000Y-101673000D01*
X106326250Y-101673000D01*
X106485000Y-101514250D01*
X106485000Y-100823690D01*
X106388327Y-100590301D01*
X106209698Y-100411673D01*
X105976309Y-100315000D01*
X105285750Y-100315000D01*
X105127000Y-100473750D01*
X104873000Y-100473750D01*
X104714250Y-100315000D01*
X104023691Y-100315000D01*
X103790302Y-100411673D01*
X103611673Y-100590301D01*
X103515000Y-100823690D01*
X103085000Y-100823690D01*
X103085000Y-100000000D01*
X107952560Y-100000000D01*
X107952560Y-101600000D01*
X107996838Y-101835317D01*
X108135910Y-102051441D01*
X108348110Y-102196431D01*
X108600000Y-102247440D01*
X110200000Y-102247440D01*
X110435317Y-102203162D01*
X110651441Y-102064090D01*
X110796431Y-101851890D01*
X110805370Y-101807745D01*
X111071861Y-101807745D01*
X111145995Y-102053864D01*
X111683223Y-102246965D01*
X112253454Y-102219778D01*
X112654005Y-102053864D01*
X112728139Y-101807745D01*
X111900000Y-100979605D01*
X111071861Y-101807745D01*
X110805370Y-101807745D01*
X110844646Y-101613799D01*
X110892255Y-101628139D01*
X111720395Y-100800000D01*
X112079605Y-100800000D01*
X112907745Y-101628139D01*
X113153864Y-101554005D01*
X113346965Y-101016777D01*
X113319778Y-100446546D01*
X113153864Y-100045995D01*
X112907745Y-99971861D01*
X112079605Y-100800000D01*
X111720395Y-100800000D01*
X110892255Y-99971861D01*
X110844833Y-99986145D01*
X110808351Y-99792255D01*
X111071861Y-99792255D01*
X111900000Y-100620395D01*
X112728139Y-99792255D01*
X112654005Y-99546136D01*
X112116777Y-99353035D01*
X111546546Y-99380222D01*
X111145995Y-99546136D01*
X111071861Y-99792255D01*
X110808351Y-99792255D01*
X110803162Y-99764683D01*
X110664090Y-99548559D01*
X110451890Y-99403569D01*
X110200000Y-99352560D01*
X108600000Y-99352560D01*
X108364683Y-99396838D01*
X108148559Y-99535910D01*
X108003569Y-99748110D01*
X107952560Y-100000000D01*
X103085000Y-100000000D01*
X103085000Y-93900000D01*
X104052560Y-93900000D01*
X104052560Y-95700000D01*
X104096838Y-95935317D01*
X104235910Y-96151441D01*
X104448110Y-96296431D01*
X104700000Y-96347440D01*
X106500000Y-96347440D01*
X106735317Y-96303162D01*
X106951441Y-96164090D01*
X107096431Y-95951890D01*
X107147440Y-95700000D01*
X107147440Y-94864383D01*
X108664769Y-94864383D01*
X108867582Y-95355229D01*
X109242796Y-95731098D01*
X109733287Y-95934768D01*
X110264383Y-95935231D01*
X110755229Y-95732418D01*
X111131098Y-95357204D01*
X111334768Y-94866713D01*
X111335231Y-94335617D01*
X111132418Y-93844771D01*
X110757204Y-93468902D01*
X110266713Y-93265232D01*
X109735617Y-93264769D01*
X109244771Y-93467582D01*
X108868902Y-93842796D01*
X108665232Y-94333287D01*
X108664769Y-94864383D01*
X107147440Y-94864383D01*
X107147440Y-93900000D01*
X107103162Y-93664683D01*
X106964090Y-93448559D01*
X106751890Y-93303569D01*
X106731466Y-93299433D01*
X106900551Y-93130643D01*
X107134733Y-92566670D01*
X107135265Y-91956009D01*
X106902068Y-91391629D01*
X106470643Y-90959449D01*
X105906670Y-90725267D01*
X105296009Y-90724735D01*
X104731629Y-90957932D01*
X104299449Y-91389357D01*
X104065267Y-91953330D01*
X104064735Y-92563991D01*
X104297932Y-93128371D01*
X104465880Y-93296613D01*
X104464683Y-93296838D01*
X104248559Y-93435910D01*
X104103569Y-93648110D01*
X104052560Y-93900000D01*
X103085000Y-93900000D01*
X103085000Y-84900000D01*
X104052560Y-84900000D01*
X104052560Y-86700000D01*
X104096838Y-86935317D01*
X104235910Y-87151441D01*
X104448110Y-87296431D01*
X104468534Y-87300567D01*
X104299449Y-87469357D01*
X104065267Y-88033330D01*
X104064735Y-88643991D01*
X104297932Y-89208371D01*
X104729357Y-89640551D01*
X105293330Y-89874733D01*
X105903991Y-89875265D01*
X106468371Y-89642068D01*
X106900551Y-89210643D01*
X107134733Y-88646670D01*
X107135265Y-88036009D01*
X106902068Y-87471629D01*
X106744047Y-87313331D01*
X108707273Y-87313331D01*
X108933236Y-87782663D01*
X109321604Y-88129797D01*
X109666671Y-88272716D01*
X109873000Y-88149374D01*
X109873000Y-87107000D01*
X110127000Y-87107000D01*
X110127000Y-88149374D01*
X110333329Y-88272716D01*
X110678396Y-88129797D01*
X111066764Y-87782663D01*
X111216389Y-87471887D01*
X112945000Y-87471887D01*
X112945000Y-87528113D01*
X113054233Y-88077264D01*
X113365302Y-88542811D01*
X113830849Y-88853880D01*
X114380000Y-88963113D01*
X114929151Y-88853880D01*
X115394698Y-88542811D01*
X115650000Y-88160725D01*
X115905302Y-88542811D01*
X116370849Y-88853880D01*
X116920000Y-88963113D01*
X117469151Y-88853880D01*
X117934698Y-88542811D01*
X118190000Y-88160725D01*
X118445302Y-88542811D01*
X118910849Y-88853880D01*
X119460000Y-88963113D01*
X120009151Y-88853880D01*
X120474698Y-88542811D01*
X120730000Y-88160725D01*
X120985302Y-88542811D01*
X121450849Y-88853880D01*
X122000000Y-88963113D01*
X122549151Y-88853880D01*
X123014698Y-88542811D01*
X123270000Y-88160725D01*
X123525302Y-88542811D01*
X123990849Y-88853880D01*
X124540000Y-88963113D01*
X125089151Y-88853880D01*
X125554698Y-88542811D01*
X125810000Y-88160725D01*
X126065302Y-88542811D01*
X126530849Y-88853880D01*
X127080000Y-88963113D01*
X127629151Y-88853880D01*
X128094698Y-88542811D01*
X128364986Y-88138297D01*
X128467611Y-88355134D01*
X128882577Y-88731041D01*
X129270961Y-88891904D01*
X129493000Y-88769915D01*
X129493000Y-87627000D01*
X129473000Y-87627000D01*
X129473000Y-87373000D01*
X129493000Y-87373000D01*
X129493000Y-86230085D01*
X129747000Y-86230085D01*
X129747000Y-87373000D01*
X129767000Y-87373000D01*
X129767000Y-87627000D01*
X129747000Y-87627000D01*
X129747000Y-88769915D01*
X129969039Y-88891904D01*
X130357423Y-88731041D01*
X130772389Y-88355134D01*
X130875014Y-88138297D01*
X131145302Y-88542811D01*
X131610849Y-88853880D01*
X132160000Y-88963113D01*
X132709151Y-88853880D01*
X133174698Y-88542811D01*
X133430000Y-88160725D01*
X133685302Y-88542811D01*
X134150849Y-88853880D01*
X134700000Y-88963113D01*
X135249151Y-88853880D01*
X135714698Y-88542811D01*
X135970000Y-88160725D01*
X136225302Y-88542811D01*
X136690849Y-88853880D01*
X137240000Y-88963113D01*
X137789151Y-88853880D01*
X138254698Y-88542811D01*
X138510000Y-88160725D01*
X138765302Y-88542811D01*
X139230849Y-88853880D01*
X139780000Y-88963113D01*
X140329151Y-88853880D01*
X140794698Y-88542811D01*
X141050000Y-88160725D01*
X141305302Y-88542811D01*
X141770849Y-88853880D01*
X142320000Y-88963113D01*
X142869151Y-88853880D01*
X143334698Y-88542811D01*
X143590000Y-88160725D01*
X143845302Y-88542811D01*
X144310849Y-88853880D01*
X144860000Y-88963113D01*
X145409151Y-88853880D01*
X145874698Y-88542811D01*
X145971101Y-88398535D01*
X145996838Y-88535317D01*
X146135910Y-88751441D01*
X146348110Y-88896431D01*
X146600000Y-88947440D01*
X148200000Y-88947440D01*
X148435317Y-88903162D01*
X148651441Y-88764090D01*
X148796431Y-88551890D01*
X148847440Y-88300000D01*
X148847440Y-86700000D01*
X148803162Y-86464683D01*
X148664090Y-86248559D01*
X148451890Y-86103569D01*
X148200000Y-86052560D01*
X146600000Y-86052560D01*
X146364683Y-86096838D01*
X146148559Y-86235910D01*
X146003569Y-86448110D01*
X145972185Y-86603089D01*
X145874698Y-86457189D01*
X145409151Y-86146120D01*
X144860000Y-86036887D01*
X144310849Y-86146120D01*
X143845302Y-86457189D01*
X143590000Y-86839275D01*
X143334698Y-86457189D01*
X142869151Y-86146120D01*
X142320000Y-86036887D01*
X141770849Y-86146120D01*
X141305302Y-86457189D01*
X141050000Y-86839275D01*
X140794698Y-86457189D01*
X140329151Y-86146120D01*
X139780000Y-86036887D01*
X139230849Y-86146120D01*
X138765302Y-86457189D01*
X138510000Y-86839275D01*
X138254698Y-86457189D01*
X137789151Y-86146120D01*
X137240000Y-86036887D01*
X136690849Y-86146120D01*
X136225302Y-86457189D01*
X135970000Y-86839275D01*
X135714698Y-86457189D01*
X135249151Y-86146120D01*
X134700000Y-86036887D01*
X134150849Y-86146120D01*
X133685302Y-86457189D01*
X133430000Y-86839275D01*
X133174698Y-86457189D01*
X132709151Y-86146120D01*
X132160000Y-86036887D01*
X131610849Y-86146120D01*
X131145302Y-86457189D01*
X130875014Y-86861703D01*
X130772389Y-86644866D01*
X130357423Y-86268959D01*
X129969039Y-86108096D01*
X129747000Y-86230085D01*
X129493000Y-86230085D01*
X129270961Y-86108096D01*
X128882577Y-86268959D01*
X128467611Y-86644866D01*
X128364986Y-86861703D01*
X128094698Y-86457189D01*
X127629151Y-86146120D01*
X127080000Y-86036887D01*
X126530849Y-86146120D01*
X126065302Y-86457189D01*
X125810000Y-86839275D01*
X125554698Y-86457189D01*
X125089151Y-86146120D01*
X124540000Y-86036887D01*
X123990849Y-86146120D01*
X123525302Y-86457189D01*
X123270000Y-86839275D01*
X123014698Y-86457189D01*
X122549151Y-86146120D01*
X122000000Y-86036887D01*
X121450849Y-86146120D01*
X120985302Y-86457189D01*
X120730000Y-86839275D01*
X120474698Y-86457189D01*
X120009151Y-86146120D01*
X119460000Y-86036887D01*
X118910849Y-86146120D01*
X118445302Y-86457189D01*
X118190000Y-86839275D01*
X117934698Y-86457189D01*
X117469151Y-86146120D01*
X117115289Y-86075732D01*
X117293000Y-85970206D01*
X117293000Y-84927000D01*
X117547000Y-84927000D01*
X117547000Y-85970206D01*
X117753331Y-86092727D01*
X118222663Y-85866764D01*
X118569797Y-85478396D01*
X118712716Y-85133329D01*
X118589374Y-84927000D01*
X117547000Y-84927000D01*
X117293000Y-84927000D01*
X116250626Y-84927000D01*
X116127284Y-85133329D01*
X116270203Y-85478396D01*
X116617337Y-85866764D01*
X117006372Y-86054067D01*
X116920000Y-86036887D01*
X116370849Y-86146120D01*
X115905302Y-86457189D01*
X115650000Y-86839275D01*
X115394698Y-86457189D01*
X114929151Y-86146120D01*
X114380000Y-86036887D01*
X113830849Y-86146120D01*
X113365302Y-86457189D01*
X113054233Y-86922736D01*
X112945000Y-87471887D01*
X111216389Y-87471887D01*
X111292727Y-87313331D01*
X111170206Y-87107000D01*
X110127000Y-87107000D01*
X109873000Y-87107000D01*
X108829794Y-87107000D01*
X108707273Y-87313331D01*
X106744047Y-87313331D01*
X106734120Y-87303387D01*
X106735317Y-87303162D01*
X106951441Y-87164090D01*
X107096431Y-86951890D01*
X107147440Y-86700000D01*
X107147440Y-85064383D01*
X108464769Y-85064383D01*
X108667582Y-85555229D01*
X109042796Y-85931098D01*
X109156092Y-85978143D01*
X108933236Y-86177337D01*
X108707273Y-86646669D01*
X108829794Y-86853000D01*
X109873000Y-86853000D01*
X109873000Y-86833000D01*
X110127000Y-86833000D01*
X110127000Y-86853000D01*
X111170206Y-86853000D01*
X111292727Y-86646669D01*
X111066764Y-86177337D01*
X110678396Y-85830203D01*
X110663714Y-85824122D01*
X110931098Y-85557204D01*
X111134768Y-85066713D01*
X111135231Y-84535617D01*
X111106744Y-84466671D01*
X116127284Y-84466671D01*
X116250626Y-84673000D01*
X117293000Y-84673000D01*
X117293000Y-83629794D01*
X117547000Y-83629794D01*
X117547000Y-84673000D01*
X118589374Y-84673000D01*
X118712716Y-84466671D01*
X118569797Y-84121604D01*
X118222663Y-83733236D01*
X117753331Y-83507273D01*
X117547000Y-83629794D01*
X117293000Y-83629794D01*
X117086669Y-83507273D01*
X116617337Y-83733236D01*
X116270203Y-84121604D01*
X116127284Y-84466671D01*
X111106744Y-84466671D01*
X110932418Y-84044771D01*
X110557204Y-83668902D01*
X110066713Y-83465232D01*
X109535617Y-83464769D01*
X109044771Y-83667582D01*
X108668902Y-84042796D01*
X108465232Y-84533287D01*
X108464769Y-85064383D01*
X107147440Y-85064383D01*
X107147440Y-84900000D01*
X107103162Y-84664683D01*
X106964090Y-84448559D01*
X106751890Y-84303569D01*
X106500000Y-84252560D01*
X104700000Y-84252560D01*
X104464683Y-84296838D01*
X104248559Y-84435910D01*
X104103569Y-84648110D01*
X104052560Y-84900000D01*
X103085000Y-84900000D01*
X103085000Y-83074285D01*
X121814760Y-83074285D01*
X122025169Y-83583515D01*
X122414436Y-83973461D01*
X122923298Y-84184759D01*
X123474285Y-84185240D01*
X123983515Y-83974831D01*
X124373461Y-83585564D01*
X124584759Y-83076702D01*
X124584761Y-83074285D01*
X126814760Y-83074285D01*
X127025169Y-83583515D01*
X127414436Y-83973461D01*
X127923298Y-84184759D01*
X128474285Y-84185240D01*
X128983515Y-83974831D01*
X129373461Y-83585564D01*
X129584759Y-83076702D01*
X129585240Y-82525715D01*
X129533296Y-82400000D01*
X134190000Y-82400000D01*
X134266882Y-82786510D01*
X134485822Y-83114178D01*
X135885822Y-84514178D01*
X136213490Y-84733118D01*
X136600000Y-84810000D01*
X144000000Y-84810000D01*
X144386510Y-84733118D01*
X144714178Y-84514178D01*
X145714178Y-83514178D01*
X145933118Y-83186510D01*
X146010001Y-82800000D01*
X146010000Y-82799995D01*
X146010000Y-82200005D01*
X146010001Y-82200000D01*
X145933118Y-81813490D01*
X145714178Y-81485822D01*
X144714178Y-80485822D01*
X144386510Y-80266882D01*
X144000000Y-80190000D01*
X143613490Y-80266882D01*
X143285822Y-80485822D01*
X143066882Y-80813490D01*
X142990000Y-81200000D01*
X143066882Y-81586510D01*
X143285822Y-81914178D01*
X143871644Y-82500000D01*
X143581644Y-82790000D01*
X137018356Y-82790000D01*
X135914178Y-81685822D01*
X135586510Y-81466882D01*
X135200000Y-81390000D01*
X134813490Y-81466882D01*
X134485822Y-81685822D01*
X134266882Y-82013490D01*
X134190000Y-82400000D01*
X129533296Y-82400000D01*
X129374831Y-82016485D01*
X128985564Y-81626539D01*
X128476702Y-81415241D01*
X127925715Y-81414760D01*
X127416485Y-81625169D01*
X127026539Y-82014436D01*
X126815241Y-82523298D01*
X126814760Y-83074285D01*
X124584761Y-83074285D01*
X124585240Y-82525715D01*
X124374831Y-82016485D01*
X123985564Y-81626539D01*
X123476702Y-81415241D01*
X122925715Y-81414760D01*
X122416485Y-81625169D01*
X122026539Y-82014436D01*
X121815241Y-82523298D01*
X121814760Y-83074285D01*
X103085000Y-83074285D01*
X103085000Y-78953331D01*
X118307273Y-78953331D01*
X118533236Y-79422663D01*
X118921604Y-79769797D01*
X119266671Y-79912716D01*
X119473000Y-79789374D01*
X119473000Y-78747000D01*
X119727000Y-78747000D01*
X119727000Y-79789374D01*
X119933329Y-79912716D01*
X120278396Y-79769797D01*
X120666764Y-79422663D01*
X120892727Y-78953331D01*
X120770206Y-78747000D01*
X119727000Y-78747000D01*
X119473000Y-78747000D01*
X118429794Y-78747000D01*
X118307273Y-78953331D01*
X103085000Y-78953331D01*
X103085000Y-78684187D01*
X121764752Y-78684187D01*
X121982757Y-79211800D01*
X122386077Y-79615824D01*
X122913309Y-79834750D01*
X123484187Y-79835248D01*
X124011800Y-79617243D01*
X124221663Y-79407745D01*
X124871861Y-79407745D01*
X124945995Y-79653864D01*
X125483223Y-79846965D01*
X126053454Y-79819778D01*
X126454005Y-79653864D01*
X126528139Y-79407745D01*
X125700000Y-78579605D01*
X124871861Y-79407745D01*
X124221663Y-79407745D01*
X124415824Y-79213923D01*
X124443423Y-79147456D01*
X124446136Y-79154005D01*
X124692255Y-79228139D01*
X125520395Y-78400000D01*
X125879605Y-78400000D01*
X126707745Y-79228139D01*
X126780458Y-79206237D01*
X126782757Y-79211800D01*
X127186077Y-79615824D01*
X127713309Y-79834750D01*
X128284187Y-79835248D01*
X128811800Y-79617243D01*
X129021663Y-79407745D01*
X129671861Y-79407745D01*
X129745995Y-79653864D01*
X130283223Y-79846965D01*
X130853454Y-79819778D01*
X131254005Y-79653864D01*
X131328139Y-79407745D01*
X130500000Y-78579605D01*
X129671861Y-79407745D01*
X129021663Y-79407745D01*
X129215824Y-79213923D01*
X129243423Y-79147456D01*
X129246136Y-79154005D01*
X129492255Y-79228139D01*
X130320395Y-78400000D01*
X130679605Y-78400000D01*
X131507745Y-79228139D01*
X131753864Y-79154005D01*
X131946965Y-78616777D01*
X131946166Y-78600000D01*
X141618846Y-78600000D01*
X141720467Y-79110882D01*
X142009858Y-79543988D01*
X142442964Y-79833379D01*
X142953846Y-79935000D01*
X143006154Y-79935000D01*
X143517036Y-79833379D01*
X143950142Y-79543988D01*
X144239533Y-79110882D01*
X144341154Y-78600000D01*
X144239533Y-78089118D01*
X143950142Y-77656012D01*
X143517036Y-77366621D01*
X143006154Y-77265000D01*
X142953846Y-77265000D01*
X142442964Y-77366621D01*
X142009858Y-77656012D01*
X141720467Y-78089118D01*
X141618846Y-78600000D01*
X131946166Y-78600000D01*
X131919778Y-78046546D01*
X131753864Y-77645995D01*
X131507745Y-77571861D01*
X130679605Y-78400000D01*
X130320395Y-78400000D01*
X129492255Y-77571861D01*
X129246136Y-77645995D01*
X129243804Y-77652483D01*
X129217243Y-77588200D01*
X129021640Y-77392255D01*
X129671861Y-77392255D01*
X130500000Y-78220395D01*
X131328139Y-77392255D01*
X131254005Y-77146136D01*
X130716777Y-76953035D01*
X130146546Y-76980222D01*
X129745995Y-77146136D01*
X129671861Y-77392255D01*
X129021640Y-77392255D01*
X128813923Y-77184176D01*
X128286691Y-76965250D01*
X127715813Y-76964752D01*
X127188200Y-77182757D01*
X126784176Y-77586077D01*
X126780926Y-77593904D01*
X126707745Y-77571861D01*
X125879605Y-78400000D01*
X125520395Y-78400000D01*
X124692255Y-77571861D01*
X124446136Y-77645995D01*
X124443804Y-77652483D01*
X124417243Y-77588200D01*
X124221640Y-77392255D01*
X124871861Y-77392255D01*
X125700000Y-78220395D01*
X126528139Y-77392255D01*
X126454005Y-77146136D01*
X125916777Y-76953035D01*
X125346546Y-76980222D01*
X124945995Y-77146136D01*
X124871861Y-77392255D01*
X124221640Y-77392255D01*
X124013923Y-77184176D01*
X123486691Y-76965250D01*
X122915813Y-76964752D01*
X122388200Y-77182757D01*
X121984176Y-77586077D01*
X121765250Y-78113309D01*
X121764752Y-78684187D01*
X103085000Y-78684187D01*
X103085000Y-78286669D01*
X118307273Y-78286669D01*
X118429794Y-78493000D01*
X119473000Y-78493000D01*
X119473000Y-77450626D01*
X119727000Y-77450626D01*
X119727000Y-78493000D01*
X120770206Y-78493000D01*
X120892727Y-78286669D01*
X120666764Y-77817337D01*
X120278396Y-77470203D01*
X119933329Y-77327284D01*
X119727000Y-77450626D01*
X119473000Y-77450626D01*
X119266671Y-77327284D01*
X118921604Y-77470203D01*
X118533236Y-77817337D01*
X118307273Y-78286669D01*
X103085000Y-78286669D01*
X103085000Y-76933089D01*
X104166517Y-76933089D01*
X104295725Y-77225859D01*
X104995883Y-77494071D01*
X105745384Y-77473928D01*
X106344275Y-77225859D01*
X106473483Y-76933089D01*
X105320000Y-75779605D01*
X104166517Y-76933089D01*
X103085000Y-76933089D01*
X103085000Y-75275883D01*
X103425929Y-75275883D01*
X103446072Y-76025384D01*
X103694141Y-76624275D01*
X103986911Y-76753483D01*
X105140395Y-75600000D01*
X105499605Y-75600000D01*
X106653089Y-76753483D01*
X106945859Y-76624275D01*
X107195252Y-75973241D01*
X113594994Y-75973241D01*
X113881314Y-76666191D01*
X114411021Y-77196822D01*
X115103469Y-77484352D01*
X115853241Y-77485006D01*
X116546191Y-77198686D01*
X117076822Y-76668979D01*
X117364352Y-75976531D01*
X117365006Y-75226759D01*
X117115868Y-74623795D01*
X142164716Y-74623795D01*
X142413106Y-75224943D01*
X142872637Y-75685278D01*
X143473352Y-75934716D01*
X144123795Y-75935284D01*
X144724943Y-75686894D01*
X145185278Y-75227363D01*
X145434716Y-74626648D01*
X145435284Y-73976205D01*
X145186894Y-73375057D01*
X144727363Y-72914722D01*
X144126648Y-72665284D01*
X143476205Y-72664716D01*
X142875057Y-72913106D01*
X142414722Y-73372637D01*
X142165284Y-73973352D01*
X142164716Y-74623795D01*
X117115868Y-74623795D01*
X117078686Y-74533809D01*
X116548979Y-74003178D01*
X115856531Y-73715648D01*
X115106759Y-73714994D01*
X114413809Y-74001314D01*
X113883178Y-74531021D01*
X113595648Y-75223469D01*
X113594994Y-75973241D01*
X107195252Y-75973241D01*
X107214071Y-75924117D01*
X107193928Y-75174616D01*
X106945859Y-74575725D01*
X106653089Y-74446517D01*
X105499605Y-75600000D01*
X105140395Y-75600000D01*
X103986911Y-74446517D01*
X103694141Y-74575725D01*
X103425929Y-75275883D01*
X103085000Y-75275883D01*
X103085000Y-74266911D01*
X104166517Y-74266911D01*
X105320000Y-75420395D01*
X106473483Y-74266911D01*
X106344275Y-73974141D01*
X105644117Y-73705929D01*
X104894616Y-73726072D01*
X104295725Y-73974141D01*
X104166517Y-74266911D01*
X103085000Y-74266911D01*
X103085000Y-71264383D01*
X118264769Y-71264383D01*
X118467582Y-71755229D01*
X118842796Y-72131098D01*
X119333287Y-72334768D01*
X119864383Y-72335231D01*
X120355229Y-72132418D01*
X120731098Y-71757204D01*
X120934768Y-71266713D01*
X120935231Y-70735617D01*
X120732418Y-70244771D01*
X120357204Y-69868902D01*
X119866713Y-69665232D01*
X119335617Y-69664769D01*
X118844771Y-69867582D01*
X118468902Y-70242796D01*
X118265232Y-70733287D01*
X118264769Y-71264383D01*
X103085000Y-71264383D01*
X103085000Y-68185000D01*
X121527675Y-68185000D01*
X121448559Y-68235910D01*
M02*
