G04 #@! TF.FileFunction,Legend,Top*
%FSLAX46Y46*%
G04 Gerber Fmt 4.6, Leading zero omitted, Abs format (unit mm)*
G04 Created by KiCad (PCBNEW 4.0.4-stable) date 09/13/19 14:49:35*
%MOMM*%
%LPD*%
G01*
G04 APERTURE LIST*
%ADD10C,0.150000*%
%ADD11C,0.250000*%
%ADD12C,0.125000*%
%ADD13C,0.300000*%
%ADD14C,0.200000*%
%ADD15C,0.100000*%
%ADD16C,0.120000*%
G04 APERTURE END LIST*
D10*
D11*
X145452381Y-106842857D02*
X144452381Y-106842857D01*
X144452381Y-106604762D01*
X144500000Y-106461904D01*
X144595238Y-106366666D01*
X144690476Y-106319047D01*
X144880952Y-106271428D01*
X145023810Y-106271428D01*
X145214286Y-106319047D01*
X145309524Y-106366666D01*
X145404762Y-106461904D01*
X145452381Y-106604762D01*
X145452381Y-106842857D01*
X145404762Y-105890476D02*
X145452381Y-105747619D01*
X145452381Y-105509523D01*
X145404762Y-105414285D01*
X145357143Y-105366666D01*
X145261905Y-105319047D01*
X145166667Y-105319047D01*
X145071429Y-105366666D01*
X145023810Y-105414285D01*
X144976190Y-105509523D01*
X144928571Y-105700000D01*
X144880952Y-105795238D01*
X144833333Y-105842857D01*
X144738095Y-105890476D01*
X144642857Y-105890476D01*
X144547619Y-105842857D01*
X144500000Y-105795238D01*
X144452381Y-105700000D01*
X144452381Y-105461904D01*
X144500000Y-105319047D01*
X145452381Y-104366666D02*
X145452381Y-104938095D01*
X145452381Y-104652381D02*
X144452381Y-104652381D01*
X144595238Y-104747619D01*
X144690476Y-104842857D01*
X144738095Y-104938095D01*
X144452381Y-104033333D02*
X144452381Y-103414285D01*
X144833333Y-103747619D01*
X144833333Y-103604761D01*
X144880952Y-103509523D01*
X144928571Y-103461904D01*
X145023810Y-103414285D01*
X145261905Y-103414285D01*
X145357143Y-103461904D01*
X145404762Y-103509523D01*
X145452381Y-103604761D01*
X145452381Y-103890476D01*
X145404762Y-103985714D01*
X145357143Y-104033333D01*
X144452381Y-103080952D02*
X144452381Y-102461904D01*
X144833333Y-102795238D01*
X144833333Y-102652380D01*
X144880952Y-102557142D01*
X144928571Y-102509523D01*
X145023810Y-102461904D01*
X145261905Y-102461904D01*
X145357143Y-102509523D01*
X145404762Y-102557142D01*
X145452381Y-102652380D01*
X145452381Y-102938095D01*
X145404762Y-103033333D01*
X145357143Y-103080952D01*
X144452381Y-102128571D02*
X144452381Y-101461904D01*
X145452381Y-101890476D01*
X129171428Y-91766667D02*
X129647619Y-91766667D01*
X129076190Y-92052381D02*
X129409523Y-91052381D01*
X129742857Y-92052381D01*
X129933333Y-91385714D02*
X130314285Y-91385714D01*
X130076190Y-91052381D02*
X130076190Y-91909524D01*
X130123809Y-92004762D01*
X130219047Y-92052381D01*
X130314285Y-92052381D01*
X130647619Y-92052381D02*
X130647619Y-91052381D01*
X130980953Y-91766667D01*
X131314286Y-91052381D01*
X131314286Y-92052381D01*
X132171429Y-92004762D02*
X132076191Y-92052381D01*
X131885714Y-92052381D01*
X131790476Y-92004762D01*
X131742857Y-91909524D01*
X131742857Y-91528571D01*
X131790476Y-91433333D01*
X131885714Y-91385714D01*
X132076191Y-91385714D01*
X132171429Y-91433333D01*
X132219048Y-91528571D01*
X132219048Y-91623810D01*
X131742857Y-91719048D01*
X133076191Y-91385714D02*
X133076191Y-92195238D01*
X133028572Y-92290476D01*
X132980953Y-92338095D01*
X132885714Y-92385714D01*
X132742857Y-92385714D01*
X132647619Y-92338095D01*
X133076191Y-92004762D02*
X132980953Y-92052381D01*
X132790476Y-92052381D01*
X132695238Y-92004762D01*
X132647619Y-91957143D01*
X132600000Y-91861905D01*
X132600000Y-91576190D01*
X132647619Y-91480952D01*
X132695238Y-91433333D01*
X132790476Y-91385714D01*
X132980953Y-91385714D01*
X133076191Y-91433333D01*
X133980953Y-92052381D02*
X133980953Y-91528571D01*
X133933334Y-91433333D01*
X133838096Y-91385714D01*
X133647619Y-91385714D01*
X133552381Y-91433333D01*
X133980953Y-92004762D02*
X133885715Y-92052381D01*
X133647619Y-92052381D01*
X133552381Y-92004762D01*
X133504762Y-91909524D01*
X133504762Y-91814286D01*
X133552381Y-91719048D01*
X133647619Y-91671429D01*
X133885715Y-91671429D01*
X133980953Y-91623810D01*
X107204762Y-97738096D02*
X107252381Y-97595239D01*
X107252381Y-97357143D01*
X107204762Y-97261905D01*
X107157143Y-97214286D01*
X107061905Y-97166667D01*
X106966667Y-97166667D01*
X106871429Y-97214286D01*
X106823810Y-97261905D01*
X106776190Y-97357143D01*
X106728571Y-97547620D01*
X106680952Y-97642858D01*
X106633333Y-97690477D01*
X106538095Y-97738096D01*
X106442857Y-97738096D01*
X106347619Y-97690477D01*
X106300000Y-97642858D01*
X106252381Y-97547620D01*
X106252381Y-97309524D01*
X106300000Y-97166667D01*
X106252381Y-96547620D02*
X106252381Y-96357143D01*
X106300000Y-96261905D01*
X106395238Y-96166667D01*
X106585714Y-96119048D01*
X106919048Y-96119048D01*
X107109524Y-96166667D01*
X107204762Y-96261905D01*
X107252381Y-96357143D01*
X107252381Y-96547620D01*
X107204762Y-96642858D01*
X107109524Y-96738096D01*
X106919048Y-96785715D01*
X106585714Y-96785715D01*
X106395238Y-96738096D01*
X106300000Y-96642858D01*
X106252381Y-96547620D01*
X107252381Y-95214286D02*
X107252381Y-95690477D01*
X106252381Y-95690477D01*
X107252381Y-94880953D02*
X106252381Y-94880953D01*
X106252381Y-94642858D01*
X106300000Y-94500000D01*
X106395238Y-94404762D01*
X106490476Y-94357143D01*
X106680952Y-94309524D01*
X106823810Y-94309524D01*
X107014286Y-94357143D01*
X107109524Y-94404762D01*
X107204762Y-94500000D01*
X107252381Y-94642858D01*
X107252381Y-94880953D01*
X106728571Y-93880953D02*
X106728571Y-93547619D01*
X107252381Y-93404762D02*
X107252381Y-93880953D01*
X106252381Y-93880953D01*
X106252381Y-93404762D01*
X107252381Y-92404762D02*
X106776190Y-92738096D01*
X107252381Y-92976191D02*
X106252381Y-92976191D01*
X106252381Y-92595238D01*
X106300000Y-92500000D01*
X106347619Y-92452381D01*
X106442857Y-92404762D01*
X106585714Y-92404762D01*
X106680952Y-92452381D01*
X106728571Y-92500000D01*
X106776190Y-92595238D01*
X106776190Y-92976191D01*
X106252381Y-91023810D02*
X106252381Y-90833333D01*
X106300000Y-90738095D01*
X106395238Y-90642857D01*
X106585714Y-90595238D01*
X106919048Y-90595238D01*
X107109524Y-90642857D01*
X107204762Y-90738095D01*
X107252381Y-90833333D01*
X107252381Y-91023810D01*
X107204762Y-91119048D01*
X107109524Y-91214286D01*
X106919048Y-91261905D01*
X106585714Y-91261905D01*
X106395238Y-91214286D01*
X106300000Y-91119048D01*
X106252381Y-91023810D01*
X107252381Y-90166667D02*
X106252381Y-90166667D01*
X107252381Y-89595238D01*
X106252381Y-89595238D01*
X107252381Y-87785714D02*
X106776190Y-88119048D01*
X107252381Y-88357143D02*
X106252381Y-88357143D01*
X106252381Y-87976190D01*
X106300000Y-87880952D01*
X106347619Y-87833333D01*
X106442857Y-87785714D01*
X106585714Y-87785714D01*
X106680952Y-87833333D01*
X106728571Y-87880952D01*
X106776190Y-87976190D01*
X106776190Y-88357143D01*
X106728571Y-87357143D02*
X106728571Y-87023809D01*
X107252381Y-86880952D02*
X107252381Y-87357143D01*
X106252381Y-87357143D01*
X106252381Y-86880952D01*
X106252381Y-86595238D02*
X107252381Y-86261905D01*
X106252381Y-85928571D01*
X106728571Y-85595238D02*
X106728571Y-85261904D01*
X107252381Y-85119047D02*
X107252381Y-85595238D01*
X106252381Y-85595238D01*
X106252381Y-85119047D01*
X107252381Y-84119047D02*
X106776190Y-84452381D01*
X107252381Y-84690476D02*
X106252381Y-84690476D01*
X106252381Y-84309523D01*
X106300000Y-84214285D01*
X106347619Y-84166666D01*
X106442857Y-84119047D01*
X106585714Y-84119047D01*
X106680952Y-84166666D01*
X106728571Y-84214285D01*
X106776190Y-84309523D01*
X106776190Y-84690476D01*
X107204762Y-83738095D02*
X107252381Y-83595238D01*
X107252381Y-83357142D01*
X107204762Y-83261904D01*
X107157143Y-83214285D01*
X107061905Y-83166666D01*
X106966667Y-83166666D01*
X106871429Y-83214285D01*
X106823810Y-83261904D01*
X106776190Y-83357142D01*
X106728571Y-83547619D01*
X106680952Y-83642857D01*
X106633333Y-83690476D01*
X106538095Y-83738095D01*
X106442857Y-83738095D01*
X106347619Y-83690476D01*
X106300000Y-83642857D01*
X106252381Y-83547619D01*
X106252381Y-83309523D01*
X106300000Y-83166666D01*
X106728571Y-82738095D02*
X106728571Y-82404761D01*
X107252381Y-82261904D02*
X107252381Y-82738095D01*
X106252381Y-82738095D01*
X106252381Y-82261904D01*
D12*
X119540476Y-75026190D02*
X119254762Y-75026190D01*
X119397619Y-75026190D02*
X119397619Y-74526190D01*
X119350000Y-74597619D01*
X119302381Y-74645238D01*
X119254762Y-74669048D01*
X119754762Y-75026190D02*
X119754762Y-74526190D01*
X119802381Y-74835714D02*
X119945238Y-75026190D01*
X119945238Y-74692857D02*
X119754762Y-74883333D01*
X109380953Y-90773810D02*
X109404763Y-90750000D01*
X109452382Y-90726190D01*
X109571429Y-90726190D01*
X109619048Y-90750000D01*
X109642858Y-90773810D01*
X109666667Y-90821429D01*
X109666667Y-90869048D01*
X109642858Y-90940476D01*
X109357144Y-91226190D01*
X109666667Y-91226190D01*
X109857143Y-90773810D02*
X109880953Y-90750000D01*
X109928572Y-90726190D01*
X110047619Y-90726190D01*
X110095238Y-90750000D01*
X110119048Y-90773810D01*
X110142857Y-90821429D01*
X110142857Y-90869048D01*
X110119048Y-90940476D01*
X109833334Y-91226190D01*
X110142857Y-91226190D01*
X110452381Y-90726190D02*
X110500000Y-90726190D01*
X110547619Y-90750000D01*
X110571428Y-90773810D01*
X110595238Y-90821429D01*
X110619047Y-90916667D01*
X110619047Y-91035714D01*
X110595238Y-91130952D01*
X110571428Y-91178571D01*
X110547619Y-91202381D01*
X110500000Y-91226190D01*
X110452381Y-91226190D01*
X110404762Y-91202381D01*
X110380952Y-91178571D01*
X110357143Y-91130952D01*
X110333333Y-91035714D01*
X110333333Y-90916667D01*
X110357143Y-90821429D01*
X110380952Y-90773810D01*
X110404762Y-90750000D01*
X110452381Y-90726190D01*
D11*
X112361905Y-84347619D02*
X112409524Y-84300000D01*
X112504762Y-84252381D01*
X112742858Y-84252381D01*
X112838096Y-84300000D01*
X112885715Y-84347619D01*
X112933334Y-84442857D01*
X112933334Y-84538095D01*
X112885715Y-84680952D01*
X112314286Y-85252381D01*
X112933334Y-85252381D01*
X113314286Y-84347619D02*
X113361905Y-84300000D01*
X113457143Y-84252381D01*
X113695239Y-84252381D01*
X113790477Y-84300000D01*
X113838096Y-84347619D01*
X113885715Y-84442857D01*
X113885715Y-84538095D01*
X113838096Y-84680952D01*
X113266667Y-85252381D01*
X113885715Y-85252381D01*
X114504762Y-84252381D02*
X114600001Y-84252381D01*
X114695239Y-84300000D01*
X114742858Y-84347619D01*
X114790477Y-84442857D01*
X114838096Y-84633333D01*
X114838096Y-84871429D01*
X114790477Y-85061905D01*
X114742858Y-85157143D01*
X114695239Y-85204762D01*
X114600001Y-85252381D01*
X114504762Y-85252381D01*
X114409524Y-85204762D01*
X114361905Y-85157143D01*
X114314286Y-85061905D01*
X114266667Y-84871429D01*
X114266667Y-84633333D01*
X114314286Y-84442857D01*
X114361905Y-84347619D01*
X114409524Y-84300000D01*
X114504762Y-84252381D01*
X146204762Y-79052381D02*
X145633333Y-79052381D01*
X145919047Y-79052381D02*
X145919047Y-78052381D01*
X145823809Y-78195238D01*
X145728571Y-78290476D01*
X145633333Y-78338095D01*
X146823809Y-78052381D02*
X146919048Y-78052381D01*
X147014286Y-78100000D01*
X147061905Y-78147619D01*
X147109524Y-78242857D01*
X147157143Y-78433333D01*
X147157143Y-78671429D01*
X147109524Y-78861905D01*
X147061905Y-78957143D01*
X147014286Y-79004762D01*
X146919048Y-79052381D01*
X146823809Y-79052381D01*
X146728571Y-79004762D01*
X146680952Y-78957143D01*
X146633333Y-78861905D01*
X146585714Y-78671429D01*
X146585714Y-78433333D01*
X146633333Y-78242857D01*
X146680952Y-78147619D01*
X146728571Y-78100000D01*
X146823809Y-78052381D01*
X147585714Y-79052381D02*
X147585714Y-78052381D01*
X147680952Y-78671429D02*
X147966667Y-79052381D01*
X147966667Y-78385714D02*
X147585714Y-78766667D01*
D13*
X136832143Y-75500000D02*
X136832143Y-74357143D01*
X136403571Y-73642857D02*
X136832143Y-72500000D01*
X137260714Y-73642857D01*
X138953571Y-74357143D02*
X139382143Y-75500000D01*
X139810714Y-74357143D01*
X139382143Y-73642857D02*
X139382143Y-72500000D01*
D12*
X139316667Y-71626190D02*
X139150000Y-71388095D01*
X139030953Y-71626190D02*
X139030953Y-71126190D01*
X139221429Y-71126190D01*
X139269048Y-71150000D01*
X139292857Y-71173810D01*
X139316667Y-71221429D01*
X139316667Y-71292857D01*
X139292857Y-71340476D01*
X139269048Y-71364286D01*
X139221429Y-71388095D01*
X139030953Y-71388095D01*
X139483334Y-71126190D02*
X139816667Y-71626190D01*
X139816667Y-71126190D02*
X139483334Y-71626190D01*
X136219048Y-71126190D02*
X136504762Y-71126190D01*
X136361905Y-71626190D02*
X136361905Y-71126190D01*
X136623810Y-71126190D02*
X136957143Y-71626190D01*
X136957143Y-71126190D02*
X136623810Y-71626190D01*
X134104763Y-71126190D02*
X133866668Y-71126190D01*
X133842858Y-71364286D01*
X133866668Y-71340476D01*
X133914287Y-71316667D01*
X134033334Y-71316667D01*
X134080953Y-71340476D01*
X134104763Y-71364286D01*
X134128572Y-71411905D01*
X134128572Y-71530952D01*
X134104763Y-71578571D01*
X134080953Y-71602381D01*
X134033334Y-71626190D01*
X133914287Y-71626190D01*
X133866668Y-71602381D01*
X133842858Y-71578571D01*
X134271429Y-71126190D02*
X134438096Y-71626190D01*
X134604762Y-71126190D01*
X131419047Y-71150000D02*
X131371428Y-71126190D01*
X131300000Y-71126190D01*
X131228571Y-71150000D01*
X131180952Y-71197619D01*
X131157143Y-71245238D01*
X131133333Y-71340476D01*
X131133333Y-71411905D01*
X131157143Y-71507143D01*
X131180952Y-71554762D01*
X131228571Y-71602381D01*
X131300000Y-71626190D01*
X131347619Y-71626190D01*
X131419047Y-71602381D01*
X131442857Y-71578571D01*
X131442857Y-71411905D01*
X131347619Y-71411905D01*
X131657143Y-71626190D02*
X131657143Y-71126190D01*
X131942857Y-71626190D01*
X131942857Y-71126190D01*
X132180953Y-71626190D02*
X132180953Y-71126190D01*
X132300000Y-71126190D01*
X132371429Y-71150000D01*
X132419048Y-71197619D01*
X132442857Y-71245238D01*
X132466667Y-71340476D01*
X132466667Y-71411905D01*
X132442857Y-71507143D01*
X132419048Y-71554762D01*
X132371429Y-71602381D01*
X132300000Y-71626190D01*
X132180953Y-71626190D01*
X106726190Y-107928571D02*
X107226190Y-107761904D01*
X106726190Y-107595238D01*
X106964286Y-107261905D02*
X106988095Y-107190476D01*
X107011905Y-107166667D01*
X107059524Y-107142857D01*
X107130952Y-107142857D01*
X107178571Y-107166667D01*
X107202381Y-107190476D01*
X107226190Y-107238095D01*
X107226190Y-107428571D01*
X106726190Y-107428571D01*
X106726190Y-107261905D01*
X106750000Y-107214286D01*
X106773810Y-107190476D01*
X106821429Y-107166667D01*
X106869048Y-107166667D01*
X106916667Y-107190476D01*
X106940476Y-107214286D01*
X106964286Y-107261905D01*
X106964286Y-107428571D01*
X107226190Y-106714286D02*
X106964286Y-106714286D01*
X106916667Y-106738095D01*
X106892857Y-106785714D01*
X106892857Y-106880952D01*
X106916667Y-106928571D01*
X107202381Y-106714286D02*
X107226190Y-106761905D01*
X107226190Y-106880952D01*
X107202381Y-106928571D01*
X107154762Y-106952381D01*
X107107143Y-106952381D01*
X107059524Y-106928571D01*
X107035714Y-106880952D01*
X107035714Y-106761905D01*
X107011905Y-106714286D01*
X106892857Y-106547619D02*
X106892857Y-106357143D01*
X106726190Y-106476190D02*
X107154762Y-106476190D01*
X107202381Y-106452381D01*
X107226190Y-106404762D01*
X107226190Y-106357143D01*
X106892857Y-106261905D02*
X106892857Y-106071429D01*
X106726190Y-106190476D02*
X107154762Y-106190476D01*
X107202381Y-106166667D01*
X107226190Y-106119048D01*
X107226190Y-106071429D01*
D11*
X106652381Y-104590476D02*
X106652381Y-105066667D01*
X107128571Y-105114286D01*
X107080952Y-105066667D01*
X107033333Y-104971429D01*
X107033333Y-104733333D01*
X107080952Y-104638095D01*
X107128571Y-104590476D01*
X107223810Y-104542857D01*
X107461905Y-104542857D01*
X107557143Y-104590476D01*
X107604762Y-104638095D01*
X107652381Y-104733333D01*
X107652381Y-104971429D01*
X107604762Y-105066667D01*
X107557143Y-105114286D01*
X106652381Y-104257143D02*
X107652381Y-103923810D01*
X106652381Y-103590476D01*
D12*
X106750000Y-102180953D02*
X106726190Y-102228572D01*
X106726190Y-102300000D01*
X106750000Y-102371429D01*
X106797619Y-102419048D01*
X106845238Y-102442857D01*
X106940476Y-102466667D01*
X107011905Y-102466667D01*
X107107143Y-102442857D01*
X107154762Y-102419048D01*
X107202381Y-102371429D01*
X107226190Y-102300000D01*
X107226190Y-102252381D01*
X107202381Y-102180953D01*
X107178571Y-102157143D01*
X107011905Y-102157143D01*
X107011905Y-102252381D01*
X107226190Y-101942857D02*
X106726190Y-101942857D01*
X107226190Y-101657143D01*
X106726190Y-101657143D01*
X107226190Y-101419047D02*
X106726190Y-101419047D01*
X106726190Y-101300000D01*
X106750000Y-101228571D01*
X106797619Y-101180952D01*
X106845238Y-101157143D01*
X106940476Y-101133333D01*
X107011905Y-101133333D01*
X107107143Y-101157143D01*
X107154762Y-101180952D01*
X107202381Y-101228571D01*
X107226190Y-101300000D01*
X107226190Y-101419047D01*
X108088096Y-107326190D02*
X108254763Y-107826190D01*
X108421429Y-107326190D01*
X108588096Y-107826190D02*
X108588096Y-107492857D01*
X108588096Y-107326190D02*
X108564286Y-107350000D01*
X108588096Y-107373810D01*
X108611905Y-107350000D01*
X108588096Y-107326190D01*
X108588096Y-107373810D01*
X108826191Y-107492857D02*
X108826191Y-107826190D01*
X108826191Y-107540476D02*
X108850000Y-107516667D01*
X108897619Y-107492857D01*
X108969048Y-107492857D01*
X109016667Y-107516667D01*
X109040476Y-107564286D01*
X109040476Y-107826190D01*
D11*
X125433333Y-124747619D02*
X125480952Y-124700000D01*
X125576190Y-124652381D01*
X125814286Y-124652381D01*
X125909524Y-124700000D01*
X125957143Y-124747619D01*
X126004762Y-124842857D01*
X126004762Y-124938095D01*
X125957143Y-125080952D01*
X125385714Y-125652381D01*
X126004762Y-125652381D01*
X126433333Y-125652381D02*
X126433333Y-124652381D01*
X126528571Y-125271429D02*
X126814286Y-125652381D01*
X126814286Y-124985714D02*
X126433333Y-125366667D01*
X127766667Y-125652381D02*
X127195238Y-125652381D01*
X127480952Y-125652381D02*
X127480952Y-124652381D01*
X127385714Y-124795238D01*
X127290476Y-124890476D01*
X127195238Y-124938095D01*
X125804762Y-121452381D02*
X125233333Y-121452381D01*
X125519047Y-121452381D02*
X125519047Y-120452381D01*
X125423809Y-120595238D01*
X125328571Y-120690476D01*
X125233333Y-120738095D01*
X126423809Y-120452381D02*
X126519048Y-120452381D01*
X126614286Y-120500000D01*
X126661905Y-120547619D01*
X126709524Y-120642857D01*
X126757143Y-120833333D01*
X126757143Y-121071429D01*
X126709524Y-121261905D01*
X126661905Y-121357143D01*
X126614286Y-121404762D01*
X126519048Y-121452381D01*
X126423809Y-121452381D01*
X126328571Y-121404762D01*
X126280952Y-121357143D01*
X126233333Y-121261905D01*
X126185714Y-121071429D01*
X126185714Y-120833333D01*
X126233333Y-120642857D01*
X126280952Y-120547619D01*
X126328571Y-120500000D01*
X126423809Y-120452381D01*
X127185714Y-121452381D02*
X127185714Y-120452381D01*
X127280952Y-121071429D02*
X127566667Y-121452381D01*
X127566667Y-120785714D02*
X127185714Y-121166667D01*
D12*
X125433333Y-117347619D02*
X125480952Y-117300000D01*
X125576190Y-117252381D01*
X125814286Y-117252381D01*
X125909524Y-117300000D01*
X125957143Y-117347619D01*
X126004762Y-117442857D01*
X126004762Y-117538095D01*
X125957143Y-117680952D01*
X125385714Y-118252381D01*
X126004762Y-118252381D01*
X126433333Y-118252381D02*
X126433333Y-117252381D01*
X126528571Y-117871429D02*
X126814286Y-118252381D01*
X126814286Y-117585714D02*
X126433333Y-117966667D01*
X127766667Y-118252381D02*
X127195238Y-118252381D01*
X127480952Y-118252381D02*
X127480952Y-117252381D01*
X127385714Y-117395238D01*
X127290476Y-117490476D01*
X127195238Y-117538095D01*
X146016667Y-121973810D02*
X146040477Y-121950000D01*
X146088096Y-121926190D01*
X146207143Y-121926190D01*
X146254762Y-121950000D01*
X146278572Y-121973810D01*
X146302381Y-122021429D01*
X146302381Y-122069048D01*
X146278572Y-122140476D01*
X145992858Y-122426190D01*
X146302381Y-122426190D01*
X146516667Y-122426190D02*
X146516667Y-121926190D01*
X146564286Y-122235714D02*
X146707143Y-122426190D01*
X146707143Y-122092857D02*
X146516667Y-122283333D01*
X147183333Y-122426190D02*
X146897619Y-122426190D01*
X147040476Y-122426190D02*
X147040476Y-121926190D01*
X146992857Y-121997619D01*
X146945238Y-122045238D01*
X146897619Y-122069048D01*
X143016667Y-121973810D02*
X143040477Y-121950000D01*
X143088096Y-121926190D01*
X143207143Y-121926190D01*
X143254762Y-121950000D01*
X143278572Y-121973810D01*
X143302381Y-122021429D01*
X143302381Y-122069048D01*
X143278572Y-122140476D01*
X142992858Y-122426190D01*
X143302381Y-122426190D01*
X143516667Y-122426190D02*
X143516667Y-121926190D01*
X143564286Y-122235714D02*
X143707143Y-122426190D01*
X143707143Y-122092857D02*
X143516667Y-122283333D01*
X144183333Y-122426190D02*
X143897619Y-122426190D01*
X144040476Y-122426190D02*
X144040476Y-121926190D01*
X143992857Y-121997619D01*
X143945238Y-122045238D01*
X143897619Y-122069048D01*
X140016667Y-121973810D02*
X140040477Y-121950000D01*
X140088096Y-121926190D01*
X140207143Y-121926190D01*
X140254762Y-121950000D01*
X140278572Y-121973810D01*
X140302381Y-122021429D01*
X140302381Y-122069048D01*
X140278572Y-122140476D01*
X139992858Y-122426190D01*
X140302381Y-122426190D01*
X140516667Y-122426190D02*
X140516667Y-121926190D01*
X140564286Y-122235714D02*
X140707143Y-122426190D01*
X140707143Y-122092857D02*
X140516667Y-122283333D01*
X141183333Y-122426190D02*
X140897619Y-122426190D01*
X141040476Y-122426190D02*
X141040476Y-121926190D01*
X140992857Y-121997619D01*
X140945238Y-122045238D01*
X140897619Y-122069048D01*
X136216667Y-121973810D02*
X136240477Y-121950000D01*
X136288096Y-121926190D01*
X136407143Y-121926190D01*
X136454762Y-121950000D01*
X136478572Y-121973810D01*
X136502381Y-122021429D01*
X136502381Y-122069048D01*
X136478572Y-122140476D01*
X136192858Y-122426190D01*
X136502381Y-122426190D01*
X136716667Y-122426190D02*
X136716667Y-121926190D01*
X136764286Y-122235714D02*
X136907143Y-122426190D01*
X136907143Y-122092857D02*
X136716667Y-122283333D01*
X137383333Y-122426190D02*
X137097619Y-122426190D01*
X137240476Y-122426190D02*
X137240476Y-121926190D01*
X137192857Y-121997619D01*
X137145238Y-122045238D01*
X137097619Y-122069048D01*
X115619048Y-100407143D02*
X115690477Y-100478571D01*
X115809524Y-100478571D01*
X115857143Y-100407143D01*
X115880953Y-100335714D01*
X115904762Y-100192857D01*
X115904762Y-100050000D01*
X115880953Y-99907143D01*
X115857143Y-99835714D01*
X115809524Y-99764286D01*
X115714286Y-99692857D01*
X115666667Y-99621429D01*
X115642858Y-99550000D01*
X115619048Y-99407143D01*
X115619048Y-99264286D01*
X115642858Y-99121429D01*
X115666667Y-99050000D01*
X115714286Y-98978571D01*
X115833334Y-98978571D01*
X115904762Y-99050000D01*
X116095238Y-100407143D02*
X116166667Y-100478571D01*
X116285714Y-100478571D01*
X116333333Y-100407143D01*
X116357143Y-100335714D01*
X116380952Y-100192857D01*
X116380952Y-100050000D01*
X116357143Y-99907143D01*
X116333333Y-99835714D01*
X116285714Y-99764286D01*
X116190476Y-99692857D01*
X116142857Y-99621429D01*
X116119048Y-99550000D01*
X116095238Y-99407143D01*
X116095238Y-99264286D01*
X116119048Y-99121429D01*
X116142857Y-99050000D01*
X116190476Y-98978571D01*
X116309524Y-98978571D01*
X116380952Y-99050000D01*
X117757143Y-100407143D02*
X117828572Y-100478571D01*
X117947619Y-100478571D01*
X117995238Y-100407143D01*
X118019048Y-100335714D01*
X118042857Y-100192857D01*
X118042857Y-100050000D01*
X118019048Y-99907143D01*
X117995238Y-99835714D01*
X117947619Y-99764286D01*
X117852381Y-99692857D01*
X117804762Y-99621429D01*
X117780953Y-99550000D01*
X117757143Y-99407143D01*
X117757143Y-99264286D01*
X117780953Y-99121429D01*
X117804762Y-99050000D01*
X117852381Y-98978571D01*
X117971429Y-98978571D01*
X118042857Y-99050000D01*
X118542857Y-100335714D02*
X118519047Y-100407143D01*
X118447619Y-100478571D01*
X118400000Y-100478571D01*
X118328571Y-100407143D01*
X118280952Y-100264286D01*
X118257143Y-100121429D01*
X118233333Y-99835714D01*
X118233333Y-99621429D01*
X118257143Y-99335714D01*
X118280952Y-99192857D01*
X118328571Y-99050000D01*
X118400000Y-98978571D01*
X118447619Y-98978571D01*
X118519047Y-99050000D01*
X118542857Y-99121429D01*
X118757143Y-100478571D02*
X118757143Y-98978571D01*
X119042857Y-100478571D02*
X118828571Y-99621429D01*
X119042857Y-98978571D02*
X118757143Y-99835714D01*
X120214286Y-100478571D02*
X120214286Y-98978571D01*
X120380952Y-100050000D01*
X120547619Y-98978571D01*
X120547619Y-100478571D01*
X120880953Y-98978571D02*
X120976191Y-98978571D01*
X121023810Y-99050000D01*
X121071429Y-99192857D01*
X121095238Y-99478571D01*
X121095238Y-99978571D01*
X121071429Y-100264286D01*
X121023810Y-100407143D01*
X120976191Y-100478571D01*
X120880953Y-100478571D01*
X120833334Y-100407143D01*
X120785715Y-100264286D01*
X120761905Y-99978571D01*
X120761905Y-99478571D01*
X120785715Y-99192857D01*
X120833334Y-99050000D01*
X120880953Y-98978571D01*
X121285715Y-100407143D02*
X121357144Y-100478571D01*
X121476191Y-100478571D01*
X121523810Y-100407143D01*
X121547620Y-100335714D01*
X121571429Y-100192857D01*
X121571429Y-100050000D01*
X121547620Y-99907143D01*
X121523810Y-99835714D01*
X121476191Y-99764286D01*
X121380953Y-99692857D01*
X121333334Y-99621429D01*
X121309525Y-99550000D01*
X121285715Y-99407143D01*
X121285715Y-99264286D01*
X121309525Y-99121429D01*
X121333334Y-99050000D01*
X121380953Y-98978571D01*
X121500001Y-98978571D01*
X121571429Y-99050000D01*
X121785715Y-100478571D02*
X121785715Y-98978571D01*
X122814286Y-100478571D02*
X122814286Y-98978571D01*
X122980952Y-100050000D01*
X123147619Y-98978571D01*
X123147619Y-100478571D01*
X123385715Y-100478571D02*
X123385715Y-98978571D01*
X123600000Y-100407143D02*
X123671429Y-100478571D01*
X123790476Y-100478571D01*
X123838095Y-100407143D01*
X123861905Y-100335714D01*
X123885714Y-100192857D01*
X123885714Y-100050000D01*
X123861905Y-99907143D01*
X123838095Y-99835714D01*
X123790476Y-99764286D01*
X123695238Y-99692857D01*
X123647619Y-99621429D01*
X123623810Y-99550000D01*
X123600000Y-99407143D01*
X123600000Y-99264286D01*
X123623810Y-99121429D01*
X123647619Y-99050000D01*
X123695238Y-98978571D01*
X123814286Y-98978571D01*
X123885714Y-99050000D01*
X124195238Y-98978571D02*
X124290476Y-98978571D01*
X124338095Y-99050000D01*
X124385714Y-99192857D01*
X124409523Y-99478571D01*
X124409523Y-99978571D01*
X124385714Y-100264286D01*
X124338095Y-100407143D01*
X124290476Y-100478571D01*
X124195238Y-100478571D01*
X124147619Y-100407143D01*
X124100000Y-100264286D01*
X124076190Y-99978571D01*
X124076190Y-99478571D01*
X124100000Y-99192857D01*
X124147619Y-99050000D01*
X124195238Y-98978571D01*
X125619047Y-99050000D02*
X125571428Y-98978571D01*
X125500000Y-98978571D01*
X125428571Y-99050000D01*
X125380952Y-99192857D01*
X125357143Y-99335714D01*
X125333333Y-99621429D01*
X125333333Y-99835714D01*
X125357143Y-100121429D01*
X125380952Y-100264286D01*
X125428571Y-100407143D01*
X125500000Y-100478571D01*
X125547619Y-100478571D01*
X125619047Y-100407143D01*
X125642857Y-100335714D01*
X125642857Y-99835714D01*
X125547619Y-99835714D01*
X125857143Y-100478571D02*
X125857143Y-98978571D01*
X126142857Y-100478571D01*
X126142857Y-98978571D01*
X126380953Y-100478571D02*
X126380953Y-98978571D01*
X126500000Y-98978571D01*
X126571429Y-99050000D01*
X126619048Y-99192857D01*
X126642857Y-99335714D01*
X126666667Y-99621429D01*
X126666667Y-99835714D01*
X126642857Y-100121429D01*
X126619048Y-100264286D01*
X126571429Y-100407143D01*
X126500000Y-100478571D01*
X126380953Y-100478571D01*
X128326191Y-100478571D02*
X128159524Y-99764286D01*
X128040477Y-100478571D02*
X128040477Y-98978571D01*
X128230953Y-98978571D01*
X128278572Y-99050000D01*
X128302381Y-99121429D01*
X128326191Y-99264286D01*
X128326191Y-99478571D01*
X128302381Y-99621429D01*
X128278572Y-99692857D01*
X128230953Y-99764286D01*
X128040477Y-99764286D01*
X128516667Y-100407143D02*
X128588096Y-100478571D01*
X128707143Y-100478571D01*
X128754762Y-100407143D01*
X128778572Y-100335714D01*
X128802381Y-100192857D01*
X128802381Y-100050000D01*
X128778572Y-99907143D01*
X128754762Y-99835714D01*
X128707143Y-99764286D01*
X128611905Y-99692857D01*
X128564286Y-99621429D01*
X128540477Y-99550000D01*
X128516667Y-99407143D01*
X128516667Y-99264286D01*
X128540477Y-99121429D01*
X128564286Y-99050000D01*
X128611905Y-98978571D01*
X128730953Y-98978571D01*
X128802381Y-99050000D01*
X128945238Y-98978571D02*
X129230952Y-98978571D01*
X129088095Y-100478571D02*
X129088095Y-98978571D01*
X130661906Y-98978571D02*
X130971429Y-98978571D01*
X130804763Y-99550000D01*
X130876191Y-99550000D01*
X130923810Y-99621429D01*
X130947620Y-99692857D01*
X130971429Y-99835714D01*
X130971429Y-100192857D01*
X130947620Y-100335714D01*
X130923810Y-100407143D01*
X130876191Y-100478571D01*
X130733334Y-100478571D01*
X130685715Y-100407143D01*
X130661906Y-100335714D01*
X131185715Y-100335714D02*
X131209524Y-100407143D01*
X131185715Y-100478571D01*
X131161905Y-100407143D01*
X131185715Y-100335714D01*
X131185715Y-100478571D01*
X131376191Y-98978571D02*
X131685714Y-98978571D01*
X131519048Y-99550000D01*
X131590476Y-99550000D01*
X131638095Y-99621429D01*
X131661905Y-99692857D01*
X131685714Y-99835714D01*
X131685714Y-100192857D01*
X131661905Y-100335714D01*
X131638095Y-100407143D01*
X131590476Y-100478571D01*
X131447619Y-100478571D01*
X131400000Y-100407143D01*
X131376191Y-100335714D01*
X131828571Y-98978571D02*
X131995238Y-100478571D01*
X132161904Y-98978571D01*
D13*
X114221430Y-112892857D02*
X114435716Y-112964286D01*
X114507144Y-113035714D01*
X114578573Y-113178571D01*
X114578573Y-113392857D01*
X114507144Y-113535714D01*
X114435716Y-113607143D01*
X114292858Y-113678571D01*
X113721430Y-113678571D01*
X113721430Y-112178571D01*
X114221430Y-112178571D01*
X114364287Y-112250000D01*
X114435716Y-112321429D01*
X114507144Y-112464286D01*
X114507144Y-112607143D01*
X114435716Y-112750000D01*
X114364287Y-112821429D01*
X114221430Y-112892857D01*
X113721430Y-112892857D01*
X115864287Y-113678571D02*
X115864287Y-112892857D01*
X115792858Y-112750000D01*
X115650001Y-112678571D01*
X115364287Y-112678571D01*
X115221430Y-112750000D01*
X115864287Y-113607143D02*
X115721430Y-113678571D01*
X115364287Y-113678571D01*
X115221430Y-113607143D01*
X115150001Y-113464286D01*
X115150001Y-113321429D01*
X115221430Y-113178571D01*
X115364287Y-113107143D01*
X115721430Y-113107143D01*
X115864287Y-113035714D01*
X116364287Y-112678571D02*
X116935716Y-112678571D01*
X116578573Y-112178571D02*
X116578573Y-113464286D01*
X116650001Y-113607143D01*
X116792859Y-113678571D01*
X116935716Y-113678571D01*
X117221430Y-112678571D02*
X117792859Y-112678571D01*
X117435716Y-112178571D02*
X117435716Y-113464286D01*
X117507144Y-113607143D01*
X117650002Y-113678571D01*
X117792859Y-113678571D01*
X118864287Y-113607143D02*
X118721430Y-113678571D01*
X118435716Y-113678571D01*
X118292859Y-113607143D01*
X118221430Y-113464286D01*
X118221430Y-112892857D01*
X118292859Y-112750000D01*
X118435716Y-112678571D01*
X118721430Y-112678571D01*
X118864287Y-112750000D01*
X118935716Y-112892857D01*
X118935716Y-113035714D01*
X118221430Y-113178571D01*
X119578573Y-113678571D02*
X119578573Y-112678571D01*
X119578573Y-112964286D02*
X119650001Y-112821429D01*
X119721430Y-112750000D01*
X119864287Y-112678571D01*
X120007144Y-112678571D01*
X120364287Y-112678571D02*
X120721430Y-113678571D01*
X121078572Y-112678571D02*
X120721430Y-113678571D01*
X120578572Y-114035714D01*
X120507144Y-114107143D01*
X120364287Y-114178571D01*
X123578572Y-112250000D02*
X123435715Y-112178571D01*
X123221429Y-112178571D01*
X123007144Y-112250000D01*
X122864286Y-112392857D01*
X122792858Y-112535714D01*
X122721429Y-112821429D01*
X122721429Y-113035714D01*
X122792858Y-113321429D01*
X122864286Y-113464286D01*
X123007144Y-113607143D01*
X123221429Y-113678571D01*
X123364286Y-113678571D01*
X123578572Y-113607143D01*
X123650001Y-113535714D01*
X123650001Y-113035714D01*
X123364286Y-113035714D01*
X124507144Y-113678571D02*
X124364286Y-113607143D01*
X124292858Y-113535714D01*
X124221429Y-113392857D01*
X124221429Y-112964286D01*
X124292858Y-112821429D01*
X124364286Y-112750000D01*
X124507144Y-112678571D01*
X124721429Y-112678571D01*
X124864286Y-112750000D01*
X124935715Y-112821429D01*
X125007144Y-112964286D01*
X125007144Y-113392857D01*
X124935715Y-113535714D01*
X124864286Y-113607143D01*
X124721429Y-113678571D01*
X124507144Y-113678571D01*
X126221429Y-113607143D02*
X126078572Y-113678571D01*
X125792858Y-113678571D01*
X125650001Y-113607143D01*
X125578572Y-113464286D01*
X125578572Y-112892857D01*
X125650001Y-112750000D01*
X125792858Y-112678571D01*
X126078572Y-112678571D01*
X126221429Y-112750000D01*
X126292858Y-112892857D01*
X126292858Y-113035714D01*
X125578572Y-113178571D01*
X126864286Y-113607143D02*
X127007143Y-113678571D01*
X127292858Y-113678571D01*
X127435715Y-113607143D01*
X127507143Y-113464286D01*
X127507143Y-113392857D01*
X127435715Y-113250000D01*
X127292858Y-113178571D01*
X127078572Y-113178571D01*
X126935715Y-113107143D01*
X126864286Y-112964286D01*
X126864286Y-112892857D01*
X126935715Y-112750000D01*
X127078572Y-112678571D01*
X127292858Y-112678571D01*
X127435715Y-112750000D01*
X129935715Y-113678571D02*
X129935715Y-112892857D01*
X129864286Y-112750000D01*
X129721429Y-112678571D01*
X129435715Y-112678571D01*
X129292858Y-112750000D01*
X129935715Y-113607143D02*
X129792858Y-113678571D01*
X129435715Y-113678571D01*
X129292858Y-113607143D01*
X129221429Y-113464286D01*
X129221429Y-113321429D01*
X129292858Y-113178571D01*
X129435715Y-113107143D01*
X129792858Y-113107143D01*
X129935715Y-113035714D01*
X130650001Y-113678571D02*
X130650001Y-112178571D01*
X130650001Y-112750000D02*
X130792858Y-112678571D01*
X131078572Y-112678571D01*
X131221429Y-112750000D01*
X131292858Y-112821429D01*
X131364287Y-112964286D01*
X131364287Y-113392857D01*
X131292858Y-113535714D01*
X131221429Y-113607143D01*
X131078572Y-113678571D01*
X130792858Y-113678571D01*
X130650001Y-113607143D01*
X132221430Y-113678571D02*
X132078572Y-113607143D01*
X132007144Y-113535714D01*
X131935715Y-113392857D01*
X131935715Y-112964286D01*
X132007144Y-112821429D01*
X132078572Y-112750000D01*
X132221430Y-112678571D01*
X132435715Y-112678571D01*
X132578572Y-112750000D01*
X132650001Y-112821429D01*
X132721430Y-112964286D01*
X132721430Y-113392857D01*
X132650001Y-113535714D01*
X132578572Y-113607143D01*
X132435715Y-113678571D01*
X132221430Y-113678571D01*
X133221430Y-112678571D02*
X133578573Y-113678571D01*
X133935715Y-112678571D01*
X135078572Y-113607143D02*
X134935715Y-113678571D01*
X134650001Y-113678571D01*
X134507144Y-113607143D01*
X134435715Y-113464286D01*
X134435715Y-112892857D01*
X134507144Y-112750000D01*
X134650001Y-112678571D01*
X134935715Y-112678571D01*
X135078572Y-112750000D01*
X135150001Y-112892857D01*
X135150001Y-113035714D01*
X134435715Y-113178571D01*
X136935715Y-113678571D02*
X136935715Y-112178571D01*
X137578572Y-113678571D02*
X137578572Y-112892857D01*
X137507143Y-112750000D01*
X137364286Y-112678571D01*
X137150001Y-112678571D01*
X137007143Y-112750000D01*
X136935715Y-112821429D01*
X138864286Y-113607143D02*
X138721429Y-113678571D01*
X138435715Y-113678571D01*
X138292858Y-113607143D01*
X138221429Y-113464286D01*
X138221429Y-112892857D01*
X138292858Y-112750000D01*
X138435715Y-112678571D01*
X138721429Y-112678571D01*
X138864286Y-112750000D01*
X138935715Y-112892857D01*
X138935715Y-113035714D01*
X138221429Y-113178571D01*
X139578572Y-113678571D02*
X139578572Y-112678571D01*
X139578572Y-112964286D02*
X139650000Y-112821429D01*
X139721429Y-112750000D01*
X139864286Y-112678571D01*
X140007143Y-112678571D01*
X141078571Y-113607143D02*
X140935714Y-113678571D01*
X140650000Y-113678571D01*
X140507143Y-113607143D01*
X140435714Y-113464286D01*
X140435714Y-112892857D01*
X140507143Y-112750000D01*
X140650000Y-112678571D01*
X140935714Y-112678571D01*
X141078571Y-112750000D01*
X141150000Y-112892857D01*
X141150000Y-113035714D01*
X140435714Y-113178571D01*
D14*
X103400000Y-129000000D02*
X151400000Y-129000000D01*
X103400000Y-111000000D02*
X103400000Y-129000000D01*
X151400000Y-111000000D02*
X103400000Y-111000000D01*
X151400000Y-129000000D02*
X151400000Y-111000000D01*
D12*
X103738690Y-128185714D02*
X103738690Y-128090476D01*
X103762500Y-128042857D01*
X103810119Y-127995238D01*
X103905357Y-127971429D01*
X104072024Y-127971429D01*
X104167262Y-127995238D01*
X104214881Y-128042857D01*
X104238690Y-128090476D01*
X104238690Y-128185714D01*
X104214881Y-128233333D01*
X104167262Y-128280952D01*
X104072024Y-128304762D01*
X103905357Y-128304762D01*
X103810119Y-128280952D01*
X103762500Y-128233333D01*
X103738690Y-128185714D01*
X103905357Y-127757142D02*
X104405357Y-127757142D01*
X103929167Y-127757142D02*
X103905357Y-127709523D01*
X103905357Y-127614285D01*
X103929167Y-127566666D01*
X103952976Y-127542857D01*
X104000595Y-127519047D01*
X104143452Y-127519047D01*
X104191071Y-127542857D01*
X104214881Y-127566666D01*
X104238690Y-127614285D01*
X104238690Y-127709523D01*
X104214881Y-127757142D01*
X104214881Y-127114285D02*
X104238690Y-127161904D01*
X104238690Y-127257142D01*
X104214881Y-127304761D01*
X104167262Y-127328571D01*
X103976786Y-127328571D01*
X103929167Y-127304761D01*
X103905357Y-127257142D01*
X103905357Y-127161904D01*
X103929167Y-127114285D01*
X103976786Y-127090476D01*
X104024405Y-127090476D01*
X104072024Y-127328571D01*
X103905357Y-126876190D02*
X104238690Y-126876190D01*
X103952976Y-126876190D02*
X103929167Y-126852381D01*
X103905357Y-126804762D01*
X103905357Y-126733333D01*
X103929167Y-126685714D01*
X103976786Y-126661905D01*
X104238690Y-126661905D01*
X104238690Y-126042857D02*
X103738690Y-126042857D01*
X103738690Y-125923810D01*
X103762500Y-125852381D01*
X103810119Y-125804762D01*
X103857738Y-125780953D01*
X103952976Y-125757143D01*
X104024405Y-125757143D01*
X104119643Y-125780953D01*
X104167262Y-125804762D01*
X104214881Y-125852381D01*
X104238690Y-125923810D01*
X104238690Y-126042857D01*
X104214881Y-125352381D02*
X104238690Y-125400000D01*
X104238690Y-125495238D01*
X104214881Y-125542857D01*
X104167262Y-125566667D01*
X103976786Y-125566667D01*
X103929167Y-125542857D01*
X103905357Y-125495238D01*
X103905357Y-125400000D01*
X103929167Y-125352381D01*
X103976786Y-125328572D01*
X104024405Y-125328572D01*
X104072024Y-125566667D01*
X104214881Y-125138096D02*
X104238690Y-125090477D01*
X104238690Y-124995239D01*
X104214881Y-124947620D01*
X104167262Y-124923810D01*
X104143452Y-124923810D01*
X104095833Y-124947620D01*
X104072024Y-124995239D01*
X104072024Y-125066667D01*
X104048214Y-125114286D01*
X104000595Y-125138096D01*
X103976786Y-125138096D01*
X103929167Y-125114286D01*
X103905357Y-125066667D01*
X103905357Y-124995239D01*
X103929167Y-124947620D01*
X104238690Y-124709524D02*
X103905357Y-124709524D01*
X103738690Y-124709524D02*
X103762500Y-124733334D01*
X103786310Y-124709524D01*
X103762500Y-124685715D01*
X103738690Y-124709524D01*
X103786310Y-124709524D01*
X103905357Y-124257144D02*
X104310119Y-124257144D01*
X104357738Y-124280953D01*
X104381548Y-124304763D01*
X104405357Y-124352382D01*
X104405357Y-124423810D01*
X104381548Y-124471429D01*
X104214881Y-124257144D02*
X104238690Y-124304763D01*
X104238690Y-124400001D01*
X104214881Y-124447620D01*
X104191071Y-124471429D01*
X104143452Y-124495239D01*
X104000595Y-124495239D01*
X103952976Y-124471429D01*
X103929167Y-124447620D01*
X103905357Y-124400001D01*
X103905357Y-124304763D01*
X103929167Y-124257144D01*
X103905357Y-124019048D02*
X104238690Y-124019048D01*
X103952976Y-124019048D02*
X103929167Y-123995239D01*
X103905357Y-123947620D01*
X103905357Y-123876191D01*
X103929167Y-123828572D01*
X103976786Y-123804763D01*
X104238690Y-123804763D01*
X103738690Y-123090477D02*
X103738690Y-122995239D01*
X103762500Y-122947620D01*
X103810119Y-122900001D01*
X103905357Y-122876192D01*
X104072024Y-122876192D01*
X104167262Y-122900001D01*
X104214881Y-122947620D01*
X104238690Y-122995239D01*
X104238690Y-123090477D01*
X104214881Y-123138096D01*
X104167262Y-123185715D01*
X104072024Y-123209525D01*
X103905357Y-123209525D01*
X103810119Y-123185715D01*
X103762500Y-123138096D01*
X103738690Y-123090477D01*
X104238690Y-122661905D02*
X103905357Y-122661905D01*
X104000595Y-122661905D02*
X103952976Y-122638096D01*
X103929167Y-122614286D01*
X103905357Y-122566667D01*
X103905357Y-122519048D01*
X104238690Y-122352381D02*
X103905357Y-122352381D01*
X103738690Y-122352381D02*
X103762500Y-122376191D01*
X103786310Y-122352381D01*
X103762500Y-122328572D01*
X103738690Y-122352381D01*
X103786310Y-122352381D01*
X104214881Y-121923810D02*
X104238690Y-121971429D01*
X104238690Y-122066667D01*
X104214881Y-122114286D01*
X104167262Y-122138096D01*
X103976786Y-122138096D01*
X103929167Y-122114286D01*
X103905357Y-122066667D01*
X103905357Y-121971429D01*
X103929167Y-121923810D01*
X103976786Y-121900001D01*
X104024405Y-121900001D01*
X104072024Y-122138096D01*
X103905357Y-121685715D02*
X104238690Y-121685715D01*
X103952976Y-121685715D02*
X103929167Y-121661906D01*
X103905357Y-121614287D01*
X103905357Y-121542858D01*
X103929167Y-121495239D01*
X103976786Y-121471430D01*
X104238690Y-121471430D01*
X103905357Y-121304763D02*
X103905357Y-121114287D01*
X103738690Y-121233334D02*
X104167262Y-121233334D01*
X104214881Y-121209525D01*
X104238690Y-121161906D01*
X104238690Y-121114287D01*
X104214881Y-120757144D02*
X104238690Y-120804763D01*
X104238690Y-120900001D01*
X104214881Y-120947620D01*
X104167262Y-120971430D01*
X103976786Y-120971430D01*
X103929167Y-120947620D01*
X103905357Y-120900001D01*
X103905357Y-120804763D01*
X103929167Y-120757144D01*
X103976786Y-120733335D01*
X104024405Y-120733335D01*
X104072024Y-120971430D01*
X104214881Y-120328573D02*
X104238690Y-120376192D01*
X104238690Y-120471430D01*
X104214881Y-120519049D01*
X104167262Y-120542859D01*
X103976786Y-120542859D01*
X103929167Y-120519049D01*
X103905357Y-120471430D01*
X103905357Y-120376192D01*
X103929167Y-120328573D01*
X103976786Y-120304764D01*
X104024405Y-120304764D01*
X104072024Y-120542859D01*
X104238690Y-120090478D02*
X103905357Y-120090478D01*
X104000595Y-120090478D02*
X103952976Y-120066669D01*
X103929167Y-120042859D01*
X103905357Y-119995240D01*
X103905357Y-119947621D01*
X104238690Y-119780954D02*
X103905357Y-119780954D01*
X103738690Y-119780954D02*
X103762500Y-119804764D01*
X103786310Y-119780954D01*
X103762500Y-119757145D01*
X103738690Y-119780954D01*
X103786310Y-119780954D01*
X103905357Y-119542859D02*
X104238690Y-119542859D01*
X103952976Y-119542859D02*
X103929167Y-119519050D01*
X103905357Y-119471431D01*
X103905357Y-119400002D01*
X103929167Y-119352383D01*
X103976786Y-119328574D01*
X104238690Y-119328574D01*
X103905357Y-118876193D02*
X104310119Y-118876193D01*
X104357738Y-118900002D01*
X104381548Y-118923812D01*
X104405357Y-118971431D01*
X104405357Y-119042859D01*
X104381548Y-119090478D01*
X104214881Y-118876193D02*
X104238690Y-118923812D01*
X104238690Y-119019050D01*
X104214881Y-119066669D01*
X104191071Y-119090478D01*
X104143452Y-119114288D01*
X104000595Y-119114288D01*
X103952976Y-119090478D01*
X103929167Y-119066669D01*
X103905357Y-119019050D01*
X103905357Y-118923812D01*
X103929167Y-118876193D01*
X103738690Y-118328574D02*
X103738690Y-118042860D01*
X104238690Y-118185717D02*
X103738690Y-118185717D01*
X104238690Y-117876193D02*
X103905357Y-117876193D01*
X103738690Y-117876193D02*
X103762500Y-117900003D01*
X103786310Y-117876193D01*
X103762500Y-117852384D01*
X103738690Y-117876193D01*
X103786310Y-117876193D01*
X104238690Y-117638098D02*
X103905357Y-117638098D01*
X103952976Y-117638098D02*
X103929167Y-117614289D01*
X103905357Y-117566670D01*
X103905357Y-117495241D01*
X103929167Y-117447622D01*
X103976786Y-117423813D01*
X104238690Y-117423813D01*
X103976786Y-117423813D02*
X103929167Y-117400003D01*
X103905357Y-117352384D01*
X103905357Y-117280956D01*
X103929167Y-117233336D01*
X103976786Y-117209527D01*
X104238690Y-117209527D01*
X104238690Y-116971431D02*
X103905357Y-116971431D01*
X103738690Y-116971431D02*
X103762500Y-116995241D01*
X103786310Y-116971431D01*
X103762500Y-116947622D01*
X103738690Y-116971431D01*
X103786310Y-116971431D01*
X103905357Y-116733336D02*
X104238690Y-116733336D01*
X103952976Y-116733336D02*
X103929167Y-116709527D01*
X103905357Y-116661908D01*
X103905357Y-116590479D01*
X103929167Y-116542860D01*
X103976786Y-116519051D01*
X104238690Y-116519051D01*
X103905357Y-116066670D02*
X104310119Y-116066670D01*
X104357738Y-116090479D01*
X104381548Y-116114289D01*
X104405357Y-116161908D01*
X104405357Y-116233336D01*
X104381548Y-116280955D01*
X104214881Y-116066670D02*
X104238690Y-116114289D01*
X104238690Y-116209527D01*
X104214881Y-116257146D01*
X104191071Y-116280955D01*
X104143452Y-116304765D01*
X104000595Y-116304765D01*
X103952976Y-116280955D01*
X103929167Y-116257146D01*
X103905357Y-116209527D01*
X103905357Y-116114289D01*
X103929167Y-116066670D01*
X104214881Y-115471432D02*
X104238690Y-115400003D01*
X104238690Y-115280956D01*
X104214881Y-115233337D01*
X104191071Y-115209527D01*
X104143452Y-115185718D01*
X104095833Y-115185718D01*
X104048214Y-115209527D01*
X104024405Y-115233337D01*
X104000595Y-115280956D01*
X103976786Y-115376194D01*
X103952976Y-115423813D01*
X103929167Y-115447622D01*
X103881548Y-115471432D01*
X103833929Y-115471432D01*
X103786310Y-115447622D01*
X103762500Y-115423813D01*
X103738690Y-115376194D01*
X103738690Y-115257146D01*
X103762500Y-115185718D01*
X103905357Y-115019051D02*
X104238690Y-114900004D01*
X103905357Y-114780956D02*
X104238690Y-114900004D01*
X104357738Y-114947623D01*
X104381548Y-114971432D01*
X104405357Y-115019051D01*
X104214881Y-114614290D02*
X104238690Y-114566671D01*
X104238690Y-114471433D01*
X104214881Y-114423814D01*
X104167262Y-114400004D01*
X104143452Y-114400004D01*
X104095833Y-114423814D01*
X104072024Y-114471433D01*
X104072024Y-114542861D01*
X104048214Y-114590480D01*
X104000595Y-114614290D01*
X103976786Y-114614290D01*
X103929167Y-114590480D01*
X103905357Y-114542861D01*
X103905357Y-114471433D01*
X103929167Y-114423814D01*
X103905357Y-114257147D02*
X103905357Y-114066671D01*
X103738690Y-114185718D02*
X104167262Y-114185718D01*
X104214881Y-114161909D01*
X104238690Y-114114290D01*
X104238690Y-114066671D01*
X104214881Y-113709528D02*
X104238690Y-113757147D01*
X104238690Y-113852385D01*
X104214881Y-113900004D01*
X104167262Y-113923814D01*
X103976786Y-113923814D01*
X103929167Y-113900004D01*
X103905357Y-113852385D01*
X103905357Y-113757147D01*
X103929167Y-113709528D01*
X103976786Y-113685719D01*
X104024405Y-113685719D01*
X104072024Y-113923814D01*
X104238690Y-113471433D02*
X103905357Y-113471433D01*
X103952976Y-113471433D02*
X103929167Y-113447624D01*
X103905357Y-113400005D01*
X103905357Y-113328576D01*
X103929167Y-113280957D01*
X103976786Y-113257148D01*
X104238690Y-113257148D01*
X103976786Y-113257148D02*
X103929167Y-113233338D01*
X103905357Y-113185719D01*
X103905357Y-113114291D01*
X103929167Y-113066671D01*
X103976786Y-113042862D01*
X104238690Y-113042862D01*
X104238690Y-112423814D02*
X103738690Y-112423814D01*
X103738690Y-112233338D01*
X103762500Y-112185719D01*
X103786310Y-112161910D01*
X103833929Y-112138100D01*
X103905357Y-112138100D01*
X103952976Y-112161910D01*
X103976786Y-112185719D01*
X104000595Y-112233338D01*
X104000595Y-112423814D01*
X104191071Y-111638100D02*
X104214881Y-111661910D01*
X104238690Y-111733338D01*
X104238690Y-111780957D01*
X104214881Y-111852386D01*
X104167262Y-111900005D01*
X104119643Y-111923814D01*
X104024405Y-111947624D01*
X103952976Y-111947624D01*
X103857738Y-111923814D01*
X103810119Y-111900005D01*
X103762500Y-111852386D01*
X103738690Y-111780957D01*
X103738690Y-111733338D01*
X103762500Y-111661910D01*
X103786310Y-111638100D01*
X103976786Y-111257148D02*
X104000595Y-111185719D01*
X104024405Y-111161910D01*
X104072024Y-111138100D01*
X104143452Y-111138100D01*
X104191071Y-111161910D01*
X104214881Y-111185719D01*
X104238690Y-111233338D01*
X104238690Y-111423814D01*
X103738690Y-111423814D01*
X103738690Y-111257148D01*
X103762500Y-111209529D01*
X103786310Y-111185719D01*
X103833929Y-111161910D01*
X103881548Y-111161910D01*
X103929167Y-111185719D01*
X103952976Y-111209529D01*
X103976786Y-111257148D01*
X103976786Y-111423814D01*
X105113690Y-127995238D02*
X104875595Y-128161905D01*
X105113690Y-128280952D02*
X104613690Y-128280952D01*
X104613690Y-128090476D01*
X104637500Y-128042857D01*
X104661310Y-128019048D01*
X104708929Y-127995238D01*
X104780357Y-127995238D01*
X104827976Y-128019048D01*
X104851786Y-128042857D01*
X104875595Y-128090476D01*
X104875595Y-128280952D01*
X105089881Y-127590476D02*
X105113690Y-127638095D01*
X105113690Y-127733333D01*
X105089881Y-127780952D01*
X105042262Y-127804762D01*
X104851786Y-127804762D01*
X104804167Y-127780952D01*
X104780357Y-127733333D01*
X104780357Y-127638095D01*
X104804167Y-127590476D01*
X104851786Y-127566667D01*
X104899405Y-127566667D01*
X104947024Y-127804762D01*
X104780357Y-127400000D02*
X105113690Y-127280953D01*
X104780357Y-127161905D01*
X104613690Y-126495239D02*
X104613690Y-126447620D01*
X104637500Y-126400001D01*
X104661310Y-126376192D01*
X104708929Y-126352382D01*
X104804167Y-126328573D01*
X104923214Y-126328573D01*
X105018452Y-126352382D01*
X105066071Y-126376192D01*
X105089881Y-126400001D01*
X105113690Y-126447620D01*
X105113690Y-126495239D01*
X105089881Y-126542858D01*
X105066071Y-126566668D01*
X105018452Y-126590477D01*
X104923214Y-126614287D01*
X104804167Y-126614287D01*
X104708929Y-126590477D01*
X104661310Y-126566668D01*
X104637500Y-126542858D01*
X104613690Y-126495239D01*
X105066071Y-126114287D02*
X105089881Y-126090478D01*
X105113690Y-126114287D01*
X105089881Y-126138097D01*
X105066071Y-126114287D01*
X105113690Y-126114287D01*
X105113690Y-125614288D02*
X105113690Y-125900002D01*
X105113690Y-125757145D02*
X104613690Y-125757145D01*
X104685119Y-125804764D01*
X104732738Y-125852383D01*
X104756548Y-125900002D01*
X105988690Y-128280952D02*
X105488690Y-128280952D01*
X105488690Y-128161905D01*
X105512500Y-128090476D01*
X105560119Y-128042857D01*
X105607738Y-128019048D01*
X105702976Y-127995238D01*
X105774405Y-127995238D01*
X105869643Y-128019048D01*
X105917262Y-128042857D01*
X105964881Y-128090476D01*
X105988690Y-128161905D01*
X105988690Y-128280952D01*
X105964881Y-127590476D02*
X105988690Y-127638095D01*
X105988690Y-127733333D01*
X105964881Y-127780952D01*
X105917262Y-127804762D01*
X105726786Y-127804762D01*
X105679167Y-127780952D01*
X105655357Y-127733333D01*
X105655357Y-127638095D01*
X105679167Y-127590476D01*
X105726786Y-127566667D01*
X105774405Y-127566667D01*
X105822024Y-127804762D01*
X105964881Y-127376191D02*
X105988690Y-127328572D01*
X105988690Y-127233334D01*
X105964881Y-127185715D01*
X105917262Y-127161905D01*
X105893452Y-127161905D01*
X105845833Y-127185715D01*
X105822024Y-127233334D01*
X105822024Y-127304762D01*
X105798214Y-127352381D01*
X105750595Y-127376191D01*
X105726786Y-127376191D01*
X105679167Y-127352381D01*
X105655357Y-127304762D01*
X105655357Y-127233334D01*
X105679167Y-127185715D01*
X105988690Y-126947619D02*
X105655357Y-126947619D01*
X105488690Y-126947619D02*
X105512500Y-126971429D01*
X105536310Y-126947619D01*
X105512500Y-126923810D01*
X105488690Y-126947619D01*
X105536310Y-126947619D01*
X105655357Y-126495239D02*
X106060119Y-126495239D01*
X106107738Y-126519048D01*
X106131548Y-126542858D01*
X106155357Y-126590477D01*
X106155357Y-126661905D01*
X106131548Y-126709524D01*
X105964881Y-126495239D02*
X105988690Y-126542858D01*
X105988690Y-126638096D01*
X105964881Y-126685715D01*
X105941071Y-126709524D01*
X105893452Y-126733334D01*
X105750595Y-126733334D01*
X105702976Y-126709524D01*
X105679167Y-126685715D01*
X105655357Y-126638096D01*
X105655357Y-126542858D01*
X105679167Y-126495239D01*
X105655357Y-126257143D02*
X105988690Y-126257143D01*
X105702976Y-126257143D02*
X105679167Y-126233334D01*
X105655357Y-126185715D01*
X105655357Y-126114286D01*
X105679167Y-126066667D01*
X105726786Y-126042858D01*
X105988690Y-126042858D01*
X105941071Y-125804762D02*
X105964881Y-125780953D01*
X105988690Y-125804762D01*
X105964881Y-125828572D01*
X105941071Y-125804762D01*
X105988690Y-125804762D01*
X105679167Y-125804762D02*
X105702976Y-125780953D01*
X105726786Y-125804762D01*
X105702976Y-125828572D01*
X105679167Y-125804762D01*
X105726786Y-125804762D01*
X105988690Y-124947620D02*
X105988690Y-125185715D01*
X105488690Y-125185715D01*
X105488690Y-124257144D02*
X105845833Y-124257144D01*
X105917262Y-124280954D01*
X105964881Y-124328573D01*
X105988690Y-124400001D01*
X105988690Y-124447620D01*
X105988690Y-123947621D02*
X105964881Y-123995240D01*
X105941071Y-124019049D01*
X105893452Y-124042859D01*
X105750595Y-124042859D01*
X105702976Y-124019049D01*
X105679167Y-123995240D01*
X105655357Y-123947621D01*
X105655357Y-123876192D01*
X105679167Y-123828573D01*
X105702976Y-123804764D01*
X105750595Y-123780954D01*
X105893452Y-123780954D01*
X105941071Y-123804764D01*
X105964881Y-123828573D01*
X105988690Y-123876192D01*
X105988690Y-123947621D01*
X105655357Y-123566668D02*
X105988690Y-123566668D01*
X105702976Y-123566668D02*
X105679167Y-123542859D01*
X105655357Y-123495240D01*
X105655357Y-123423811D01*
X105679167Y-123376192D01*
X105726786Y-123352383D01*
X105988690Y-123352383D01*
X105964881Y-122923811D02*
X105988690Y-122971430D01*
X105988690Y-123066668D01*
X105964881Y-123114287D01*
X105917262Y-123138097D01*
X105726786Y-123138097D01*
X105679167Y-123114287D01*
X105655357Y-123066668D01*
X105655357Y-122971430D01*
X105679167Y-122923811D01*
X105726786Y-122900002D01*
X105774405Y-122900002D01*
X105822024Y-123138097D01*
X105964881Y-122709526D02*
X105988690Y-122661907D01*
X105988690Y-122566669D01*
X105964881Y-122519050D01*
X105917262Y-122495240D01*
X105893452Y-122495240D01*
X105845833Y-122519050D01*
X105822024Y-122566669D01*
X105822024Y-122638097D01*
X105798214Y-122685716D01*
X105750595Y-122709526D01*
X105726786Y-122709526D01*
X105679167Y-122685716D01*
X105655357Y-122638097D01*
X105655357Y-122566669D01*
X105679167Y-122519050D01*
X105964881Y-122257145D02*
X105988690Y-122257145D01*
X106036310Y-122280954D01*
X106060119Y-122304764D01*
X105988690Y-121590479D02*
X105964881Y-121638098D01*
X105917262Y-121661907D01*
X105488690Y-121661907D01*
X105941071Y-121400002D02*
X105964881Y-121376193D01*
X105988690Y-121400002D01*
X105964881Y-121423812D01*
X105941071Y-121400002D01*
X105988690Y-121400002D01*
X105655357Y-121161907D02*
X106083929Y-121161907D01*
X106131548Y-121185717D01*
X106155357Y-121233336D01*
X106155357Y-121257145D01*
X105488690Y-121161907D02*
X105512500Y-121185717D01*
X105536310Y-121161907D01*
X105512500Y-121138098D01*
X105488690Y-121161907D01*
X105536310Y-121161907D01*
X105988690Y-120852384D02*
X105964881Y-120900003D01*
X105941071Y-120923812D01*
X105893452Y-120947622D01*
X105750595Y-120947622D01*
X105702976Y-120923812D01*
X105679167Y-120900003D01*
X105655357Y-120852384D01*
X105655357Y-120780955D01*
X105679167Y-120733336D01*
X105702976Y-120709527D01*
X105750595Y-120685717D01*
X105893452Y-120685717D01*
X105941071Y-120709527D01*
X105964881Y-120733336D01*
X105988690Y-120780955D01*
X105988690Y-120852384D01*
X105655357Y-120471431D02*
X105988690Y-120471431D01*
X105702976Y-120471431D02*
X105679167Y-120447622D01*
X105655357Y-120400003D01*
X105655357Y-120328574D01*
X105679167Y-120280955D01*
X105726786Y-120257146D01*
X105988690Y-120257146D01*
X105964881Y-119828574D02*
X105988690Y-119876193D01*
X105988690Y-119971431D01*
X105964881Y-120019050D01*
X105917262Y-120042860D01*
X105726786Y-120042860D01*
X105679167Y-120019050D01*
X105655357Y-119971431D01*
X105655357Y-119876193D01*
X105679167Y-119828574D01*
X105726786Y-119804765D01*
X105774405Y-119804765D01*
X105822024Y-120042860D01*
X105964881Y-119614289D02*
X105988690Y-119566670D01*
X105988690Y-119471432D01*
X105964881Y-119423813D01*
X105917262Y-119400003D01*
X105893452Y-119400003D01*
X105845833Y-119423813D01*
X105822024Y-119471432D01*
X105822024Y-119542860D01*
X105798214Y-119590479D01*
X105750595Y-119614289D01*
X105726786Y-119614289D01*
X105679167Y-119590479D01*
X105655357Y-119542860D01*
X105655357Y-119471432D01*
X105679167Y-119423813D01*
X105655357Y-118971432D02*
X105988690Y-118971432D01*
X105464881Y-119090479D02*
X105822024Y-119209527D01*
X105822024Y-118900003D01*
X105536310Y-118733337D02*
X105512500Y-118709527D01*
X105488690Y-118661908D01*
X105488690Y-118542861D01*
X105512500Y-118495242D01*
X105536310Y-118471432D01*
X105583929Y-118447623D01*
X105631548Y-118447623D01*
X105702976Y-118471432D01*
X105988690Y-118757146D01*
X105988690Y-118447623D01*
X105655357Y-118019052D02*
X105988690Y-118019052D01*
X105464881Y-118138099D02*
X105822024Y-118257147D01*
X105822024Y-117947623D01*
X105488690Y-117804766D02*
X105488690Y-117495243D01*
X105679167Y-117661909D01*
X105679167Y-117590481D01*
X105702976Y-117542862D01*
X105726786Y-117519052D01*
X105774405Y-117495243D01*
X105893452Y-117495243D01*
X105941071Y-117519052D01*
X105964881Y-117542862D01*
X105988690Y-117590481D01*
X105988690Y-117733338D01*
X105964881Y-117780957D01*
X105941071Y-117804766D01*
X105750595Y-116971434D02*
X105726786Y-116995243D01*
X105702976Y-117042862D01*
X105702976Y-117090481D01*
X105726786Y-117138100D01*
X105750595Y-117161910D01*
X105798214Y-117185719D01*
X105845833Y-117185719D01*
X105893452Y-117161910D01*
X105917262Y-117138100D01*
X105941071Y-117090481D01*
X105941071Y-117042862D01*
X105917262Y-116995243D01*
X105893452Y-116971434D01*
X105702976Y-116971434D02*
X105893452Y-116971434D01*
X105917262Y-116947624D01*
X105917262Y-116923815D01*
X105893452Y-116876195D01*
X105845833Y-116852386D01*
X105726786Y-116852386D01*
X105655357Y-116900005D01*
X105607738Y-116971434D01*
X105583929Y-117066672D01*
X105607738Y-117161910D01*
X105655357Y-117233338D01*
X105726786Y-117280957D01*
X105822024Y-117304767D01*
X105917262Y-117280957D01*
X105988690Y-117233338D01*
X106036310Y-117161910D01*
X106060119Y-117066672D01*
X106036310Y-116971434D01*
X105988690Y-116900005D01*
X105655357Y-116423815D02*
X106060119Y-116423815D01*
X106107738Y-116447624D01*
X106131548Y-116471434D01*
X106155357Y-116519053D01*
X106155357Y-116590481D01*
X106131548Y-116638100D01*
X105964881Y-116423815D02*
X105988690Y-116471434D01*
X105988690Y-116566672D01*
X105964881Y-116614291D01*
X105941071Y-116638100D01*
X105893452Y-116661910D01*
X105750595Y-116661910D01*
X105702976Y-116638100D01*
X105679167Y-116614291D01*
X105655357Y-116566672D01*
X105655357Y-116471434D01*
X105679167Y-116423815D01*
X105988690Y-116185719D02*
X105655357Y-116185719D01*
X105702976Y-116185719D02*
X105679167Y-116161910D01*
X105655357Y-116114291D01*
X105655357Y-116042862D01*
X105679167Y-115995243D01*
X105726786Y-115971434D01*
X105988690Y-115971434D01*
X105726786Y-115971434D02*
X105679167Y-115947624D01*
X105655357Y-115900005D01*
X105655357Y-115828577D01*
X105679167Y-115780957D01*
X105726786Y-115757148D01*
X105988690Y-115757148D01*
X105988690Y-115304767D02*
X105726786Y-115304767D01*
X105679167Y-115328576D01*
X105655357Y-115376195D01*
X105655357Y-115471433D01*
X105679167Y-115519052D01*
X105964881Y-115304767D02*
X105988690Y-115352386D01*
X105988690Y-115471433D01*
X105964881Y-115519052D01*
X105917262Y-115542862D01*
X105869643Y-115542862D01*
X105822024Y-115519052D01*
X105798214Y-115471433D01*
X105798214Y-115352386D01*
X105774405Y-115304767D01*
X105988690Y-115066671D02*
X105655357Y-115066671D01*
X105488690Y-115066671D02*
X105512500Y-115090481D01*
X105536310Y-115066671D01*
X105512500Y-115042862D01*
X105488690Y-115066671D01*
X105536310Y-115066671D01*
X105988690Y-114757148D02*
X105964881Y-114804767D01*
X105917262Y-114828576D01*
X105488690Y-114828576D01*
X105941071Y-114566671D02*
X105964881Y-114542862D01*
X105988690Y-114566671D01*
X105964881Y-114590481D01*
X105941071Y-114566671D01*
X105988690Y-114566671D01*
X105964881Y-114114291D02*
X105988690Y-114161910D01*
X105988690Y-114257148D01*
X105964881Y-114304767D01*
X105941071Y-114328576D01*
X105893452Y-114352386D01*
X105750595Y-114352386D01*
X105702976Y-114328576D01*
X105679167Y-114304767D01*
X105655357Y-114257148D01*
X105655357Y-114161910D01*
X105679167Y-114114291D01*
X105988690Y-113828577D02*
X105964881Y-113876196D01*
X105941071Y-113900005D01*
X105893452Y-113923815D01*
X105750595Y-113923815D01*
X105702976Y-113900005D01*
X105679167Y-113876196D01*
X105655357Y-113828577D01*
X105655357Y-113757148D01*
X105679167Y-113709529D01*
X105702976Y-113685720D01*
X105750595Y-113661910D01*
X105893452Y-113661910D01*
X105941071Y-113685720D01*
X105964881Y-113709529D01*
X105988690Y-113757148D01*
X105988690Y-113828577D01*
X105988690Y-113447624D02*
X105655357Y-113447624D01*
X105702976Y-113447624D02*
X105679167Y-113423815D01*
X105655357Y-113376196D01*
X105655357Y-113304767D01*
X105679167Y-113257148D01*
X105726786Y-113233339D01*
X105988690Y-113233339D01*
X105726786Y-113233339D02*
X105679167Y-113209529D01*
X105655357Y-113161910D01*
X105655357Y-113090482D01*
X105679167Y-113042862D01*
X105726786Y-113019053D01*
X105988690Y-113019053D01*
X107691071Y-127995238D02*
X107714881Y-128019048D01*
X107738690Y-128090476D01*
X107738690Y-128138095D01*
X107714881Y-128209524D01*
X107667262Y-128257143D01*
X107619643Y-128280952D01*
X107524405Y-128304762D01*
X107452976Y-128304762D01*
X107357738Y-128280952D01*
X107310119Y-128257143D01*
X107262500Y-128209524D01*
X107238690Y-128138095D01*
X107238690Y-128090476D01*
X107262500Y-128019048D01*
X107286310Y-127995238D01*
X107238690Y-127780952D02*
X107643452Y-127780952D01*
X107691071Y-127757143D01*
X107714881Y-127733333D01*
X107738690Y-127685714D01*
X107738690Y-127590476D01*
X107714881Y-127542857D01*
X107691071Y-127519048D01*
X107643452Y-127495238D01*
X107238690Y-127495238D01*
X107738690Y-126971428D02*
X107500595Y-127138095D01*
X107738690Y-127257142D02*
X107238690Y-127257142D01*
X107238690Y-127066666D01*
X107262500Y-127019047D01*
X107286310Y-126995238D01*
X107333929Y-126971428D01*
X107405357Y-126971428D01*
X107452976Y-126995238D01*
X107476786Y-127019047D01*
X107500595Y-127066666D01*
X107500595Y-127257142D01*
X107738690Y-126471428D02*
X107500595Y-126638095D01*
X107738690Y-126757142D02*
X107238690Y-126757142D01*
X107238690Y-126566666D01*
X107262500Y-126519047D01*
X107286310Y-126495238D01*
X107333929Y-126471428D01*
X107405357Y-126471428D01*
X107452976Y-126495238D01*
X107476786Y-126519047D01*
X107500595Y-126566666D01*
X107500595Y-126757142D01*
X107476786Y-126257142D02*
X107476786Y-126090476D01*
X107738690Y-126019047D02*
X107738690Y-126257142D01*
X107238690Y-126257142D01*
X107238690Y-126019047D01*
X107738690Y-125804761D02*
X107238690Y-125804761D01*
X107738690Y-125519047D01*
X107238690Y-125519047D01*
X107238690Y-125352380D02*
X107238690Y-125066666D01*
X107738690Y-125209523D02*
X107238690Y-125209523D01*
X107738690Y-124661904D02*
X107738690Y-124899999D01*
X107238690Y-124899999D01*
X107500595Y-124399999D02*
X107738690Y-124399999D01*
X107238690Y-124566666D02*
X107500595Y-124399999D01*
X107238690Y-124233333D01*
X107738690Y-123685714D02*
X107238690Y-123685714D01*
X107738690Y-123447619D02*
X107238690Y-123447619D01*
X107738690Y-123161905D01*
X107238690Y-123161905D01*
X107238690Y-122542857D02*
X107643452Y-122542857D01*
X107691071Y-122519048D01*
X107714881Y-122495238D01*
X107738690Y-122447619D01*
X107738690Y-122352381D01*
X107714881Y-122304762D01*
X107691071Y-122280953D01*
X107643452Y-122257143D01*
X107238690Y-122257143D01*
X107714881Y-122042857D02*
X107738690Y-121971428D01*
X107738690Y-121852381D01*
X107714881Y-121804762D01*
X107691071Y-121780952D01*
X107643452Y-121757143D01*
X107595833Y-121757143D01*
X107548214Y-121780952D01*
X107524405Y-121804762D01*
X107500595Y-121852381D01*
X107476786Y-121947619D01*
X107452976Y-121995238D01*
X107429167Y-122019047D01*
X107381548Y-122042857D01*
X107333929Y-122042857D01*
X107286310Y-122019047D01*
X107262500Y-121995238D01*
X107238690Y-121947619D01*
X107238690Y-121828571D01*
X107262500Y-121757143D01*
X107476786Y-121542857D02*
X107476786Y-121376191D01*
X107738690Y-121304762D02*
X107738690Y-121542857D01*
X107238690Y-121542857D01*
X107238690Y-121304762D01*
X107476786Y-120542858D02*
X107476786Y-120709524D01*
X107738690Y-120709524D02*
X107238690Y-120709524D01*
X107238690Y-120471429D01*
X107238690Y-120185715D02*
X107238690Y-120090477D01*
X107262500Y-120042858D01*
X107310119Y-119995239D01*
X107405357Y-119971430D01*
X107572024Y-119971430D01*
X107667262Y-119995239D01*
X107714881Y-120042858D01*
X107738690Y-120090477D01*
X107738690Y-120185715D01*
X107714881Y-120233334D01*
X107667262Y-120280953D01*
X107572024Y-120304763D01*
X107405357Y-120304763D01*
X107310119Y-120280953D01*
X107262500Y-120233334D01*
X107238690Y-120185715D01*
X107738690Y-119471429D02*
X107500595Y-119638096D01*
X107738690Y-119757143D02*
X107238690Y-119757143D01*
X107238690Y-119566667D01*
X107262500Y-119519048D01*
X107286310Y-119495239D01*
X107333929Y-119471429D01*
X107405357Y-119471429D01*
X107452976Y-119495239D01*
X107476786Y-119519048D01*
X107500595Y-119566667D01*
X107500595Y-119757143D01*
X107238690Y-118780953D02*
X107238690Y-118685715D01*
X107262500Y-118638096D01*
X107310119Y-118590477D01*
X107405357Y-118566668D01*
X107572024Y-118566668D01*
X107667262Y-118590477D01*
X107714881Y-118638096D01*
X107738690Y-118685715D01*
X107738690Y-118780953D01*
X107714881Y-118828572D01*
X107667262Y-118876191D01*
X107572024Y-118900001D01*
X107405357Y-118900001D01*
X107310119Y-118876191D01*
X107262500Y-118828572D01*
X107238690Y-118780953D01*
X107738690Y-118066667D02*
X107500595Y-118233334D01*
X107738690Y-118352381D02*
X107238690Y-118352381D01*
X107238690Y-118161905D01*
X107262500Y-118114286D01*
X107286310Y-118090477D01*
X107333929Y-118066667D01*
X107405357Y-118066667D01*
X107452976Y-118090477D01*
X107476786Y-118114286D01*
X107500595Y-118161905D01*
X107500595Y-118352381D01*
X107738690Y-117852381D02*
X107238690Y-117852381D01*
X107476786Y-117614286D02*
X107476786Y-117447620D01*
X107738690Y-117376191D02*
X107738690Y-117614286D01*
X107238690Y-117614286D01*
X107238690Y-117376191D01*
X107738690Y-117161905D02*
X107238690Y-117161905D01*
X107738690Y-116876191D01*
X107238690Y-116876191D01*
X107238690Y-116709524D02*
X107238690Y-116423810D01*
X107738690Y-116566667D02*
X107238690Y-116566667D01*
X107476786Y-116257143D02*
X107476786Y-116090477D01*
X107738690Y-116019048D02*
X107738690Y-116257143D01*
X107238690Y-116257143D01*
X107238690Y-116019048D01*
X107476786Y-115804762D02*
X107476786Y-115638096D01*
X107738690Y-115566667D02*
X107738690Y-115804762D01*
X107238690Y-115804762D01*
X107238690Y-115566667D01*
X107738690Y-115066667D02*
X107500595Y-115233334D01*
X107738690Y-115352381D02*
X107238690Y-115352381D01*
X107238690Y-115161905D01*
X107262500Y-115114286D01*
X107286310Y-115090477D01*
X107333929Y-115066667D01*
X107405357Y-115066667D01*
X107452976Y-115090477D01*
X107476786Y-115114286D01*
X107500595Y-115161905D01*
X107500595Y-115352381D01*
X107738690Y-114852381D02*
X107238690Y-114852381D01*
X107738690Y-114614286D02*
X107238690Y-114614286D01*
X107738690Y-114328572D01*
X107238690Y-114328572D01*
X107262500Y-113828572D02*
X107238690Y-113876191D01*
X107238690Y-113947619D01*
X107262500Y-114019048D01*
X107310119Y-114066667D01*
X107357738Y-114090476D01*
X107452976Y-114114286D01*
X107524405Y-114114286D01*
X107619643Y-114090476D01*
X107667262Y-114066667D01*
X107714881Y-114019048D01*
X107738690Y-113947619D01*
X107738690Y-113900000D01*
X107714881Y-113828572D01*
X107691071Y-113804762D01*
X107524405Y-113804762D01*
X107524405Y-113900000D01*
X107714881Y-113566667D02*
X107738690Y-113566667D01*
X107786310Y-113590476D01*
X107810119Y-113614286D01*
X108613690Y-128280952D02*
X108113690Y-128280952D01*
X108113690Y-128090476D01*
X108137500Y-128042857D01*
X108161310Y-128019048D01*
X108208929Y-127995238D01*
X108280357Y-127995238D01*
X108327976Y-128019048D01*
X108351786Y-128042857D01*
X108375595Y-128090476D01*
X108375595Y-128280952D01*
X108613690Y-127542857D02*
X108613690Y-127780952D01*
X108113690Y-127780952D01*
X108351786Y-127376190D02*
X108351786Y-127209524D01*
X108613690Y-127138095D02*
X108613690Y-127376190D01*
X108113690Y-127376190D01*
X108113690Y-127138095D01*
X108470833Y-126947619D02*
X108470833Y-126709524D01*
X108613690Y-126995238D02*
X108113690Y-126828571D01*
X108613690Y-126661905D01*
X108589881Y-126519048D02*
X108613690Y-126447619D01*
X108613690Y-126328572D01*
X108589881Y-126280953D01*
X108566071Y-126257143D01*
X108518452Y-126233334D01*
X108470833Y-126233334D01*
X108423214Y-126257143D01*
X108399405Y-126280953D01*
X108375595Y-126328572D01*
X108351786Y-126423810D01*
X108327976Y-126471429D01*
X108304167Y-126495238D01*
X108256548Y-126519048D01*
X108208929Y-126519048D01*
X108161310Y-126495238D01*
X108137500Y-126471429D01*
X108113690Y-126423810D01*
X108113690Y-126304762D01*
X108137500Y-126233334D01*
X108351786Y-126019048D02*
X108351786Y-125852382D01*
X108613690Y-125780953D02*
X108613690Y-126019048D01*
X108113690Y-126019048D01*
X108113690Y-125780953D01*
X108613690Y-125185715D02*
X108113690Y-125185715D01*
X108113690Y-125066668D01*
X108137500Y-124995239D01*
X108185119Y-124947620D01*
X108232738Y-124923811D01*
X108327976Y-124900001D01*
X108399405Y-124900001D01*
X108494643Y-124923811D01*
X108542262Y-124947620D01*
X108589881Y-124995239D01*
X108613690Y-125066668D01*
X108613690Y-125185715D01*
X108113690Y-124590477D02*
X108113690Y-124495239D01*
X108137500Y-124447620D01*
X108185119Y-124400001D01*
X108280357Y-124376192D01*
X108447024Y-124376192D01*
X108542262Y-124400001D01*
X108589881Y-124447620D01*
X108613690Y-124495239D01*
X108613690Y-124590477D01*
X108589881Y-124638096D01*
X108542262Y-124685715D01*
X108447024Y-124709525D01*
X108280357Y-124709525D01*
X108185119Y-124685715D01*
X108137500Y-124638096D01*
X108113690Y-124590477D01*
X108613690Y-123780953D02*
X108113690Y-123780953D01*
X108613690Y-123495239D01*
X108113690Y-123495239D01*
X108113690Y-123161905D02*
X108113690Y-123066667D01*
X108137500Y-123019048D01*
X108185119Y-122971429D01*
X108280357Y-122947620D01*
X108447024Y-122947620D01*
X108542262Y-122971429D01*
X108589881Y-123019048D01*
X108613690Y-123066667D01*
X108613690Y-123161905D01*
X108589881Y-123209524D01*
X108542262Y-123257143D01*
X108447024Y-123280953D01*
X108280357Y-123280953D01*
X108185119Y-123257143D01*
X108137500Y-123209524D01*
X108113690Y-123161905D01*
X108113690Y-122804762D02*
X108113690Y-122519048D01*
X108613690Y-122661905D02*
X108113690Y-122661905D01*
X108613690Y-121685715D02*
X108375595Y-121852382D01*
X108613690Y-121971429D02*
X108113690Y-121971429D01*
X108113690Y-121780953D01*
X108137500Y-121733334D01*
X108161310Y-121709525D01*
X108208929Y-121685715D01*
X108280357Y-121685715D01*
X108327976Y-121709525D01*
X108351786Y-121733334D01*
X108375595Y-121780953D01*
X108375595Y-121971429D01*
X108351786Y-121471429D02*
X108351786Y-121304763D01*
X108613690Y-121233334D02*
X108613690Y-121471429D01*
X108113690Y-121471429D01*
X108113690Y-121233334D01*
X108613690Y-121019048D02*
X108113690Y-121019048D01*
X108470833Y-120852382D01*
X108113690Y-120685715D01*
X108613690Y-120685715D01*
X108113690Y-120352381D02*
X108113690Y-120257143D01*
X108137500Y-120209524D01*
X108185119Y-120161905D01*
X108280357Y-120138096D01*
X108447024Y-120138096D01*
X108542262Y-120161905D01*
X108589881Y-120209524D01*
X108613690Y-120257143D01*
X108613690Y-120352381D01*
X108589881Y-120400000D01*
X108542262Y-120447619D01*
X108447024Y-120471429D01*
X108280357Y-120471429D01*
X108185119Y-120447619D01*
X108137500Y-120400000D01*
X108113690Y-120352381D01*
X108113690Y-119995238D02*
X108613690Y-119828571D01*
X108113690Y-119661905D01*
X108351786Y-119495238D02*
X108351786Y-119328572D01*
X108613690Y-119257143D02*
X108613690Y-119495238D01*
X108113690Y-119495238D01*
X108113690Y-119257143D01*
D15*
X152400000Y-130000000D02*
X152400000Y-67500000D01*
X102400000Y-130000000D02*
X152400000Y-130000000D01*
X102400000Y-67500000D02*
X102400000Y-130000000D01*
X152400000Y-67500000D02*
X102400000Y-67500000D01*
D16*
X113660000Y-104550000D02*
X110060000Y-104550000D01*
X114184184Y-105277205D02*
G75*
G03X113660000Y-104550000I-2324184J-1122795D01*
G01*
X114216400Y-107498807D02*
G75*
G02X111860000Y-109000000I-2356400J1098807D01*
G01*
X109503600Y-107498807D02*
G75*
G03X111860000Y-109000000I2356400J1098807D01*
G01*
X109535816Y-105277205D02*
G75*
G02X110060000Y-104550000I2324184J-1122795D01*
G01*
X130779723Y-109355722D02*
G75*
G03X130780000Y-104744420I-1179723J2305722D01*
G01*
X128420277Y-109355722D02*
G75*
G02X128420000Y-104744420I1179723J2305722D01*
G01*
X128420277Y-109355722D02*
G75*
G03X130780000Y-109355580I1179723J2305722D01*
G01*
X132150000Y-107050000D02*
X127050000Y-107050000D01*
X132150000Y-107090000D02*
X127050000Y-107090000D01*
X132149000Y-107130000D02*
X127051000Y-107130000D01*
X132148000Y-107170000D02*
X127052000Y-107170000D01*
X132146000Y-107210000D02*
X127054000Y-107210000D01*
X132143000Y-107250000D02*
X127057000Y-107250000D01*
X132139000Y-107290000D02*
X127061000Y-107290000D01*
X132135000Y-107330000D02*
X130580000Y-107330000D01*
X128620000Y-107330000D02*
X127065000Y-107330000D01*
X132131000Y-107370000D02*
X130580000Y-107370000D01*
X128620000Y-107370000D02*
X127069000Y-107370000D01*
X132125000Y-107410000D02*
X130580000Y-107410000D01*
X128620000Y-107410000D02*
X127075000Y-107410000D01*
X132119000Y-107450000D02*
X130580000Y-107450000D01*
X128620000Y-107450000D02*
X127081000Y-107450000D01*
X132113000Y-107490000D02*
X130580000Y-107490000D01*
X128620000Y-107490000D02*
X127087000Y-107490000D01*
X132106000Y-107530000D02*
X130580000Y-107530000D01*
X128620000Y-107530000D02*
X127094000Y-107530000D01*
X132098000Y-107570000D02*
X130580000Y-107570000D01*
X128620000Y-107570000D02*
X127102000Y-107570000D01*
X132089000Y-107610000D02*
X130580000Y-107610000D01*
X128620000Y-107610000D02*
X127111000Y-107610000D01*
X132080000Y-107650000D02*
X130580000Y-107650000D01*
X128620000Y-107650000D02*
X127120000Y-107650000D01*
X132070000Y-107690000D02*
X130580000Y-107690000D01*
X128620000Y-107690000D02*
X127130000Y-107690000D01*
X132060000Y-107730000D02*
X130580000Y-107730000D01*
X128620000Y-107730000D02*
X127140000Y-107730000D01*
X132048000Y-107771000D02*
X130580000Y-107771000D01*
X128620000Y-107771000D02*
X127152000Y-107771000D01*
X132036000Y-107811000D02*
X130580000Y-107811000D01*
X128620000Y-107811000D02*
X127164000Y-107811000D01*
X132024000Y-107851000D02*
X130580000Y-107851000D01*
X128620000Y-107851000D02*
X127176000Y-107851000D01*
X132010000Y-107891000D02*
X130580000Y-107891000D01*
X128620000Y-107891000D02*
X127190000Y-107891000D01*
X131996000Y-107931000D02*
X130580000Y-107931000D01*
X128620000Y-107931000D02*
X127204000Y-107931000D01*
X131982000Y-107971000D02*
X130580000Y-107971000D01*
X128620000Y-107971000D02*
X127218000Y-107971000D01*
X131966000Y-108011000D02*
X130580000Y-108011000D01*
X128620000Y-108011000D02*
X127234000Y-108011000D01*
X131950000Y-108051000D02*
X130580000Y-108051000D01*
X128620000Y-108051000D02*
X127250000Y-108051000D01*
X131933000Y-108091000D02*
X130580000Y-108091000D01*
X128620000Y-108091000D02*
X127267000Y-108091000D01*
X131915000Y-108131000D02*
X130580000Y-108131000D01*
X128620000Y-108131000D02*
X127285000Y-108131000D01*
X131896000Y-108171000D02*
X130580000Y-108171000D01*
X128620000Y-108171000D02*
X127304000Y-108171000D01*
X131876000Y-108211000D02*
X130580000Y-108211000D01*
X128620000Y-108211000D02*
X127324000Y-108211000D01*
X131856000Y-108251000D02*
X130580000Y-108251000D01*
X128620000Y-108251000D02*
X127344000Y-108251000D01*
X131834000Y-108291000D02*
X130580000Y-108291000D01*
X128620000Y-108291000D02*
X127366000Y-108291000D01*
X131812000Y-108331000D02*
X130580000Y-108331000D01*
X128620000Y-108331000D02*
X127388000Y-108331000D01*
X131789000Y-108371000D02*
X130580000Y-108371000D01*
X128620000Y-108371000D02*
X127411000Y-108371000D01*
X131765000Y-108411000D02*
X130580000Y-108411000D01*
X128620000Y-108411000D02*
X127435000Y-108411000D01*
X131740000Y-108451000D02*
X130580000Y-108451000D01*
X128620000Y-108451000D02*
X127460000Y-108451000D01*
X131713000Y-108491000D02*
X130580000Y-108491000D01*
X128620000Y-108491000D02*
X127487000Y-108491000D01*
X131686000Y-108531000D02*
X130580000Y-108531000D01*
X128620000Y-108531000D02*
X127514000Y-108531000D01*
X131658000Y-108571000D02*
X130580000Y-108571000D01*
X128620000Y-108571000D02*
X127542000Y-108571000D01*
X131628000Y-108611000D02*
X130580000Y-108611000D01*
X128620000Y-108611000D02*
X127572000Y-108611000D01*
X131597000Y-108651000D02*
X130580000Y-108651000D01*
X128620000Y-108651000D02*
X127603000Y-108651000D01*
X131565000Y-108691000D02*
X130580000Y-108691000D01*
X128620000Y-108691000D02*
X127635000Y-108691000D01*
X131532000Y-108731000D02*
X130580000Y-108731000D01*
X128620000Y-108731000D02*
X127668000Y-108731000D01*
X131497000Y-108771000D02*
X130580000Y-108771000D01*
X128620000Y-108771000D02*
X127703000Y-108771000D01*
X131461000Y-108811000D02*
X130580000Y-108811000D01*
X128620000Y-108811000D02*
X127739000Y-108811000D01*
X131423000Y-108851000D02*
X130580000Y-108851000D01*
X128620000Y-108851000D02*
X127777000Y-108851000D01*
X131383000Y-108891000D02*
X130580000Y-108891000D01*
X128620000Y-108891000D02*
X127817000Y-108891000D01*
X131342000Y-108931000D02*
X130580000Y-108931000D01*
X128620000Y-108931000D02*
X127858000Y-108931000D01*
X131299000Y-108971000D02*
X130580000Y-108971000D01*
X128620000Y-108971000D02*
X127901000Y-108971000D01*
X131254000Y-109011000D02*
X130580000Y-109011000D01*
X128620000Y-109011000D02*
X127946000Y-109011000D01*
X131206000Y-109051000D02*
X130580000Y-109051000D01*
X128620000Y-109051000D02*
X127994000Y-109051000D01*
X131156000Y-109091000D02*
X130580000Y-109091000D01*
X128620000Y-109091000D02*
X128044000Y-109091000D01*
X131104000Y-109131000D02*
X130580000Y-109131000D01*
X128620000Y-109131000D02*
X128096000Y-109131000D01*
X131048000Y-109171000D02*
X130580000Y-109171000D01*
X128620000Y-109171000D02*
X128152000Y-109171000D01*
X130990000Y-109211000D02*
X130580000Y-109211000D01*
X128620000Y-109211000D02*
X128210000Y-109211000D01*
X130927000Y-109251000D02*
X130580000Y-109251000D01*
X128620000Y-109251000D02*
X128273000Y-109251000D01*
X130861000Y-109291000D02*
X128339000Y-109291000D01*
X130789000Y-109331000D02*
X128411000Y-109331000D01*
X130712000Y-109371000D02*
X128488000Y-109371000D01*
X130628000Y-109411000D02*
X128572000Y-109411000D01*
X130534000Y-109451000D02*
X128666000Y-109451000D01*
X130429000Y-109491000D02*
X128771000Y-109491000D01*
X130307000Y-109531000D02*
X128893000Y-109531000D01*
X130159000Y-109571000D02*
X129041000Y-109571000D01*
X129954000Y-109611000D02*
X129246000Y-109611000D01*
X129600000Y-103600000D02*
X129600000Y-104800000D01*
X130250000Y-104200000D02*
X128950000Y-104200000D01*
X124979723Y-109355722D02*
G75*
G03X124980000Y-104744420I-1179723J2305722D01*
G01*
X122620277Y-109355722D02*
G75*
G02X122620000Y-104744420I1179723J2305722D01*
G01*
X122620277Y-109355722D02*
G75*
G03X124980000Y-109355580I1179723J2305722D01*
G01*
X126350000Y-107050000D02*
X121250000Y-107050000D01*
X126350000Y-107090000D02*
X121250000Y-107090000D01*
X126349000Y-107130000D02*
X121251000Y-107130000D01*
X126348000Y-107170000D02*
X121252000Y-107170000D01*
X126346000Y-107210000D02*
X121254000Y-107210000D01*
X126343000Y-107250000D02*
X121257000Y-107250000D01*
X126339000Y-107290000D02*
X121261000Y-107290000D01*
X126335000Y-107330000D02*
X124780000Y-107330000D01*
X122820000Y-107330000D02*
X121265000Y-107330000D01*
X126331000Y-107370000D02*
X124780000Y-107370000D01*
X122820000Y-107370000D02*
X121269000Y-107370000D01*
X126325000Y-107410000D02*
X124780000Y-107410000D01*
X122820000Y-107410000D02*
X121275000Y-107410000D01*
X126319000Y-107450000D02*
X124780000Y-107450000D01*
X122820000Y-107450000D02*
X121281000Y-107450000D01*
X126313000Y-107490000D02*
X124780000Y-107490000D01*
X122820000Y-107490000D02*
X121287000Y-107490000D01*
X126306000Y-107530000D02*
X124780000Y-107530000D01*
X122820000Y-107530000D02*
X121294000Y-107530000D01*
X126298000Y-107570000D02*
X124780000Y-107570000D01*
X122820000Y-107570000D02*
X121302000Y-107570000D01*
X126289000Y-107610000D02*
X124780000Y-107610000D01*
X122820000Y-107610000D02*
X121311000Y-107610000D01*
X126280000Y-107650000D02*
X124780000Y-107650000D01*
X122820000Y-107650000D02*
X121320000Y-107650000D01*
X126270000Y-107690000D02*
X124780000Y-107690000D01*
X122820000Y-107690000D02*
X121330000Y-107690000D01*
X126260000Y-107730000D02*
X124780000Y-107730000D01*
X122820000Y-107730000D02*
X121340000Y-107730000D01*
X126248000Y-107771000D02*
X124780000Y-107771000D01*
X122820000Y-107771000D02*
X121352000Y-107771000D01*
X126236000Y-107811000D02*
X124780000Y-107811000D01*
X122820000Y-107811000D02*
X121364000Y-107811000D01*
X126224000Y-107851000D02*
X124780000Y-107851000D01*
X122820000Y-107851000D02*
X121376000Y-107851000D01*
X126210000Y-107891000D02*
X124780000Y-107891000D01*
X122820000Y-107891000D02*
X121390000Y-107891000D01*
X126196000Y-107931000D02*
X124780000Y-107931000D01*
X122820000Y-107931000D02*
X121404000Y-107931000D01*
X126182000Y-107971000D02*
X124780000Y-107971000D01*
X122820000Y-107971000D02*
X121418000Y-107971000D01*
X126166000Y-108011000D02*
X124780000Y-108011000D01*
X122820000Y-108011000D02*
X121434000Y-108011000D01*
X126150000Y-108051000D02*
X124780000Y-108051000D01*
X122820000Y-108051000D02*
X121450000Y-108051000D01*
X126133000Y-108091000D02*
X124780000Y-108091000D01*
X122820000Y-108091000D02*
X121467000Y-108091000D01*
X126115000Y-108131000D02*
X124780000Y-108131000D01*
X122820000Y-108131000D02*
X121485000Y-108131000D01*
X126096000Y-108171000D02*
X124780000Y-108171000D01*
X122820000Y-108171000D02*
X121504000Y-108171000D01*
X126076000Y-108211000D02*
X124780000Y-108211000D01*
X122820000Y-108211000D02*
X121524000Y-108211000D01*
X126056000Y-108251000D02*
X124780000Y-108251000D01*
X122820000Y-108251000D02*
X121544000Y-108251000D01*
X126034000Y-108291000D02*
X124780000Y-108291000D01*
X122820000Y-108291000D02*
X121566000Y-108291000D01*
X126012000Y-108331000D02*
X124780000Y-108331000D01*
X122820000Y-108331000D02*
X121588000Y-108331000D01*
X125989000Y-108371000D02*
X124780000Y-108371000D01*
X122820000Y-108371000D02*
X121611000Y-108371000D01*
X125965000Y-108411000D02*
X124780000Y-108411000D01*
X122820000Y-108411000D02*
X121635000Y-108411000D01*
X125940000Y-108451000D02*
X124780000Y-108451000D01*
X122820000Y-108451000D02*
X121660000Y-108451000D01*
X125913000Y-108491000D02*
X124780000Y-108491000D01*
X122820000Y-108491000D02*
X121687000Y-108491000D01*
X125886000Y-108531000D02*
X124780000Y-108531000D01*
X122820000Y-108531000D02*
X121714000Y-108531000D01*
X125858000Y-108571000D02*
X124780000Y-108571000D01*
X122820000Y-108571000D02*
X121742000Y-108571000D01*
X125828000Y-108611000D02*
X124780000Y-108611000D01*
X122820000Y-108611000D02*
X121772000Y-108611000D01*
X125797000Y-108651000D02*
X124780000Y-108651000D01*
X122820000Y-108651000D02*
X121803000Y-108651000D01*
X125765000Y-108691000D02*
X124780000Y-108691000D01*
X122820000Y-108691000D02*
X121835000Y-108691000D01*
X125732000Y-108731000D02*
X124780000Y-108731000D01*
X122820000Y-108731000D02*
X121868000Y-108731000D01*
X125697000Y-108771000D02*
X124780000Y-108771000D01*
X122820000Y-108771000D02*
X121903000Y-108771000D01*
X125661000Y-108811000D02*
X124780000Y-108811000D01*
X122820000Y-108811000D02*
X121939000Y-108811000D01*
X125623000Y-108851000D02*
X124780000Y-108851000D01*
X122820000Y-108851000D02*
X121977000Y-108851000D01*
X125583000Y-108891000D02*
X124780000Y-108891000D01*
X122820000Y-108891000D02*
X122017000Y-108891000D01*
X125542000Y-108931000D02*
X124780000Y-108931000D01*
X122820000Y-108931000D02*
X122058000Y-108931000D01*
X125499000Y-108971000D02*
X124780000Y-108971000D01*
X122820000Y-108971000D02*
X122101000Y-108971000D01*
X125454000Y-109011000D02*
X124780000Y-109011000D01*
X122820000Y-109011000D02*
X122146000Y-109011000D01*
X125406000Y-109051000D02*
X124780000Y-109051000D01*
X122820000Y-109051000D02*
X122194000Y-109051000D01*
X125356000Y-109091000D02*
X124780000Y-109091000D01*
X122820000Y-109091000D02*
X122244000Y-109091000D01*
X125304000Y-109131000D02*
X124780000Y-109131000D01*
X122820000Y-109131000D02*
X122296000Y-109131000D01*
X125248000Y-109171000D02*
X124780000Y-109171000D01*
X122820000Y-109171000D02*
X122352000Y-109171000D01*
X125190000Y-109211000D02*
X124780000Y-109211000D01*
X122820000Y-109211000D02*
X122410000Y-109211000D01*
X125127000Y-109251000D02*
X124780000Y-109251000D01*
X122820000Y-109251000D02*
X122473000Y-109251000D01*
X125061000Y-109291000D02*
X122539000Y-109291000D01*
X124989000Y-109331000D02*
X122611000Y-109331000D01*
X124912000Y-109371000D02*
X122688000Y-109371000D01*
X124828000Y-109411000D02*
X122772000Y-109411000D01*
X124734000Y-109451000D02*
X122866000Y-109451000D01*
X124629000Y-109491000D02*
X122971000Y-109491000D01*
X124507000Y-109531000D02*
X123093000Y-109531000D01*
X124359000Y-109571000D02*
X123241000Y-109571000D01*
X124154000Y-109611000D02*
X123446000Y-109611000D01*
X123800000Y-103600000D02*
X123800000Y-104800000D01*
X124450000Y-104200000D02*
X123150000Y-104200000D01*
X112955722Y-99620277D02*
G75*
G03X108344420Y-99620000I-2305722J-1179723D01*
G01*
X112955722Y-101979723D02*
G75*
G02X108344420Y-101980000I-2305722J1179723D01*
G01*
X112955722Y-101979723D02*
G75*
G03X112955580Y-99620000I-2305722J1179723D01*
G01*
X110650000Y-98250000D02*
X110650000Y-103350000D01*
X110690000Y-98250000D02*
X110690000Y-103350000D01*
X110730000Y-98251000D02*
X110730000Y-103349000D01*
X110770000Y-98252000D02*
X110770000Y-103348000D01*
X110810000Y-98254000D02*
X110810000Y-103346000D01*
X110850000Y-98257000D02*
X110850000Y-103343000D01*
X110890000Y-98261000D02*
X110890000Y-103339000D01*
X110930000Y-98265000D02*
X110930000Y-99820000D01*
X110930000Y-101780000D02*
X110930000Y-103335000D01*
X110970000Y-98269000D02*
X110970000Y-99820000D01*
X110970000Y-101780000D02*
X110970000Y-103331000D01*
X111010000Y-98275000D02*
X111010000Y-99820000D01*
X111010000Y-101780000D02*
X111010000Y-103325000D01*
X111050000Y-98281000D02*
X111050000Y-99820000D01*
X111050000Y-101780000D02*
X111050000Y-103319000D01*
X111090000Y-98287000D02*
X111090000Y-99820000D01*
X111090000Y-101780000D02*
X111090000Y-103313000D01*
X111130000Y-98294000D02*
X111130000Y-99820000D01*
X111130000Y-101780000D02*
X111130000Y-103306000D01*
X111170000Y-98302000D02*
X111170000Y-99820000D01*
X111170000Y-101780000D02*
X111170000Y-103298000D01*
X111210000Y-98311000D02*
X111210000Y-99820000D01*
X111210000Y-101780000D02*
X111210000Y-103289000D01*
X111250000Y-98320000D02*
X111250000Y-99820000D01*
X111250000Y-101780000D02*
X111250000Y-103280000D01*
X111290000Y-98330000D02*
X111290000Y-99820000D01*
X111290000Y-101780000D02*
X111290000Y-103270000D01*
X111330000Y-98340000D02*
X111330000Y-99820000D01*
X111330000Y-101780000D02*
X111330000Y-103260000D01*
X111371000Y-98352000D02*
X111371000Y-99820000D01*
X111371000Y-101780000D02*
X111371000Y-103248000D01*
X111411000Y-98364000D02*
X111411000Y-99820000D01*
X111411000Y-101780000D02*
X111411000Y-103236000D01*
X111451000Y-98376000D02*
X111451000Y-99820000D01*
X111451000Y-101780000D02*
X111451000Y-103224000D01*
X111491000Y-98390000D02*
X111491000Y-99820000D01*
X111491000Y-101780000D02*
X111491000Y-103210000D01*
X111531000Y-98404000D02*
X111531000Y-99820000D01*
X111531000Y-101780000D02*
X111531000Y-103196000D01*
X111571000Y-98418000D02*
X111571000Y-99820000D01*
X111571000Y-101780000D02*
X111571000Y-103182000D01*
X111611000Y-98434000D02*
X111611000Y-99820000D01*
X111611000Y-101780000D02*
X111611000Y-103166000D01*
X111651000Y-98450000D02*
X111651000Y-99820000D01*
X111651000Y-101780000D02*
X111651000Y-103150000D01*
X111691000Y-98467000D02*
X111691000Y-99820000D01*
X111691000Y-101780000D02*
X111691000Y-103133000D01*
X111731000Y-98485000D02*
X111731000Y-99820000D01*
X111731000Y-101780000D02*
X111731000Y-103115000D01*
X111771000Y-98504000D02*
X111771000Y-99820000D01*
X111771000Y-101780000D02*
X111771000Y-103096000D01*
X111811000Y-98524000D02*
X111811000Y-99820000D01*
X111811000Y-101780000D02*
X111811000Y-103076000D01*
X111851000Y-98544000D02*
X111851000Y-99820000D01*
X111851000Y-101780000D02*
X111851000Y-103056000D01*
X111891000Y-98566000D02*
X111891000Y-99820000D01*
X111891000Y-101780000D02*
X111891000Y-103034000D01*
X111931000Y-98588000D02*
X111931000Y-99820000D01*
X111931000Y-101780000D02*
X111931000Y-103012000D01*
X111971000Y-98611000D02*
X111971000Y-99820000D01*
X111971000Y-101780000D02*
X111971000Y-102989000D01*
X112011000Y-98635000D02*
X112011000Y-99820000D01*
X112011000Y-101780000D02*
X112011000Y-102965000D01*
X112051000Y-98660000D02*
X112051000Y-99820000D01*
X112051000Y-101780000D02*
X112051000Y-102940000D01*
X112091000Y-98687000D02*
X112091000Y-99820000D01*
X112091000Y-101780000D02*
X112091000Y-102913000D01*
X112131000Y-98714000D02*
X112131000Y-99820000D01*
X112131000Y-101780000D02*
X112131000Y-102886000D01*
X112171000Y-98742000D02*
X112171000Y-99820000D01*
X112171000Y-101780000D02*
X112171000Y-102858000D01*
X112211000Y-98772000D02*
X112211000Y-99820000D01*
X112211000Y-101780000D02*
X112211000Y-102828000D01*
X112251000Y-98803000D02*
X112251000Y-99820000D01*
X112251000Y-101780000D02*
X112251000Y-102797000D01*
X112291000Y-98835000D02*
X112291000Y-99820000D01*
X112291000Y-101780000D02*
X112291000Y-102765000D01*
X112331000Y-98868000D02*
X112331000Y-99820000D01*
X112331000Y-101780000D02*
X112331000Y-102732000D01*
X112371000Y-98903000D02*
X112371000Y-99820000D01*
X112371000Y-101780000D02*
X112371000Y-102697000D01*
X112411000Y-98939000D02*
X112411000Y-99820000D01*
X112411000Y-101780000D02*
X112411000Y-102661000D01*
X112451000Y-98977000D02*
X112451000Y-99820000D01*
X112451000Y-101780000D02*
X112451000Y-102623000D01*
X112491000Y-99017000D02*
X112491000Y-99820000D01*
X112491000Y-101780000D02*
X112491000Y-102583000D01*
X112531000Y-99058000D02*
X112531000Y-99820000D01*
X112531000Y-101780000D02*
X112531000Y-102542000D01*
X112571000Y-99101000D02*
X112571000Y-99820000D01*
X112571000Y-101780000D02*
X112571000Y-102499000D01*
X112611000Y-99146000D02*
X112611000Y-99820000D01*
X112611000Y-101780000D02*
X112611000Y-102454000D01*
X112651000Y-99194000D02*
X112651000Y-99820000D01*
X112651000Y-101780000D02*
X112651000Y-102406000D01*
X112691000Y-99244000D02*
X112691000Y-99820000D01*
X112691000Y-101780000D02*
X112691000Y-102356000D01*
X112731000Y-99296000D02*
X112731000Y-99820000D01*
X112731000Y-101780000D02*
X112731000Y-102304000D01*
X112771000Y-99352000D02*
X112771000Y-99820000D01*
X112771000Y-101780000D02*
X112771000Y-102248000D01*
X112811000Y-99410000D02*
X112811000Y-99820000D01*
X112811000Y-101780000D02*
X112811000Y-102190000D01*
X112851000Y-99473000D02*
X112851000Y-99820000D01*
X112851000Y-101780000D02*
X112851000Y-102127000D01*
X112891000Y-99539000D02*
X112891000Y-102061000D01*
X112931000Y-99611000D02*
X112931000Y-101989000D01*
X112971000Y-99688000D02*
X112971000Y-101912000D01*
X113011000Y-99772000D02*
X113011000Y-101828000D01*
X113051000Y-99866000D02*
X113051000Y-101734000D01*
X113091000Y-99971000D02*
X113091000Y-101629000D01*
X113131000Y-100093000D02*
X113131000Y-101507000D01*
X113171000Y-100241000D02*
X113171000Y-101359000D01*
X113211000Y-100446000D02*
X113211000Y-101154000D01*
X107200000Y-100800000D02*
X108400000Y-100800000D01*
X107800000Y-100150000D02*
X107800000Y-101450000D01*
X119179723Y-109355722D02*
G75*
G03X119180000Y-104744420I-1179723J2305722D01*
G01*
X116820277Y-109355722D02*
G75*
G02X116820000Y-104744420I1179723J2305722D01*
G01*
X116820277Y-109355722D02*
G75*
G03X119180000Y-109355580I1179723J2305722D01*
G01*
X120550000Y-107050000D02*
X115450000Y-107050000D01*
X120550000Y-107090000D02*
X115450000Y-107090000D01*
X120549000Y-107130000D02*
X115451000Y-107130000D01*
X120548000Y-107170000D02*
X115452000Y-107170000D01*
X120546000Y-107210000D02*
X115454000Y-107210000D01*
X120543000Y-107250000D02*
X115457000Y-107250000D01*
X120539000Y-107290000D02*
X115461000Y-107290000D01*
X120535000Y-107330000D02*
X118980000Y-107330000D01*
X117020000Y-107330000D02*
X115465000Y-107330000D01*
X120531000Y-107370000D02*
X118980000Y-107370000D01*
X117020000Y-107370000D02*
X115469000Y-107370000D01*
X120525000Y-107410000D02*
X118980000Y-107410000D01*
X117020000Y-107410000D02*
X115475000Y-107410000D01*
X120519000Y-107450000D02*
X118980000Y-107450000D01*
X117020000Y-107450000D02*
X115481000Y-107450000D01*
X120513000Y-107490000D02*
X118980000Y-107490000D01*
X117020000Y-107490000D02*
X115487000Y-107490000D01*
X120506000Y-107530000D02*
X118980000Y-107530000D01*
X117020000Y-107530000D02*
X115494000Y-107530000D01*
X120498000Y-107570000D02*
X118980000Y-107570000D01*
X117020000Y-107570000D02*
X115502000Y-107570000D01*
X120489000Y-107610000D02*
X118980000Y-107610000D01*
X117020000Y-107610000D02*
X115511000Y-107610000D01*
X120480000Y-107650000D02*
X118980000Y-107650000D01*
X117020000Y-107650000D02*
X115520000Y-107650000D01*
X120470000Y-107690000D02*
X118980000Y-107690000D01*
X117020000Y-107690000D02*
X115530000Y-107690000D01*
X120460000Y-107730000D02*
X118980000Y-107730000D01*
X117020000Y-107730000D02*
X115540000Y-107730000D01*
X120448000Y-107771000D02*
X118980000Y-107771000D01*
X117020000Y-107771000D02*
X115552000Y-107771000D01*
X120436000Y-107811000D02*
X118980000Y-107811000D01*
X117020000Y-107811000D02*
X115564000Y-107811000D01*
X120424000Y-107851000D02*
X118980000Y-107851000D01*
X117020000Y-107851000D02*
X115576000Y-107851000D01*
X120410000Y-107891000D02*
X118980000Y-107891000D01*
X117020000Y-107891000D02*
X115590000Y-107891000D01*
X120396000Y-107931000D02*
X118980000Y-107931000D01*
X117020000Y-107931000D02*
X115604000Y-107931000D01*
X120382000Y-107971000D02*
X118980000Y-107971000D01*
X117020000Y-107971000D02*
X115618000Y-107971000D01*
X120366000Y-108011000D02*
X118980000Y-108011000D01*
X117020000Y-108011000D02*
X115634000Y-108011000D01*
X120350000Y-108051000D02*
X118980000Y-108051000D01*
X117020000Y-108051000D02*
X115650000Y-108051000D01*
X120333000Y-108091000D02*
X118980000Y-108091000D01*
X117020000Y-108091000D02*
X115667000Y-108091000D01*
X120315000Y-108131000D02*
X118980000Y-108131000D01*
X117020000Y-108131000D02*
X115685000Y-108131000D01*
X120296000Y-108171000D02*
X118980000Y-108171000D01*
X117020000Y-108171000D02*
X115704000Y-108171000D01*
X120276000Y-108211000D02*
X118980000Y-108211000D01*
X117020000Y-108211000D02*
X115724000Y-108211000D01*
X120256000Y-108251000D02*
X118980000Y-108251000D01*
X117020000Y-108251000D02*
X115744000Y-108251000D01*
X120234000Y-108291000D02*
X118980000Y-108291000D01*
X117020000Y-108291000D02*
X115766000Y-108291000D01*
X120212000Y-108331000D02*
X118980000Y-108331000D01*
X117020000Y-108331000D02*
X115788000Y-108331000D01*
X120189000Y-108371000D02*
X118980000Y-108371000D01*
X117020000Y-108371000D02*
X115811000Y-108371000D01*
X120165000Y-108411000D02*
X118980000Y-108411000D01*
X117020000Y-108411000D02*
X115835000Y-108411000D01*
X120140000Y-108451000D02*
X118980000Y-108451000D01*
X117020000Y-108451000D02*
X115860000Y-108451000D01*
X120113000Y-108491000D02*
X118980000Y-108491000D01*
X117020000Y-108491000D02*
X115887000Y-108491000D01*
X120086000Y-108531000D02*
X118980000Y-108531000D01*
X117020000Y-108531000D02*
X115914000Y-108531000D01*
X120058000Y-108571000D02*
X118980000Y-108571000D01*
X117020000Y-108571000D02*
X115942000Y-108571000D01*
X120028000Y-108611000D02*
X118980000Y-108611000D01*
X117020000Y-108611000D02*
X115972000Y-108611000D01*
X119997000Y-108651000D02*
X118980000Y-108651000D01*
X117020000Y-108651000D02*
X116003000Y-108651000D01*
X119965000Y-108691000D02*
X118980000Y-108691000D01*
X117020000Y-108691000D02*
X116035000Y-108691000D01*
X119932000Y-108731000D02*
X118980000Y-108731000D01*
X117020000Y-108731000D02*
X116068000Y-108731000D01*
X119897000Y-108771000D02*
X118980000Y-108771000D01*
X117020000Y-108771000D02*
X116103000Y-108771000D01*
X119861000Y-108811000D02*
X118980000Y-108811000D01*
X117020000Y-108811000D02*
X116139000Y-108811000D01*
X119823000Y-108851000D02*
X118980000Y-108851000D01*
X117020000Y-108851000D02*
X116177000Y-108851000D01*
X119783000Y-108891000D02*
X118980000Y-108891000D01*
X117020000Y-108891000D02*
X116217000Y-108891000D01*
X119742000Y-108931000D02*
X118980000Y-108931000D01*
X117020000Y-108931000D02*
X116258000Y-108931000D01*
X119699000Y-108971000D02*
X118980000Y-108971000D01*
X117020000Y-108971000D02*
X116301000Y-108971000D01*
X119654000Y-109011000D02*
X118980000Y-109011000D01*
X117020000Y-109011000D02*
X116346000Y-109011000D01*
X119606000Y-109051000D02*
X118980000Y-109051000D01*
X117020000Y-109051000D02*
X116394000Y-109051000D01*
X119556000Y-109091000D02*
X118980000Y-109091000D01*
X117020000Y-109091000D02*
X116444000Y-109091000D01*
X119504000Y-109131000D02*
X118980000Y-109131000D01*
X117020000Y-109131000D02*
X116496000Y-109131000D01*
X119448000Y-109171000D02*
X118980000Y-109171000D01*
X117020000Y-109171000D02*
X116552000Y-109171000D01*
X119390000Y-109211000D02*
X118980000Y-109211000D01*
X117020000Y-109211000D02*
X116610000Y-109211000D01*
X119327000Y-109251000D02*
X118980000Y-109251000D01*
X117020000Y-109251000D02*
X116673000Y-109251000D01*
X119261000Y-109291000D02*
X116739000Y-109291000D01*
X119189000Y-109331000D02*
X116811000Y-109331000D01*
X119112000Y-109371000D02*
X116888000Y-109371000D01*
X119028000Y-109411000D02*
X116972000Y-109411000D01*
X118934000Y-109451000D02*
X117066000Y-109451000D01*
X118829000Y-109491000D02*
X117171000Y-109491000D01*
X118707000Y-109531000D02*
X117293000Y-109531000D01*
X118559000Y-109571000D02*
X117441000Y-109571000D01*
X118354000Y-109611000D02*
X117646000Y-109611000D01*
X118000000Y-103600000D02*
X118000000Y-104800000D01*
X118650000Y-104200000D02*
X117350000Y-104200000D01*
X105599538Y-90060000D02*
G75*
G03X107144830Y-84510000I462J2990000D01*
G01*
X105600462Y-90060000D02*
G75*
G02X104055170Y-84510000I-462J2990000D01*
G01*
X108100000Y-87070000D02*
G75*
G03X108100000Y-87070000I-2500000J0D01*
G01*
X107145000Y-84510000D02*
X104055000Y-84510000D01*
X105600462Y-90540000D02*
G75*
G03X104055170Y-96090000I-462J-2990000D01*
G01*
X105599538Y-90540000D02*
G75*
G02X107144830Y-96090000I462J-2990000D01*
G01*
X108100000Y-93530000D02*
G75*
G03X108100000Y-93530000I-2500000J0D01*
G01*
X104055000Y-96090000D02*
X107145000Y-96090000D01*
X148730000Y-92310000D02*
G75*
G02X148730000Y-90310000I0J1000000D01*
G01*
X148730000Y-90310000D02*
X148730000Y-88660000D01*
X148730000Y-88660000D02*
X113050000Y-88660000D01*
X113050000Y-88660000D02*
X113050000Y-93960000D01*
X113050000Y-93960000D02*
X148730000Y-93960000D01*
X148730000Y-93960000D02*
X148730000Y-92310000D01*
X148790000Y-86170000D02*
X112990000Y-86170000D01*
X112990000Y-86170000D02*
X112990000Y-96450000D01*
X112990000Y-96450000D02*
X148790000Y-96450000D01*
X148790000Y-96450000D02*
X148790000Y-86170000D01*
X128663000Y-77539000D02*
X129837000Y-77539000D01*
X128663000Y-79261000D02*
X129837000Y-79261000D01*
X123863000Y-77539000D02*
X125037000Y-77539000D01*
X123863000Y-79261000D02*
X125037000Y-79261000D01*
X111750000Y-83940000D02*
X111750000Y-85660000D01*
X111750000Y-85660000D02*
X115470000Y-85660000D01*
X115470000Y-85660000D02*
X115470000Y-83940000D01*
X115470000Y-83940000D02*
X111750000Y-83940000D01*
X110680000Y-84800000D02*
X111750000Y-84800000D01*
X116540000Y-84800000D02*
X115470000Y-84800000D01*
X109140000Y-92650000D02*
X110860000Y-92650000D01*
X110860000Y-92650000D02*
X110860000Y-88930000D01*
X110860000Y-88930000D02*
X109140000Y-88930000D01*
X109140000Y-88930000D02*
X109140000Y-92650000D01*
X110000000Y-93720000D02*
X110000000Y-92650000D01*
X110000000Y-87860000D02*
X110000000Y-88930000D01*
X120460000Y-72950000D02*
X118740000Y-72950000D01*
X118740000Y-72950000D02*
X118740000Y-76670000D01*
X118740000Y-76670000D02*
X120460000Y-76670000D01*
X120460000Y-76670000D02*
X120460000Y-72950000D01*
X119600000Y-71880000D02*
X119600000Y-72950000D01*
X119600000Y-77740000D02*
X119600000Y-76670000D01*
X128250000Y-126060000D02*
X128250000Y-124340000D01*
X128250000Y-124340000D02*
X124530000Y-124340000D01*
X124530000Y-124340000D02*
X124530000Y-126060000D01*
X124530000Y-126060000D02*
X128250000Y-126060000D01*
X129320000Y-125200000D02*
X128250000Y-125200000D01*
X123460000Y-125200000D02*
X124530000Y-125200000D01*
X124750000Y-120140000D02*
X124750000Y-121860000D01*
X124750000Y-121860000D02*
X128470000Y-121860000D01*
X128470000Y-121860000D02*
X128470000Y-120140000D01*
X128470000Y-120140000D02*
X124750000Y-120140000D01*
X123680000Y-121000000D02*
X124750000Y-121000000D01*
X129540000Y-121000000D02*
X128470000Y-121000000D01*
X124750000Y-116940000D02*
X124750000Y-118660000D01*
X124750000Y-118660000D02*
X128470000Y-118660000D01*
X128470000Y-118660000D02*
X128470000Y-116940000D01*
X128470000Y-116940000D02*
X124750000Y-116940000D01*
X123680000Y-117800000D02*
X124750000Y-117800000D01*
X129540000Y-117800000D02*
X128470000Y-117800000D01*
X135940000Y-124050000D02*
X137660000Y-124050000D01*
X137660000Y-124050000D02*
X137660000Y-120330000D01*
X137660000Y-120330000D02*
X135940000Y-120330000D01*
X135940000Y-120330000D02*
X135940000Y-124050000D01*
X136800000Y-125120000D02*
X136800000Y-124050000D01*
X136800000Y-119260000D02*
X136800000Y-120330000D01*
X141460000Y-120150000D02*
X139740000Y-120150000D01*
X139740000Y-120150000D02*
X139740000Y-123870000D01*
X139740000Y-123870000D02*
X141460000Y-123870000D01*
X141460000Y-123870000D02*
X141460000Y-120150000D01*
X140600000Y-119080000D02*
X140600000Y-120150000D01*
X140600000Y-124940000D02*
X140600000Y-123870000D01*
X147460000Y-120150000D02*
X145740000Y-120150000D01*
X145740000Y-120150000D02*
X145740000Y-123870000D01*
X145740000Y-123870000D02*
X147460000Y-123870000D01*
X147460000Y-123870000D02*
X147460000Y-120150000D01*
X146600000Y-119080000D02*
X146600000Y-120150000D01*
X146600000Y-124940000D02*
X146600000Y-123870000D01*
X142740000Y-123850000D02*
X144460000Y-123850000D01*
X144460000Y-123850000D02*
X144460000Y-120130000D01*
X144460000Y-120130000D02*
X142740000Y-120130000D01*
X142740000Y-120130000D02*
X142740000Y-123850000D01*
X143600000Y-124920000D02*
X143600000Y-123850000D01*
X143600000Y-119060000D02*
X143600000Y-120130000D01*
X144800000Y-75300000D02*
X149300000Y-75300000D01*
X143550000Y-71300000D02*
X143550000Y-72800000D01*
X149300000Y-68800000D02*
X144800000Y-68800000D01*
X150550000Y-72800000D02*
X150550000Y-71300000D01*
X148650000Y-79460000D02*
X148650000Y-77740000D01*
X148650000Y-77740000D02*
X144930000Y-77740000D01*
X144930000Y-77740000D02*
X144930000Y-79460000D01*
X144930000Y-79460000D02*
X148650000Y-79460000D01*
X149720000Y-78600000D02*
X148650000Y-78600000D01*
X143860000Y-78600000D02*
X144930000Y-78600000D01*
X118404871Y-75600000D02*
G75*
G03X118404871Y-75600000I-8004871J0D01*
G01*
X121529000Y-68280000D02*
X128270000Y-68280000D01*
X121529000Y-70820000D02*
X128270000Y-70820000D01*
X121529000Y-68280000D02*
X121529000Y-70820000D01*
X128270000Y-68280000D02*
X128270000Y-70820000D01*
X121529000Y-69019000D02*
X121750000Y-69019000D01*
X123450000Y-69019000D02*
X124062000Y-69019000D01*
X125739000Y-69019000D02*
X126362000Y-69019000D01*
X128039000Y-69019000D02*
X128270000Y-69019000D01*
X143990000Y-109330000D02*
G75*
G02X145990000Y-109330000I1000000J0D01*
G01*
X145990000Y-109330000D02*
X147640000Y-109330000D01*
X147640000Y-109330000D02*
X147640000Y-99050000D01*
X147640000Y-99050000D02*
X142340000Y-99050000D01*
X142340000Y-99050000D02*
X142340000Y-109330000D01*
X142340000Y-109330000D02*
X143990000Y-109330000D01*
X150130000Y-109390000D02*
X150130000Y-98990000D01*
X150130000Y-98990000D02*
X139850000Y-98990000D01*
X139850000Y-98990000D02*
X139850000Y-109390000D01*
X139850000Y-109390000D02*
X150130000Y-109390000D01*
X140750000Y-70930000D02*
X140750000Y-68270000D01*
X133070000Y-70930000D02*
X140750000Y-70930000D01*
X133070000Y-68270000D02*
X140750000Y-68270000D01*
X133070000Y-70930000D02*
X133070000Y-68270000D01*
X131800000Y-70930000D02*
X130470000Y-70930000D01*
X130470000Y-70930000D02*
X130470000Y-69600000D01*
X114830000Y-100870000D02*
X114830000Y-103530000D01*
X130130000Y-100870000D02*
X114830000Y-100870000D01*
X130130000Y-103530000D02*
X114830000Y-103530000D01*
X130130000Y-100870000D02*
X130130000Y-103530000D01*
X131400000Y-100870000D02*
X132730000Y-100870000D01*
X132730000Y-100870000D02*
X132730000Y-102200000D01*
X103670000Y-108210000D02*
X106330000Y-108210000D01*
X103670000Y-103070000D02*
X103670000Y-108210000D01*
X106330000Y-103070000D02*
X106330000Y-108210000D01*
X103670000Y-103070000D02*
X106330000Y-103070000D01*
X103670000Y-101800000D02*
X103670000Y-100470000D01*
X103670000Y-100470000D02*
X105000000Y-100470000D01*
X133680000Y-109271000D02*
X133680000Y-102530000D01*
X136220000Y-109271000D02*
X136220000Y-102530000D01*
X133680000Y-109271000D02*
X136220000Y-109271000D01*
X133680000Y-102530000D02*
X136220000Y-102530000D01*
X134419000Y-109271000D02*
X134419000Y-109050000D01*
X134419000Y-107350000D02*
X134419000Y-106738000D01*
X134419000Y-105061000D02*
X134419000Y-104438000D01*
X134419000Y-102761000D02*
X134419000Y-102530000D01*
X123200000Y-80100000D02*
X128200000Y-80100000D01*
X123200000Y-85500000D02*
X128200000Y-85500000D01*
X123200000Y-85500000D02*
G75*
G02X123200000Y-80100000I0J2700000D01*
G01*
X128200000Y-85500000D02*
G75*
G03X128200000Y-80100000I0J2700000D01*
G01*
X148350000Y-112400000D02*
G75*
G03X151750000Y-112400000I1700000J0D01*
G01*
X148350000Y-112400000D02*
G75*
G02X151750000Y-112400000I1700000J0D01*
G01*
D10*
X108717143Y-109412381D02*
X109336191Y-109412381D01*
X109002857Y-109793333D01*
X109145715Y-109793333D01*
X109240953Y-109840952D01*
X109288572Y-109888571D01*
X109336191Y-109983810D01*
X109336191Y-110221905D01*
X109288572Y-110317143D01*
X109240953Y-110364762D01*
X109145715Y-110412381D01*
X108860000Y-110412381D01*
X108764762Y-110364762D01*
X108717143Y-110317143D01*
X109764762Y-110317143D02*
X109812381Y-110364762D01*
X109764762Y-110412381D01*
X109717143Y-110364762D01*
X109764762Y-110317143D01*
X109764762Y-110412381D01*
X110145714Y-109412381D02*
X110764762Y-109412381D01*
X110431428Y-109793333D01*
X110574286Y-109793333D01*
X110669524Y-109840952D01*
X110717143Y-109888571D01*
X110764762Y-109983810D01*
X110764762Y-110221905D01*
X110717143Y-110317143D01*
X110669524Y-110364762D01*
X110574286Y-110412381D01*
X110288571Y-110412381D01*
X110193333Y-110364762D01*
X110145714Y-110317143D01*
X111050476Y-109412381D02*
X111383809Y-110412381D01*
X111717143Y-109412381D01*
X112050476Y-110412381D02*
X112050476Y-109745714D01*
X112050476Y-109936190D02*
X112098095Y-109840952D01*
X112145714Y-109793333D01*
X112240952Y-109745714D01*
X112336191Y-109745714D01*
X113050477Y-110364762D02*
X112955239Y-110412381D01*
X112764762Y-110412381D01*
X112669524Y-110364762D01*
X112621905Y-110269524D01*
X112621905Y-109888571D01*
X112669524Y-109793333D01*
X112764762Y-109745714D01*
X112955239Y-109745714D01*
X113050477Y-109793333D01*
X113098096Y-109888571D01*
X113098096Y-109983810D01*
X112621905Y-110079048D01*
X113955239Y-109745714D02*
X113955239Y-110555238D01*
X113907620Y-110650476D01*
X113860001Y-110698095D01*
X113764762Y-110745714D01*
X113621905Y-110745714D01*
X113526667Y-110698095D01*
X113955239Y-110364762D02*
X113860001Y-110412381D01*
X113669524Y-110412381D01*
X113574286Y-110364762D01*
X113526667Y-110317143D01*
X113479048Y-110221905D01*
X113479048Y-109936190D01*
X113526667Y-109840952D01*
X113574286Y-109793333D01*
X113669524Y-109745714D01*
X113860001Y-109745714D01*
X113955239Y-109793333D01*
X114955239Y-110412381D02*
X114383810Y-110412381D01*
X114669524Y-110412381D02*
X114669524Y-109412381D01*
X114574286Y-109555238D01*
X114479048Y-109650476D01*
X114383810Y-109698095D01*
X129433334Y-110557143D02*
X129385715Y-110604762D01*
X129242858Y-110652381D01*
X129147620Y-110652381D01*
X129004762Y-110604762D01*
X128909524Y-110509524D01*
X128861905Y-110414286D01*
X128814286Y-110223810D01*
X128814286Y-110080952D01*
X128861905Y-109890476D01*
X128909524Y-109795238D01*
X129004762Y-109700000D01*
X129147620Y-109652381D01*
X129242858Y-109652381D01*
X129385715Y-109700000D01*
X129433334Y-109747619D01*
X130385715Y-110652381D02*
X129814286Y-110652381D01*
X130100000Y-110652381D02*
X130100000Y-109652381D01*
X130004762Y-109795238D01*
X129909524Y-109890476D01*
X129814286Y-109938095D01*
X127967143Y-107216666D02*
X128014762Y-107264285D01*
X128062381Y-107407142D01*
X128062381Y-107502380D01*
X128014762Y-107645238D01*
X127919524Y-107740476D01*
X127824286Y-107788095D01*
X127633810Y-107835714D01*
X127490952Y-107835714D01*
X127300476Y-107788095D01*
X127205238Y-107740476D01*
X127110000Y-107645238D01*
X127062381Y-107502380D01*
X127062381Y-107407142D01*
X127110000Y-107264285D01*
X127157619Y-107216666D01*
X127157619Y-106835714D02*
X127110000Y-106788095D01*
X127062381Y-106692857D01*
X127062381Y-106454761D01*
X127110000Y-106359523D01*
X127157619Y-106311904D01*
X127252857Y-106264285D01*
X127348095Y-106264285D01*
X127490952Y-106311904D01*
X128062381Y-106883333D01*
X128062381Y-106264285D01*
X110483334Y-97347143D02*
X110435715Y-97394762D01*
X110292858Y-97442381D01*
X110197620Y-97442381D01*
X110054762Y-97394762D01*
X109959524Y-97299524D01*
X109911905Y-97204286D01*
X109864286Y-97013810D01*
X109864286Y-96870952D01*
X109911905Y-96680476D01*
X109959524Y-96585238D01*
X110054762Y-96490000D01*
X110197620Y-96442381D01*
X110292858Y-96442381D01*
X110435715Y-96490000D01*
X110483334Y-96537619D01*
X110816667Y-96442381D02*
X111435715Y-96442381D01*
X111102381Y-96823333D01*
X111245239Y-96823333D01*
X111340477Y-96870952D01*
X111388096Y-96918571D01*
X111435715Y-97013810D01*
X111435715Y-97251905D01*
X111388096Y-97347143D01*
X111340477Y-97394762D01*
X111245239Y-97442381D01*
X110959524Y-97442381D01*
X110864286Y-97394762D01*
X110816667Y-97347143D01*
X123633334Y-110557143D02*
X123585715Y-110604762D01*
X123442858Y-110652381D01*
X123347620Y-110652381D01*
X123204762Y-110604762D01*
X123109524Y-110509524D01*
X123061905Y-110414286D01*
X123014286Y-110223810D01*
X123014286Y-110080952D01*
X123061905Y-109890476D01*
X123109524Y-109795238D01*
X123204762Y-109700000D01*
X123347620Y-109652381D01*
X123442858Y-109652381D01*
X123585715Y-109700000D01*
X123633334Y-109747619D01*
X124490477Y-109985714D02*
X124490477Y-110652381D01*
X124252381Y-109604762D02*
X124014286Y-110319048D01*
X124633334Y-110319048D01*
X103652381Y-84138095D02*
X102652381Y-84138095D01*
X102652381Y-83900000D01*
X102700000Y-83757142D01*
X102795238Y-83661904D01*
X102890476Y-83614285D01*
X103080952Y-83566666D01*
X103223810Y-83566666D01*
X103414286Y-83614285D01*
X103509524Y-83661904D01*
X103604762Y-83757142D01*
X103652381Y-83900000D01*
X103652381Y-84138095D01*
X103652381Y-82614285D02*
X103652381Y-83185714D01*
X103652381Y-82900000D02*
X102652381Y-82900000D01*
X102795238Y-82995238D01*
X102890476Y-83090476D01*
X102938095Y-83185714D01*
X103652381Y-97538095D02*
X102652381Y-97538095D01*
X102652381Y-97300000D01*
X102700000Y-97157142D01*
X102795238Y-97061904D01*
X102890476Y-97014285D01*
X103080952Y-96966666D01*
X103223810Y-96966666D01*
X103414286Y-97014285D01*
X103509524Y-97061904D01*
X103604762Y-97157142D01*
X103652381Y-97300000D01*
X103652381Y-97538095D01*
X102747619Y-96585714D02*
X102700000Y-96538095D01*
X102652381Y-96442857D01*
X102652381Y-96204761D01*
X102700000Y-96109523D01*
X102747619Y-96061904D01*
X102842857Y-96014285D01*
X102938095Y-96014285D01*
X103080952Y-96061904D01*
X103652381Y-96633333D01*
X103652381Y-96014285D01*
X150182381Y-92286190D02*
X149182381Y-92286190D01*
X150087143Y-91238571D02*
X150134762Y-91286190D01*
X150182381Y-91429047D01*
X150182381Y-91524285D01*
X150134762Y-91667143D01*
X150039524Y-91762381D01*
X149944286Y-91810000D01*
X149753810Y-91857619D01*
X149610952Y-91857619D01*
X149420476Y-91810000D01*
X149325238Y-91762381D01*
X149230000Y-91667143D01*
X149182381Y-91524285D01*
X149182381Y-91429047D01*
X149230000Y-91286190D01*
X149277619Y-91238571D01*
X150182381Y-90286190D02*
X150182381Y-90857619D01*
X150182381Y-90571905D02*
X149182381Y-90571905D01*
X149325238Y-90667143D01*
X149420476Y-90762381D01*
X149468095Y-90857619D01*
X126440476Y-75742381D02*
X126630953Y-75742381D01*
X126726191Y-75790000D01*
X126821429Y-75885238D01*
X126869048Y-76075714D01*
X126869048Y-76409048D01*
X126821429Y-76599524D01*
X126726191Y-76694762D01*
X126630953Y-76742381D01*
X126440476Y-76742381D01*
X126345238Y-76694762D01*
X126250000Y-76599524D01*
X126202381Y-76409048D01*
X126202381Y-76075714D01*
X126250000Y-75885238D01*
X126345238Y-75790000D01*
X126440476Y-75742381D01*
X127250000Y-76694762D02*
X127345238Y-76742381D01*
X127535714Y-76742381D01*
X127630953Y-76694762D01*
X127678572Y-76599524D01*
X127678572Y-76551905D01*
X127630953Y-76456667D01*
X127535714Y-76409048D01*
X127392857Y-76409048D01*
X127297619Y-76361429D01*
X127250000Y-76266190D01*
X127250000Y-76218571D01*
X127297619Y-76123333D01*
X127392857Y-76075714D01*
X127535714Y-76075714D01*
X127630953Y-76123333D01*
X128535715Y-76694762D02*
X128440477Y-76742381D01*
X128250000Y-76742381D01*
X128154762Y-76694762D01*
X128107143Y-76647143D01*
X128059524Y-76551905D01*
X128059524Y-76266190D01*
X128107143Y-76170952D01*
X128154762Y-76123333D01*
X128250000Y-76075714D01*
X128440477Y-76075714D01*
X128535715Y-76123333D01*
X129535715Y-76647143D02*
X129488096Y-76694762D01*
X129345239Y-76742381D01*
X129250001Y-76742381D01*
X129107143Y-76694762D01*
X129011905Y-76599524D01*
X128964286Y-76504286D01*
X128916667Y-76313810D01*
X128916667Y-76170952D01*
X128964286Y-75980476D01*
X129011905Y-75885238D01*
X129107143Y-75790000D01*
X129250001Y-75742381D01*
X129345239Y-75742381D01*
X129488096Y-75790000D01*
X129535715Y-75837619D01*
X130392858Y-76742381D02*
X130392858Y-76218571D01*
X130345239Y-76123333D01*
X130250001Y-76075714D01*
X130059524Y-76075714D01*
X129964286Y-76123333D01*
X130392858Y-76694762D02*
X130297620Y-76742381D01*
X130059524Y-76742381D01*
X129964286Y-76694762D01*
X129916667Y-76599524D01*
X129916667Y-76504286D01*
X129964286Y-76409048D01*
X130059524Y-76361429D01*
X130297620Y-76361429D01*
X130392858Y-76313810D01*
X130869048Y-76075714D02*
X130869048Y-77075714D01*
X130869048Y-76123333D02*
X130964286Y-76075714D01*
X131154763Y-76075714D01*
X131250001Y-76123333D01*
X131297620Y-76170952D01*
X131345239Y-76266190D01*
X131345239Y-76551905D01*
X131297620Y-76647143D01*
X131250001Y-76694762D01*
X131154763Y-76742381D01*
X130964286Y-76742381D01*
X130869048Y-76694762D01*
X132297620Y-76742381D02*
X131726191Y-76742381D01*
X132011905Y-76742381D02*
X132011905Y-75742381D01*
X131916667Y-75885238D01*
X131821429Y-75980476D01*
X131726191Y-76028095D01*
X115990476Y-79052381D02*
X116180953Y-79052381D01*
X116276191Y-79100000D01*
X116371429Y-79195238D01*
X116419048Y-79385714D01*
X116419048Y-79719048D01*
X116371429Y-79909524D01*
X116276191Y-80004762D01*
X116180953Y-80052381D01*
X115990476Y-80052381D01*
X115895238Y-80004762D01*
X115800000Y-79909524D01*
X115752381Y-79719048D01*
X115752381Y-79385714D01*
X115800000Y-79195238D01*
X115895238Y-79100000D01*
X115990476Y-79052381D01*
X116800000Y-80004762D02*
X116895238Y-80052381D01*
X117085714Y-80052381D01*
X117180953Y-80004762D01*
X117228572Y-79909524D01*
X117228572Y-79861905D01*
X117180953Y-79766667D01*
X117085714Y-79719048D01*
X116942857Y-79719048D01*
X116847619Y-79671429D01*
X116800000Y-79576190D01*
X116800000Y-79528571D01*
X116847619Y-79433333D01*
X116942857Y-79385714D01*
X117085714Y-79385714D01*
X117180953Y-79433333D01*
X118085715Y-80004762D02*
X117990477Y-80052381D01*
X117800000Y-80052381D01*
X117704762Y-80004762D01*
X117657143Y-79957143D01*
X117609524Y-79861905D01*
X117609524Y-79576190D01*
X117657143Y-79480952D01*
X117704762Y-79433333D01*
X117800000Y-79385714D01*
X117990477Y-79385714D01*
X118085715Y-79433333D01*
X119085715Y-79957143D02*
X119038096Y-80004762D01*
X118895239Y-80052381D01*
X118800001Y-80052381D01*
X118657143Y-80004762D01*
X118561905Y-79909524D01*
X118514286Y-79814286D01*
X118466667Y-79623810D01*
X118466667Y-79480952D01*
X118514286Y-79290476D01*
X118561905Y-79195238D01*
X118657143Y-79100000D01*
X118800001Y-79052381D01*
X118895239Y-79052381D01*
X119038096Y-79100000D01*
X119085715Y-79147619D01*
X119942858Y-80052381D02*
X119942858Y-79528571D01*
X119895239Y-79433333D01*
X119800001Y-79385714D01*
X119609524Y-79385714D01*
X119514286Y-79433333D01*
X119942858Y-80004762D02*
X119847620Y-80052381D01*
X119609524Y-80052381D01*
X119514286Y-80004762D01*
X119466667Y-79909524D01*
X119466667Y-79814286D01*
X119514286Y-79719048D01*
X119609524Y-79671429D01*
X119847620Y-79671429D01*
X119942858Y-79623810D01*
X120419048Y-79385714D02*
X120419048Y-80385714D01*
X120419048Y-79433333D02*
X120514286Y-79385714D01*
X120704763Y-79385714D01*
X120800001Y-79433333D01*
X120847620Y-79480952D01*
X120895239Y-79576190D01*
X120895239Y-79861905D01*
X120847620Y-79957143D01*
X120800001Y-80004762D01*
X120704763Y-80052381D01*
X120514286Y-80052381D01*
X120419048Y-80004762D01*
X121276191Y-79147619D02*
X121323810Y-79100000D01*
X121419048Y-79052381D01*
X121657144Y-79052381D01*
X121752382Y-79100000D01*
X121800001Y-79147619D01*
X121847620Y-79242857D01*
X121847620Y-79338095D01*
X121800001Y-79480952D01*
X121228572Y-80052381D01*
X121847620Y-80052381D01*
X113443334Y-83392381D02*
X113110000Y-82916190D01*
X112871905Y-83392381D02*
X112871905Y-82392381D01*
X113252858Y-82392381D01*
X113348096Y-82440000D01*
X113395715Y-82487619D01*
X113443334Y-82582857D01*
X113443334Y-82725714D01*
X113395715Y-82820952D01*
X113348096Y-82868571D01*
X113252858Y-82916190D01*
X112871905Y-82916190D01*
X114395715Y-83392381D02*
X113824286Y-83392381D01*
X114110000Y-83392381D02*
X114110000Y-82392381D01*
X114014762Y-82535238D01*
X113919524Y-82630476D01*
X113824286Y-82678095D01*
X112252381Y-90766666D02*
X111776190Y-91100000D01*
X112252381Y-91338095D02*
X111252381Y-91338095D01*
X111252381Y-90957142D01*
X111300000Y-90861904D01*
X111347619Y-90814285D01*
X111442857Y-90766666D01*
X111585714Y-90766666D01*
X111680952Y-90814285D01*
X111728571Y-90861904D01*
X111776190Y-90957142D01*
X111776190Y-91338095D01*
X111347619Y-90385714D02*
X111300000Y-90338095D01*
X111252381Y-90242857D01*
X111252381Y-90004761D01*
X111300000Y-89909523D01*
X111347619Y-89861904D01*
X111442857Y-89814285D01*
X111538095Y-89814285D01*
X111680952Y-89861904D01*
X112252381Y-90433333D01*
X112252381Y-89814285D01*
X121912381Y-74976666D02*
X121436190Y-75310000D01*
X121912381Y-75548095D02*
X120912381Y-75548095D01*
X120912381Y-75167142D01*
X120960000Y-75071904D01*
X121007619Y-75024285D01*
X121102857Y-74976666D01*
X121245714Y-74976666D01*
X121340952Y-75024285D01*
X121388571Y-75071904D01*
X121436190Y-75167142D01*
X121436190Y-75548095D01*
X120912381Y-74643333D02*
X120912381Y-74024285D01*
X121293333Y-74357619D01*
X121293333Y-74214761D01*
X121340952Y-74119523D01*
X121388571Y-74071904D01*
X121483810Y-74024285D01*
X121721905Y-74024285D01*
X121817143Y-74071904D01*
X121864762Y-74119523D01*
X121912381Y-74214761D01*
X121912381Y-74500476D01*
X121864762Y-74595714D01*
X121817143Y-74643333D01*
X117604762Y-125652381D02*
X117271428Y-125176190D01*
X117033333Y-125652381D02*
X117033333Y-124652381D01*
X117414286Y-124652381D01*
X117509524Y-124700000D01*
X117557143Y-124747619D01*
X117604762Y-124842857D01*
X117604762Y-124985714D01*
X117557143Y-125080952D01*
X117509524Y-125128571D01*
X117414286Y-125176190D01*
X117033333Y-125176190D01*
X117985714Y-125366667D02*
X118461905Y-125366667D01*
X117890476Y-125652381D02*
X118223809Y-124652381D01*
X118557143Y-125652381D01*
X118890476Y-125652381D02*
X118890476Y-124652381D01*
X119128571Y-124652381D01*
X119271429Y-124700000D01*
X119366667Y-124795238D01*
X119414286Y-124890476D01*
X119461905Y-125080952D01*
X119461905Y-125223810D01*
X119414286Y-125414286D01*
X119366667Y-125509524D01*
X119271429Y-125604762D01*
X119128571Y-125652381D01*
X118890476Y-125652381D01*
X120461905Y-125557143D02*
X120414286Y-125604762D01*
X120271429Y-125652381D01*
X120176191Y-125652381D01*
X120033333Y-125604762D01*
X119938095Y-125509524D01*
X119890476Y-125414286D01*
X119842857Y-125223810D01*
X119842857Y-125080952D01*
X119890476Y-124890476D01*
X119938095Y-124795238D01*
X120033333Y-124700000D01*
X120176191Y-124652381D01*
X120271429Y-124652381D01*
X120414286Y-124700000D01*
X120461905Y-124747619D01*
X121414286Y-125652381D02*
X120842857Y-125652381D01*
X121128571Y-125652381D02*
X121128571Y-124652381D01*
X121033333Y-124795238D01*
X120938095Y-124890476D01*
X120842857Y-124938095D01*
X117804762Y-121452381D02*
X117471428Y-120976190D01*
X117233333Y-121452381D02*
X117233333Y-120452381D01*
X117614286Y-120452381D01*
X117709524Y-120500000D01*
X117757143Y-120547619D01*
X117804762Y-120642857D01*
X117804762Y-120785714D01*
X117757143Y-120880952D01*
X117709524Y-120928571D01*
X117614286Y-120976190D01*
X117233333Y-120976190D01*
X118185714Y-121166667D02*
X118661905Y-121166667D01*
X118090476Y-121452381D02*
X118423809Y-120452381D01*
X118757143Y-121452381D01*
X119090476Y-121452381D02*
X119090476Y-120452381D01*
X119328571Y-120452381D01*
X119471429Y-120500000D01*
X119566667Y-120595238D01*
X119614286Y-120690476D01*
X119661905Y-120880952D01*
X119661905Y-121023810D01*
X119614286Y-121214286D01*
X119566667Y-121309524D01*
X119471429Y-121404762D01*
X119328571Y-121452381D01*
X119090476Y-121452381D01*
X120661905Y-121357143D02*
X120614286Y-121404762D01*
X120471429Y-121452381D01*
X120376191Y-121452381D01*
X120233333Y-121404762D01*
X120138095Y-121309524D01*
X120090476Y-121214286D01*
X120042857Y-121023810D01*
X120042857Y-120880952D01*
X120090476Y-120690476D01*
X120138095Y-120595238D01*
X120233333Y-120500000D01*
X120376191Y-120452381D01*
X120471429Y-120452381D01*
X120614286Y-120500000D01*
X120661905Y-120547619D01*
X121042857Y-120547619D02*
X121090476Y-120500000D01*
X121185714Y-120452381D01*
X121423810Y-120452381D01*
X121519048Y-120500000D01*
X121566667Y-120547619D01*
X121614286Y-120642857D01*
X121614286Y-120738095D01*
X121566667Y-120880952D01*
X120995238Y-121452381D01*
X121614286Y-121452381D01*
X116100000Y-118252381D02*
X115766666Y-117776190D01*
X115528571Y-118252381D02*
X115528571Y-117252381D01*
X115909524Y-117252381D01*
X116004762Y-117300000D01*
X116052381Y-117347619D01*
X116100000Y-117442857D01*
X116100000Y-117585714D01*
X116052381Y-117680952D01*
X116004762Y-117728571D01*
X115909524Y-117776190D01*
X115528571Y-117776190D01*
X116480952Y-117966667D02*
X116957143Y-117966667D01*
X116385714Y-118252381D02*
X116719047Y-117252381D01*
X117052381Y-118252381D01*
X117385714Y-118252381D02*
X117385714Y-117252381D01*
X117623809Y-117252381D01*
X117766667Y-117300000D01*
X117861905Y-117395238D01*
X117909524Y-117490476D01*
X117957143Y-117680952D01*
X117957143Y-117823810D01*
X117909524Y-118014286D01*
X117861905Y-118109524D01*
X117766667Y-118204762D01*
X117623809Y-118252381D01*
X117385714Y-118252381D01*
X118957143Y-118157143D02*
X118909524Y-118204762D01*
X118766667Y-118252381D01*
X118671429Y-118252381D01*
X118528571Y-118204762D01*
X118433333Y-118109524D01*
X118385714Y-118014286D01*
X118338095Y-117823810D01*
X118338095Y-117680952D01*
X118385714Y-117490476D01*
X118433333Y-117395238D01*
X118528571Y-117300000D01*
X118671429Y-117252381D01*
X118766667Y-117252381D01*
X118909524Y-117300000D01*
X118957143Y-117347619D01*
X119385714Y-117585714D02*
X119385714Y-118585714D01*
X119385714Y-117633333D02*
X119480952Y-117585714D01*
X119671429Y-117585714D01*
X119766667Y-117633333D01*
X119814286Y-117680952D01*
X119861905Y-117776190D01*
X119861905Y-118061905D01*
X119814286Y-118157143D01*
X119766667Y-118204762D01*
X119671429Y-118252381D01*
X119480952Y-118252381D01*
X119385714Y-118204762D01*
X120719048Y-117585714D02*
X120719048Y-118252381D01*
X120290476Y-117585714D02*
X120290476Y-118109524D01*
X120338095Y-118204762D01*
X120433333Y-118252381D01*
X120576191Y-118252381D01*
X120671429Y-118204762D01*
X120719048Y-118157143D01*
X121719048Y-118252381D02*
X121147619Y-118252381D01*
X121433333Y-118252381D02*
X121433333Y-117252381D01*
X121338095Y-117395238D01*
X121242857Y-117490476D01*
X121147619Y-117538095D01*
X136333334Y-128052381D02*
X136000000Y-127576190D01*
X135761905Y-128052381D02*
X135761905Y-127052381D01*
X136142858Y-127052381D01*
X136238096Y-127100000D01*
X136285715Y-127147619D01*
X136333334Y-127242857D01*
X136333334Y-127385714D01*
X136285715Y-127480952D01*
X136238096Y-127528571D01*
X136142858Y-127576190D01*
X135761905Y-127576190D01*
X137333334Y-127957143D02*
X137285715Y-128004762D01*
X137142858Y-128052381D01*
X137047620Y-128052381D01*
X136904762Y-128004762D01*
X136809524Y-127909524D01*
X136761905Y-127814286D01*
X136714286Y-127623810D01*
X136714286Y-127480952D01*
X136761905Y-127290476D01*
X136809524Y-127195238D01*
X136904762Y-127100000D01*
X137047620Y-127052381D01*
X137142858Y-127052381D01*
X137285715Y-127100000D01*
X137333334Y-127147619D01*
X138285715Y-128052381D02*
X137714286Y-128052381D01*
X138000000Y-128052381D02*
X138000000Y-127052381D01*
X137904762Y-127195238D01*
X137809524Y-127290476D01*
X137714286Y-127338095D01*
X139933334Y-128052381D02*
X139600000Y-127576190D01*
X139361905Y-128052381D02*
X139361905Y-127052381D01*
X139742858Y-127052381D01*
X139838096Y-127100000D01*
X139885715Y-127147619D01*
X139933334Y-127242857D01*
X139933334Y-127385714D01*
X139885715Y-127480952D01*
X139838096Y-127528571D01*
X139742858Y-127576190D01*
X139361905Y-127576190D01*
X140933334Y-127957143D02*
X140885715Y-128004762D01*
X140742858Y-128052381D01*
X140647620Y-128052381D01*
X140504762Y-128004762D01*
X140409524Y-127909524D01*
X140361905Y-127814286D01*
X140314286Y-127623810D01*
X140314286Y-127480952D01*
X140361905Y-127290476D01*
X140409524Y-127195238D01*
X140504762Y-127100000D01*
X140647620Y-127052381D01*
X140742858Y-127052381D01*
X140885715Y-127100000D01*
X140933334Y-127147619D01*
X141314286Y-127147619D02*
X141361905Y-127100000D01*
X141457143Y-127052381D01*
X141695239Y-127052381D01*
X141790477Y-127100000D01*
X141838096Y-127147619D01*
X141885715Y-127242857D01*
X141885715Y-127338095D01*
X141838096Y-127480952D01*
X141266667Y-128052381D01*
X141885715Y-128052381D01*
X145933334Y-128052381D02*
X145600000Y-127576190D01*
X145361905Y-128052381D02*
X145361905Y-127052381D01*
X145742858Y-127052381D01*
X145838096Y-127100000D01*
X145885715Y-127147619D01*
X145933334Y-127242857D01*
X145933334Y-127385714D01*
X145885715Y-127480952D01*
X145838096Y-127528571D01*
X145742858Y-127576190D01*
X145361905Y-127576190D01*
X146933334Y-127957143D02*
X146885715Y-128004762D01*
X146742858Y-128052381D01*
X146647620Y-128052381D01*
X146504762Y-128004762D01*
X146409524Y-127909524D01*
X146361905Y-127814286D01*
X146314286Y-127623810D01*
X146314286Y-127480952D01*
X146361905Y-127290476D01*
X146409524Y-127195238D01*
X146504762Y-127100000D01*
X146647620Y-127052381D01*
X146742858Y-127052381D01*
X146885715Y-127100000D01*
X146933334Y-127147619D01*
X147266667Y-127052381D02*
X147885715Y-127052381D01*
X147552381Y-127433333D01*
X147695239Y-127433333D01*
X147790477Y-127480952D01*
X147838096Y-127528571D01*
X147885715Y-127623810D01*
X147885715Y-127861905D01*
X147838096Y-127957143D01*
X147790477Y-128004762D01*
X147695239Y-128052381D01*
X147409524Y-128052381D01*
X147314286Y-128004762D01*
X147266667Y-127957143D01*
X143133334Y-128052381D02*
X142800000Y-127576190D01*
X142561905Y-128052381D02*
X142561905Y-127052381D01*
X142942858Y-127052381D01*
X143038096Y-127100000D01*
X143085715Y-127147619D01*
X143133334Y-127242857D01*
X143133334Y-127385714D01*
X143085715Y-127480952D01*
X143038096Y-127528571D01*
X142942858Y-127576190D01*
X142561905Y-127576190D01*
X144133334Y-127957143D02*
X144085715Y-128004762D01*
X143942858Y-128052381D01*
X143847620Y-128052381D01*
X143704762Y-128004762D01*
X143609524Y-127909524D01*
X143561905Y-127814286D01*
X143514286Y-127623810D01*
X143514286Y-127480952D01*
X143561905Y-127290476D01*
X143609524Y-127195238D01*
X143704762Y-127100000D01*
X143847620Y-127052381D01*
X143942858Y-127052381D01*
X144085715Y-127100000D01*
X144133334Y-127147619D01*
X144990477Y-127385714D02*
X144990477Y-128052381D01*
X144752381Y-127004762D02*
X144514286Y-127719048D01*
X145133334Y-127719048D01*
X143057142Y-68652381D02*
X142723808Y-68176190D01*
X142485713Y-68652381D02*
X142485713Y-67652381D01*
X142866666Y-67652381D01*
X142961904Y-67700000D01*
X143009523Y-67747619D01*
X143057142Y-67842857D01*
X143057142Y-67985714D01*
X143009523Y-68080952D01*
X142961904Y-68128571D01*
X142866666Y-68176190D01*
X142485713Y-68176190D01*
X143866666Y-68604762D02*
X143771428Y-68652381D01*
X143580951Y-68652381D01*
X143485713Y-68604762D01*
X143438094Y-68509524D01*
X143438094Y-68128571D01*
X143485713Y-68033333D01*
X143580951Y-67985714D01*
X143771428Y-67985714D01*
X143866666Y-68033333D01*
X143914285Y-68128571D01*
X143914285Y-68223810D01*
X143438094Y-68319048D01*
X144295237Y-68604762D02*
X144390475Y-68652381D01*
X144580951Y-68652381D01*
X144676190Y-68604762D01*
X144723809Y-68509524D01*
X144723809Y-68461905D01*
X144676190Y-68366667D01*
X144580951Y-68319048D01*
X144438094Y-68319048D01*
X144342856Y-68271429D01*
X144295237Y-68176190D01*
X144295237Y-68128571D01*
X144342856Y-68033333D01*
X144438094Y-67985714D01*
X144580951Y-67985714D01*
X144676190Y-68033333D01*
X145533333Y-68604762D02*
X145438095Y-68652381D01*
X145247618Y-68652381D01*
X145152380Y-68604762D01*
X145104761Y-68509524D01*
X145104761Y-68128571D01*
X145152380Y-68033333D01*
X145247618Y-67985714D01*
X145438095Y-67985714D01*
X145533333Y-68033333D01*
X145580952Y-68128571D01*
X145580952Y-68223810D01*
X145104761Y-68319048D01*
X145866666Y-67985714D02*
X146247618Y-67985714D01*
X146009523Y-67652381D02*
X146009523Y-68509524D01*
X146057142Y-68604762D01*
X146152380Y-68652381D01*
X146247618Y-68652381D01*
X146914286Y-68128571D02*
X147057143Y-68176190D01*
X147104762Y-68223810D01*
X147152381Y-68319048D01*
X147152381Y-68461905D01*
X147104762Y-68557143D01*
X147057143Y-68604762D01*
X146961905Y-68652381D01*
X146580952Y-68652381D01*
X146580952Y-67652381D01*
X146914286Y-67652381D01*
X147009524Y-67700000D01*
X147057143Y-67747619D01*
X147104762Y-67842857D01*
X147104762Y-67938095D01*
X147057143Y-68033333D01*
X147009524Y-68080952D01*
X146914286Y-68128571D01*
X146580952Y-68128571D01*
X148009524Y-67985714D02*
X148009524Y-68652381D01*
X147580952Y-67985714D02*
X147580952Y-68509524D01*
X147628571Y-68604762D01*
X147723809Y-68652381D01*
X147866667Y-68652381D01*
X147961905Y-68604762D01*
X148009524Y-68557143D01*
X148342857Y-67985714D02*
X148723809Y-67985714D01*
X148485714Y-67652381D02*
X148485714Y-68509524D01*
X148533333Y-68604762D01*
X148628571Y-68652381D01*
X148723809Y-68652381D01*
X148914286Y-67985714D02*
X149295238Y-67985714D01*
X149057143Y-67652381D02*
X149057143Y-68509524D01*
X149104762Y-68604762D01*
X149200000Y-68652381D01*
X149295238Y-68652381D01*
X149771429Y-68652381D02*
X149676191Y-68604762D01*
X149628572Y-68557143D01*
X149580953Y-68461905D01*
X149580953Y-68176190D01*
X149628572Y-68080952D01*
X149676191Y-68033333D01*
X149771429Y-67985714D01*
X149914287Y-67985714D01*
X150009525Y-68033333D01*
X150057144Y-68080952D01*
X150104763Y-68176190D01*
X150104763Y-68461905D01*
X150057144Y-68557143D01*
X150009525Y-68604762D01*
X149914287Y-68652381D01*
X149771429Y-68652381D01*
X150533334Y-67985714D02*
X150533334Y-68652381D01*
X150533334Y-68080952D02*
X150580953Y-68033333D01*
X150676191Y-67985714D01*
X150819049Y-67985714D01*
X150914287Y-68033333D01*
X150961906Y-68128571D01*
X150961906Y-68652381D01*
X151961906Y-68652381D02*
X151390477Y-68652381D01*
X151676191Y-68652381D02*
X151676191Y-67652381D01*
X151580953Y-67795238D01*
X151485715Y-67890476D01*
X151390477Y-67938095D01*
X144575714Y-80912381D02*
X144242380Y-80436190D01*
X144004285Y-80912381D02*
X144004285Y-79912381D01*
X144385238Y-79912381D01*
X144480476Y-79960000D01*
X144528095Y-80007619D01*
X144575714Y-80102857D01*
X144575714Y-80245714D01*
X144528095Y-80340952D01*
X144480476Y-80388571D01*
X144385238Y-80436190D01*
X144004285Y-80436190D01*
X145575714Y-80912381D02*
X145242380Y-80436190D01*
X145004285Y-80912381D02*
X145004285Y-79912381D01*
X145385238Y-79912381D01*
X145480476Y-79960000D01*
X145528095Y-80007619D01*
X145575714Y-80102857D01*
X145575714Y-80245714D01*
X145528095Y-80340952D01*
X145480476Y-80388571D01*
X145385238Y-80436190D01*
X145004285Y-80436190D01*
X146385238Y-80864762D02*
X146290000Y-80912381D01*
X146099523Y-80912381D01*
X146004285Y-80864762D01*
X145956666Y-80769524D01*
X145956666Y-80388571D01*
X146004285Y-80293333D01*
X146099523Y-80245714D01*
X146290000Y-80245714D01*
X146385238Y-80293333D01*
X146432857Y-80388571D01*
X146432857Y-80483810D01*
X145956666Y-80579048D01*
X146813809Y-80864762D02*
X146909047Y-80912381D01*
X147099523Y-80912381D01*
X147194762Y-80864762D01*
X147242381Y-80769524D01*
X147242381Y-80721905D01*
X147194762Y-80626667D01*
X147099523Y-80579048D01*
X146956666Y-80579048D01*
X146861428Y-80531429D01*
X146813809Y-80436190D01*
X146813809Y-80388571D01*
X146861428Y-80293333D01*
X146956666Y-80245714D01*
X147099523Y-80245714D01*
X147194762Y-80293333D01*
X148051905Y-80864762D02*
X147956667Y-80912381D01*
X147766190Y-80912381D01*
X147670952Y-80864762D01*
X147623333Y-80769524D01*
X147623333Y-80388571D01*
X147670952Y-80293333D01*
X147766190Y-80245714D01*
X147956667Y-80245714D01*
X148051905Y-80293333D01*
X148099524Y-80388571D01*
X148099524Y-80483810D01*
X147623333Y-80579048D01*
X148385238Y-80245714D02*
X148766190Y-80245714D01*
X148528095Y-79912381D02*
X148528095Y-80769524D01*
X148575714Y-80864762D01*
X148670952Y-80912381D01*
X148766190Y-80912381D01*
X149623334Y-80912381D02*
X149051905Y-80912381D01*
X149337619Y-80912381D02*
X149337619Y-79912381D01*
X149242381Y-80055238D01*
X149147143Y-80150476D01*
X149051905Y-80198095D01*
X108889175Y-77754822D02*
X109032032Y-77802441D01*
X109270128Y-77802441D01*
X109365366Y-77754822D01*
X109412985Y-77707203D01*
X109460604Y-77611965D01*
X109460604Y-77516727D01*
X109412985Y-77421489D01*
X109365366Y-77373870D01*
X109270128Y-77326250D01*
X109079651Y-77278631D01*
X108984413Y-77231012D01*
X108936794Y-77183393D01*
X108889175Y-77088155D01*
X108889175Y-76992917D01*
X108936794Y-76897679D01*
X108984413Y-76850060D01*
X109079651Y-76802441D01*
X109317747Y-76802441D01*
X109460604Y-76850060D01*
X109889175Y-77802441D02*
X109889175Y-76802441D01*
X110270128Y-76802441D01*
X110365366Y-76850060D01*
X110412985Y-76897679D01*
X110460604Y-76992917D01*
X110460604Y-77135774D01*
X110412985Y-77231012D01*
X110365366Y-77278631D01*
X110270128Y-77326250D01*
X109889175Y-77326250D01*
X111412985Y-77802441D02*
X110841556Y-77802441D01*
X111127270Y-77802441D02*
X111127270Y-76802441D01*
X111032032Y-76945298D01*
X110936794Y-77040536D01*
X110841556Y-77088155D01*
X124138095Y-66732381D02*
X124138095Y-67541905D01*
X124185714Y-67637143D01*
X124233333Y-67684762D01*
X124328571Y-67732381D01*
X124519048Y-67732381D01*
X124614286Y-67684762D01*
X124661905Y-67637143D01*
X124709524Y-67541905D01*
X124709524Y-66732381D01*
X125709524Y-67732381D02*
X125138095Y-67732381D01*
X125423809Y-67732381D02*
X125423809Y-66732381D01*
X125328571Y-66875238D01*
X125233333Y-66970476D01*
X125138095Y-67018095D01*
X144228095Y-109782381D02*
X144228095Y-110591905D01*
X144275714Y-110687143D01*
X144323333Y-110734762D01*
X144418571Y-110782381D01*
X144609048Y-110782381D01*
X144704286Y-110734762D01*
X144751905Y-110687143D01*
X144799524Y-110591905D01*
X144799524Y-109782381D01*
X145228095Y-109877619D02*
X145275714Y-109830000D01*
X145370952Y-109782381D01*
X145609048Y-109782381D01*
X145704286Y-109830000D01*
X145751905Y-109877619D01*
X145799524Y-109972857D01*
X145799524Y-110068095D01*
X145751905Y-110210952D01*
X145180476Y-110782381D01*
X145799524Y-110782381D01*
X128922381Y-70361905D02*
X129731905Y-70361905D01*
X129827143Y-70314286D01*
X129874762Y-70266667D01*
X129922381Y-70171429D01*
X129922381Y-69980952D01*
X129874762Y-69885714D01*
X129827143Y-69838095D01*
X129731905Y-69790476D01*
X128922381Y-69790476D01*
X128922381Y-69409524D02*
X128922381Y-68790476D01*
X129303333Y-69123810D01*
X129303333Y-68980952D01*
X129350952Y-68885714D01*
X129398571Y-68838095D01*
X129493810Y-68790476D01*
X129731905Y-68790476D01*
X129827143Y-68838095D01*
X129874762Y-68885714D01*
X129922381Y-68980952D01*
X129922381Y-69266667D01*
X129874762Y-69361905D01*
X129827143Y-69409524D01*
X134452381Y-102161905D02*
X135261905Y-102161905D01*
X135357143Y-102114286D01*
X135404762Y-102066667D01*
X135452381Y-101971429D01*
X135452381Y-101780952D01*
X135404762Y-101685714D01*
X135357143Y-101638095D01*
X135261905Y-101590476D01*
X134452381Y-101590476D01*
X134785714Y-100685714D02*
X135452381Y-100685714D01*
X134404762Y-100923810D02*
X135119048Y-101161905D01*
X135119048Y-100542857D01*
X104238095Y-98922381D02*
X104238095Y-99731905D01*
X104285714Y-99827143D01*
X104333333Y-99874762D01*
X104428571Y-99922381D01*
X104619048Y-99922381D01*
X104714286Y-99874762D01*
X104761905Y-99827143D01*
X104809524Y-99731905D01*
X104809524Y-98922381D01*
X105761905Y-98922381D02*
X105285714Y-98922381D01*
X105238095Y-99398571D01*
X105285714Y-99350952D01*
X105380952Y-99303333D01*
X105619048Y-99303333D01*
X105714286Y-99350952D01*
X105761905Y-99398571D01*
X105809524Y-99493810D01*
X105809524Y-99731905D01*
X105761905Y-99827143D01*
X105714286Y-99874762D01*
X105619048Y-99922381D01*
X105380952Y-99922381D01*
X105285714Y-99874762D01*
X105238095Y-99827143D01*
X132132381Y-106661905D02*
X132941905Y-106661905D01*
X133037143Y-106614286D01*
X133084762Y-106566667D01*
X133132381Y-106471429D01*
X133132381Y-106280952D01*
X133084762Y-106185714D01*
X133037143Y-106138095D01*
X132941905Y-106090476D01*
X132132381Y-106090476D01*
X132132381Y-105185714D02*
X132132381Y-105376191D01*
X132180000Y-105471429D01*
X132227619Y-105519048D01*
X132370476Y-105614286D01*
X132560952Y-105661905D01*
X132941905Y-105661905D01*
X133037143Y-105614286D01*
X133084762Y-105566667D01*
X133132381Y-105471429D01*
X133132381Y-105280952D01*
X133084762Y-105185714D01*
X133037143Y-105138095D01*
X132941905Y-105090476D01*
X132703810Y-105090476D01*
X132608571Y-105138095D01*
X132560952Y-105185714D01*
X132513333Y-105280952D01*
X132513333Y-105471429D01*
X132560952Y-105566667D01*
X132608571Y-105614286D01*
X132703810Y-105661905D01*
X123738096Y-84385714D02*
X123738096Y-85052381D01*
X123309524Y-84385714D02*
X123309524Y-84909524D01*
X123357143Y-85004762D01*
X123452381Y-85052381D01*
X123595239Y-85052381D01*
X123690477Y-85004762D01*
X123738096Y-84957143D01*
X124785715Y-84957143D02*
X124738096Y-85004762D01*
X124595239Y-85052381D01*
X124500001Y-85052381D01*
X124357143Y-85004762D01*
X124261905Y-84909524D01*
X124214286Y-84814286D01*
X124166667Y-84623810D01*
X124166667Y-84480952D01*
X124214286Y-84290476D01*
X124261905Y-84195238D01*
X124357143Y-84100000D01*
X124500001Y-84052381D01*
X124595239Y-84052381D01*
X124738096Y-84100000D01*
X124785715Y-84147619D01*
X125404762Y-84052381D02*
X125595239Y-84052381D01*
X125690477Y-84100000D01*
X125785715Y-84195238D01*
X125833334Y-84385714D01*
X125833334Y-84719048D01*
X125785715Y-84909524D01*
X125690477Y-85004762D01*
X125595239Y-85052381D01*
X125404762Y-85052381D01*
X125309524Y-85004762D01*
X125214286Y-84909524D01*
X125166667Y-84719048D01*
X125166667Y-84385714D01*
X125214286Y-84195238D01*
X125309524Y-84100000D01*
X125404762Y-84052381D01*
X126214286Y-85004762D02*
X126357143Y-85052381D01*
X126595239Y-85052381D01*
X126690477Y-85004762D01*
X126738096Y-84957143D01*
X126785715Y-84861905D01*
X126785715Y-84766667D01*
X126738096Y-84671429D01*
X126690477Y-84623810D01*
X126595239Y-84576190D01*
X126404762Y-84528571D01*
X126309524Y-84480952D01*
X126261905Y-84433333D01*
X126214286Y-84338095D01*
X126214286Y-84242857D01*
X126261905Y-84147619D01*
X126309524Y-84100000D01*
X126404762Y-84052381D01*
X126642858Y-84052381D01*
X126785715Y-84100000D01*
X127785715Y-84957143D02*
X127738096Y-85004762D01*
X127595239Y-85052381D01*
X127500001Y-85052381D01*
X127357143Y-85004762D01*
X127261905Y-84909524D01*
X127214286Y-84814286D01*
X127166667Y-84623810D01*
X127166667Y-84480952D01*
X127214286Y-84290476D01*
X127261905Y-84195238D01*
X127357143Y-84100000D01*
X127500001Y-84052381D01*
X127595239Y-84052381D01*
X127738096Y-84100000D01*
X127785715Y-84147619D01*
X128738096Y-85052381D02*
X128166667Y-85052381D01*
X128452381Y-85052381D02*
X128452381Y-84052381D01*
X128357143Y-84195238D01*
X128261905Y-84290476D01*
X128166667Y-84338095D01*
X149573809Y-115076190D02*
X149573809Y-115552381D01*
X149240476Y-114552381D02*
X149573809Y-115076190D01*
X149907143Y-114552381D01*
X150764286Y-115552381D02*
X150192857Y-115552381D01*
X150478571Y-115552381D02*
X150478571Y-114552381D01*
X150383333Y-114695238D01*
X150288095Y-114790476D01*
X150192857Y-114838095D01*
M02*
